<svg width="84" height="54" viewBox="0 0 84 54" fill="none" xmlns="http://www.w3.org/2000/svg">
<path d="M20.7517 19.8399C21.6671 20.0695 22.9078 20.5274 24.4736 21.2137C29.0287 23.2104 32.249 26.1672 34.1344 30.0843C36.1008 34.2086 36.0414 38.7326 33.9562 43.6565C31.871 48.5804 28.5781 51.773 24.0775 53.2344C19.9842 54.5309 15.66 54.1808 11.1049 52.1842C5.26864 49.626 1.73529 45.4158 0.504857 39.5537C-0.725589 33.6916 0.284417 26.9228 3.53488 19.2473C7.48022 9.93092 11.8621 5.51228 18.9861 1.00589C21.9872 -0.89248 25.8967 -0.00993672 28.0209 2.8633C30.6455 6.41348 29.2464 11.0576 25.6782 13.618C23.8587 14.9236 22.3845 16.6344 20.7517 19.8399Z" fill="#FFF500"/>
<path d="M69.1843 19.8399C70.0997 20.0695 71.3403 20.5274 72.9061 21.2137C77.4613 23.2104 80.6815 26.1672 82.5669 30.0843C84.5333 34.2086 84.4739 38.7326 82.3887 43.6565C80.3035 48.5804 77.0106 51.773 72.51 53.2344C68.4168 54.5309 64.0926 54.1808 59.5374 52.1842C53.7012 49.626 50.1678 45.4158 48.9374 39.5537C47.7069 33.6916 48.7169 26.9228 51.9674 19.2473C55.9128 9.93092 60.2947 5.51228 67.4187 1.00589C70.4197 -0.89248 74.3292 -0.00993672 76.4534 2.8633C79.078 6.41348 77.6789 11.0576 74.1107 13.618C72.2912 14.9236 70.817 16.6344 69.1843 19.8399Z" fill="#FFF500"/>
</svg>
