<svg width="390" height="643" viewBox="0 0 390 643" fill="none" xmlns="http://www.w3.org/2000/svg">
<g clip-path="url(#clip0_230_2043)">
<mask id="mask0_230_2043" style="mask-type:luminance" maskUnits="userSpaceOnUse" x="0" y="0" width="390" height="643">
<path d="M390 0H0V643H390V0Z" fill="white"/>
</mask>
<g mask="url(#mask0_230_2043)">
<mask id="mask1_230_2043" style="mask-type:alpha" maskUnits="userSpaceOnUse" x="-1" y="-1" width="391" height="644">
<path d="M389.801 -0.30957H-0.199219V642.69H389.801V-0.30957Z" fill="#D9D9D9"/>
</mask>
<g mask="url(#mask1_230_2043)">
<path d="M389.801 -0.30957H-0.199341V642.69H389.801V-0.30957Z" fill="#D9D9D9"/>
<path d="M868.801 -0.30957H-0.199341V642.69H868.801V-0.30957Z" fill="white"/>
<path d="M381.821 714.643C337.737 714.643 302 678.906 302 634.822C302 590.738 337.737 555 381.821 555C425.906 555 461.643 590.738 461.643 634.822C461.643 678.906 425.906 714.643 381.821 714.643Z" fill="#FFF500"/>
<path d="M21.982 307.964C206.987 307.964 356.964 157.988 356.964 -27.0175C356.964 -212.023 206.987 -362 21.982 -362C-163.023 -362 -313 -212.023 -313 -27.0175C-313 157.988 -163.023 307.964 21.982 307.964Z" fill="#FFF500"/>
<path d="M261.189 228.225L212.09 218.427L228.638 267.019L261.189 228.225Z" stroke="black" stroke-width="1.35804" stroke-linejoin="round"/>
<path d="M312 620.32C324.879 620.32 335.32 609.88 335.32 597C335.32 584.121 324.879 573.68 312 573.68C299.121 573.68 288.68 584.121 288.68 597C288.68 609.88 299.121 620.32 312 620.32Z" stroke="black" stroke-width="1.36" stroke-linejoin="round"/>
<path d="M185.296 303.767C186.725 302.337 186.725 300.019 185.296 298.589C183.866 297.159 181.548 297.159 180.118 298.589L165.588 313.119C164.159 314.549 164.159 316.867 165.588 318.296C167.018 319.726 169.336 319.726 170.766 318.296L185.296 303.767Z" fill="black"/>
<path d="M81.116 89.9192H66.5107C71.8217 91.778 78.8145 94.4778 82.488 96.4251L80.0095 100.939C76.1148 98.7266 68.0155 95.3187 62.3062 93.2385L64.2978 89.9192H62.7045C60.5801 95.3629 55.8445 98.8593 44.0275 100.806C43.6734 99.3904 42.4342 97.1775 41.4163 96.0711C50.3122 94.8761 54.4725 92.8845 56.5526 89.9192H43.3636V85.4491H58.2787C58.4115 84.741 58.5442 83.9443 58.6327 83.1477H42.3457V78.589H59.3409V76.2434H46.2404V71.8175H59.3409V69.5604H43.7177V64.9132H52.1268C51.4629 63.5855 50.5335 62.1692 49.6483 61.0185L54.3397 59.1597C55.7117 60.7087 57.0837 62.8331 57.6591 64.3379L56.3756 64.9132H66.1124C67.2189 63.1872 68.5466 60.8857 69.2547 59.1597L74.9198 60.6202C73.9461 62.1692 72.9282 63.6297 71.9545 64.9132H80.4521V69.5604H64.7846V71.8175H78.3277V76.2434H64.7846V78.589H82.3995V83.1477H64.2093C64.1208 83.9443 63.988 84.6967 63.8552 85.4491H81.116V89.9192ZM94.5705 59.6022L99.5717 61.5496C96.6949 65.6656 92.3576 69.9587 88.2858 72.6142C87.7104 71.4635 86.427 69.2948 85.6303 68.2769C89.0382 66.1082 92.7559 62.5233 94.5705 59.6022ZM114.708 74.7386V77.04H119.399V74.7386H114.708ZM114.708 68.0113V70.2685H119.399V68.0113H114.708ZM124.401 81.2888H114.708V83.5017H124.843V87.839H114.708V90.1847H126.613V94.7433H114.708V100.85H109.663V94.7433H98.5537V90.1847H109.663V87.839H100.28V83.5017H109.663V81.2888H100.944V77.04H109.663V74.7386H99.3061V72.4371C98.4652 73.8092 97.4473 75.2697 96.3408 76.6859V100.895H91.4281V82.3953C90.1447 83.723 88.9054 84.918 87.6662 85.9359C87.2679 84.8295 85.9844 81.9527 85.232 80.6692C88.9497 77.9252 93.11 73.5436 95.5442 69.2948L99.3061 70.8881V70.2685H109.663V68.0113H101.121V63.7625H109.663V59.5137H114.708V63.7625H124.401V70.2685H127.056V74.7386H124.401V81.2888ZM136.572 67.1704V70.7996H131.836V63.0986H147.99C147.636 62.1692 147.149 61.2398 146.707 60.4431L151.31 59.1597C152.062 60.3546 152.859 61.8152 153.346 63.0986H169.5V70.7996H164.587V67.1704H136.572ZM141.44 90.7601V92.1763H159.851V90.7601H141.44ZM141.44 86.9096V88.2816H159.851V86.9096H141.44ZM141.44 83.1034V84.3869H159.851V83.1034H141.44ZM165.207 94.7876H159.143C163.038 95.8498 166.933 97.0005 169.544 97.8414L165.959 101.072C162.773 99.8773 157.594 98.107 152.505 96.7792L154.319 94.7876H146.22L148.875 96.735C145.158 98.6381 138.962 100.364 133.828 101.116C133.208 100.098 131.969 98.5053 131.039 97.5316C134.934 97.0005 139.493 95.9826 142.679 94.7876H136.35V80.4479H165.207V94.7876ZM152.283 76.5532H157.993L158.125 75.1369H152.46L152.283 76.5532ZM142.325 75.1369L142.148 76.5532H147.99L148.167 75.1369H142.325ZM148.566 71.2422H142.812L142.635 72.5257H148.433L148.566 71.2422ZM158.347 72.5257L158.435 71.2422H152.859L152.77 72.5257H158.347ZM163.259 71.9503H170.916V75.7123H162.905L162.551 79.1644H137.103L137.545 75.7123H130.597V71.9503H138.076L138.519 68.5867H163.569L163.259 71.9503ZM187.469 92.2649L191.186 93.9467C188.177 96.4694 182.866 98.7708 178.307 99.833C177.643 98.7266 176.271 97.0005 175.209 96.0268C179.635 95.4072 184.769 93.9024 187.469 92.2649ZM199.374 94.4778L202.915 91.9993C206.5 93.3271 211.722 95.54 214.555 96.9562L210.837 99.833C208.27 98.3725 203.092 96.0268 199.374 94.4778ZM201.233 70.8438H189.106C189.814 71.9503 190.522 73.2338 190.877 74.1632L188.487 74.7386H200.569L198.976 74.2517C199.684 73.2338 200.613 71.906 201.233 70.8438ZM197.471 86.467H214.643V90.8043H197.471V100.895H192.249V90.8043H175.386V86.467H192.249V84.5197H179.502V80.7134H192.249V78.7218H177.289V74.7386H185.433C185.034 73.7206 184.371 72.4814 183.795 71.5077L186.761 70.8438H175.475V66.7278H181.494C180.83 65.046 179.679 62.9216 178.661 61.2398L183.176 59.735C184.503 61.5939 185.964 64.2494 186.539 65.9312L184.415 66.7278H188.487V59.5137H193.355V66.7278H196.674V59.5137H201.631V66.7278H205.57L203.977 66.241C204.995 64.4707 206.19 61.7709 206.81 59.8678L212.342 61.1513C211.103 63.1872 209.908 65.1788 208.801 66.7278H214.51V70.8438H202.826L206.987 71.906C206.013 72.9682 205.083 73.9419 204.287 74.7386H212.829V78.7218H197.471V80.7134H210.749V84.5197H197.471V86.467Z" fill="black"/>
<path d="M52.1699 121.962H59.2512C57.8349 121.076 56.3744 120.147 55.0467 119.306C54.1172 120.191 53.1436 121.121 52.1699 121.962ZM59.6053 130.149H49.5586V131.61V131.875H59.6053V130.149ZM49.3816 136.788H59.6053V134.974H49.4701C49.4701 135.549 49.4259 136.168 49.3816 136.788ZM60.8445 145.374H52.6567V148.517H60.8445V145.374ZM59.561 125.06H50.4438V123.334C48.8948 124.484 47.3457 125.591 45.7082 126.52H64.3852V140.417H49.0275C48.939 140.86 48.8948 141.347 48.8062 141.789H65.4474V153.606H60.8445V152.411H52.6567V153.783H48.2751V144.622C47.6555 147.41 46.7261 150.11 45.4426 152.367C44.4247 151.703 42.1232 150.729 40.8398 150.331C44.3362 144.71 44.6902 136.788 44.6902 131.61V127.14L43.6723 127.671C43.1854 126.432 41.8134 123.776 40.9283 122.625C46.0622 120.457 51.2405 116.828 54.073 112.579L58.8971 114.482C58.6316 114.88 58.366 115.234 58.1005 115.588C61.3756 117.491 65.049 119.66 67.0849 121.121L64.3852 125.547C63.1902 124.573 61.4641 123.422 59.561 122.183V125.06ZM72.8828 117.182V141.878H67.9258V117.182H72.8828ZM75.9366 112.756H80.982V147.631C80.982 150.464 80.4509 151.88 78.8134 152.721C77.2643 153.606 74.7416 153.783 71.2009 153.783C70.9797 152.323 70.36 149.977 69.6519 148.517C71.9091 148.561 74.2105 148.561 74.9186 148.561C75.6268 148.561 75.9366 148.34 75.9366 147.587V112.756ZM109.529 122.094H103.952C103.067 123.511 102.093 124.75 101.12 125.812H109.529V122.094ZM97.7559 125.812H100.943C99.8803 124.971 97.8002 123.909 96.6052 123.334C99.3492 120.855 101.606 116.96 102.89 113.066L107.758 114.216C107.404 115.367 106.917 116.518 106.431 117.624H109.529V112.667H114.751V117.624H124.4V122.094H114.751V125.812H126.214V130.238H97.7559V125.812ZM106.077 140.727H118.026V136.655H106.077V140.727ZM123.249 146.348H118.026V145.153H106.077V146.481H101.031V132.495H123.249V146.348ZM95.5873 120.191L90.6303 121.829C90.055 119.881 88.9928 116.783 88.1961 114.438L93.0203 113.021C93.8612 115.367 94.9234 118.288 95.5873 120.191ZM96.738 132.185L98.9509 133.159C98.0215 137.452 96.561 141.789 94.7906 145.197C95.366 145.596 96.0299 146.082 96.8708 146.569C99.8803 148.384 103.996 148.649 109.175 148.649C114.264 148.649 122.187 148.207 127.099 147.499C126.48 148.915 125.683 151.482 125.594 152.898C121.877 153.119 114.132 153.429 108.953 153.429C103.111 153.429 99.3935 152.942 96.2069 151.084C94.3923 150.066 92.799 148.605 91.9138 148.605C90.8959 148.605 89.4354 151.615 88.4174 154.137L84.921 149.092C86.7356 146.79 88.7272 145.109 90.3648 144.356C91.427 142.232 92.3564 139.532 93.0645 136.921H87.1339C88.1519 134.442 89.3468 130.946 90.409 127.627H85.7177V122.935H96.6052C95.6758 125.945 94.5251 129.397 93.4629 132.407H95.9856L96.738 132.185ZM139.713 152.367L136.084 150.995C136.836 148.251 137.677 144.135 138.075 141.17L141.439 142.453C140.996 145.241 140.288 149.623 139.713 152.367ZM149.582 134.841V131.654H143.563V134.841H149.582ZM161.222 116.739H163.966C163.126 115.987 162.108 115.19 161.222 114.482C161.222 115.234 161.222 115.987 161.222 116.739ZM164.453 122.05L169.189 123.245C167.596 127.45 165.294 131.212 162.506 134.398C163.568 142.719 165.161 148.649 166.533 148.649C167.153 148.649 167.551 146.392 167.684 141.568C168.658 142.763 170.295 143.914 171.579 144.445C170.826 151.747 169.41 153.651 165.87 153.651C162.019 153.651 159.541 147.277 158.08 138.514C157.239 139.178 156.354 139.753 155.469 140.329C155.071 139.798 154.362 139.09 153.654 138.337H148.432C149.671 140.329 151.176 142.94 151.84 144.445L148.388 146.304C147.901 144.976 146.883 143.029 145.909 141.214V148.649C145.909 149.8 146.086 149.933 147.193 149.933H150.379C151.397 149.933 151.618 149.269 151.707 145.241C152.371 145.728 153.521 146.215 154.539 146.525C153.92 145.02 153.3 143.515 152.725 142.188L156.177 140.86C157.593 143.869 159.319 147.897 160.16 150.287L156.443 151.88C156.177 150.907 155.734 149.623 155.203 148.251C154.716 152.323 153.566 153.473 150.822 153.473H146.529C142.634 153.473 141.749 152.323 141.749 148.694V141.17H145.865L145.024 139.665L147.768 138.337H139.27V128.113H153.699V135.682C154.982 134.885 156.177 133.956 157.283 132.938C156.841 129.087 156.575 124.971 156.354 120.899H138.164V122.802H155.115V126.299H138.164C138.075 134.177 137.279 146.127 133.472 154.049C132.587 153.208 130.419 151.703 129.268 151.305C132.986 143.648 133.34 132.539 133.34 125.237V116.739H156.221C156.177 115.367 156.133 113.995 156.133 112.623H161.222V114.039L164.011 112.092C165.427 113.11 167.419 114.57 168.437 115.5L166.799 116.739H170.34V120.899H161.355C161.444 123.157 161.576 125.414 161.754 127.582C162.86 125.856 163.745 124.042 164.453 122.05ZM195.036 135.062H187.423C187.335 135.682 187.246 136.301 187.114 136.877C189.415 139.134 194.195 144.666 195.434 146.127L191.893 150.552C190.433 148.251 187.91 144.932 185.742 142.232C184.237 146.569 181.625 150.729 177.377 153.828C176.669 152.721 174.721 150.641 173.615 149.844C179.368 145.728 181.404 140.196 182.112 135.062H174.279V130.105H182.466V128.999V123.068H180.696C179.811 125.325 178.793 127.361 177.687 128.999C176.713 128.113 174.633 126.609 173.438 125.945C175.828 122.758 177.509 117.669 178.395 112.623L183.44 113.641C183.13 115.19 182.776 116.695 182.334 118.2H194.018V123.068H187.777V129.043V130.105H195.036V135.062ZM201.32 144.533H207.738V121.386H201.32V144.533ZM196.231 116.429H213.093V152.013H207.738V149.49H201.32V152.677H196.231V116.429ZM221.945 140.373L225.972 141.524C224.866 144.71 223.051 148.34 221.502 150.597C220.706 149.933 219.024 148.782 218.05 148.207C219.555 146.127 221.015 143.117 221.945 140.373ZM232.346 121.298H225.795C226.459 122.758 227.035 124.661 227.256 125.901L224.069 126.786H230.442C231.106 125.192 231.903 122.935 232.346 121.298ZM239.029 138.957H232.168V153.651H227.079V138.957H218.847V134.531H227.079V131.123H218.581V126.786H222.874C222.653 125.458 222.122 123.555 221.591 122.183L225.22 121.298H219.245V117.005H226.813C226.415 115.81 225.928 114.57 225.485 113.508L230.752 112.225C231.416 113.685 232.213 115.5 232.744 117.005H239.073V121.298H233.54L237.125 122.006C236.462 123.688 235.798 125.414 235.134 126.786H239.737V131.123H232.168V134.531H239.029V138.957ZM259.476 127.184V132.052H255.36V153.783H250.226V132.052H246.11V132.584C246.11 139.09 245.534 148.207 241.773 153.872C240.887 152.942 238.807 151.261 237.701 150.729C238.542 149.446 239.206 147.985 239.692 146.436L236.55 148.384C235.842 146.613 234.337 143.781 233.098 141.745L236.55 139.886C237.745 141.657 239.117 144.002 239.869 145.684C241.109 141.435 241.241 136.655 241.241 132.584V116.828C246.066 115.942 251.421 114.57 254.652 113.066L258.679 116.916C255.05 118.377 250.447 119.439 246.11 120.236V127.184H259.476ZM298.6 121.298V119.262H296.254V121.298H298.6ZM298.6 126.564V124.484H296.254V126.564H298.6ZM285.5 124.484V126.564H287.757V124.484H285.5ZM285.5 119.262V121.298H287.757V119.262H285.5ZM293.068 124.484H290.943V126.564H293.068V124.484ZM290.943 121.298H293.068V119.262H290.943V121.298ZM302.672 115.81V130.017H281.605V115.81H286.827V112.667H290.899V115.81H292.847V112.667H296.963V115.81H302.672ZM303.513 131.521V135.283H280.941V131.521H303.513ZM269.301 139.001V140.329C269.301 141.612 269.257 142.94 269.168 144.401C270.673 143.781 272.488 142.896 274.479 141.922V139.975L272.709 141.922C271.957 141.17 270.585 139.975 269.301 139.001ZM268.637 117.713V126.609H270.363V119.527H274.656V117.713H268.637ZM273.019 126.609H274.656V122.493H273.019V126.609ZM276.825 131.92V130.149H266.69V131.92H276.825ZM269.301 135.328V137.85L270.806 136.346C272.089 137.186 273.506 138.16 274.479 139.001V135.328H269.301ZM280.808 133.424H278.817V149.402C278.817 151.305 278.507 152.367 277.268 153.031C276.117 153.695 274.479 153.739 272.134 153.739C272.001 152.633 271.47 150.951 270.939 149.889C272.178 149.933 273.506 149.933 273.904 149.933C274.347 149.933 274.479 149.756 274.479 149.357V145.33C273.019 146.304 271.603 147.233 270.186 148.074L269.036 145.596C268.682 148.605 267.929 151.792 266.38 154.093C265.628 153.341 263.68 152.013 262.707 151.57C264.875 148.251 265.052 143.737 265.052 140.24V133.469H262.839V126.609H264.566V113.995H278.949V126.609H280.808V133.424ZM295.237 145.374H288.686C289.217 146.702 289.793 148.207 290.191 149.446H293.776C294.307 148.118 294.882 146.613 295.237 145.374ZM287.226 139.93V142.232H296.83V139.93H287.226ZM298.113 149.446H303.867V153.252H280.499V149.446H285.721C285.367 148.34 284.924 147.189 284.526 146.215L287.314 145.374H282.623V136.744H301.698V145.374H296.653L300.061 146.304C299.353 147.41 298.733 148.472 298.113 149.446ZM309.311 150.951L306.478 149.977C307.319 147.41 307.983 143.338 308.293 140.417L310.904 141.347C310.638 144.268 310.063 148.472 309.311 150.951ZM311.391 141.347L313.559 141.17C313.781 143.692 313.914 147.012 313.914 149.225L311.612 149.49C311.701 147.277 311.568 143.914 311.391 141.347ZM314.002 141.037L316.126 140.683C316.658 142.984 317.233 145.905 317.41 147.808L315.197 148.251C315.064 146.304 314.533 143.294 314.002 141.037ZM312.807 131.875V134.664H315.551V131.875H312.807ZM315.551 118.598H312.807V121.519H315.551V118.598ZM315.551 128.025V125.414H312.807V128.025H315.551ZM331.617 122.36H340.778C339.052 121.076 337.37 119.749 335.866 118.377C334.626 119.793 333.166 121.121 331.617 122.36ZM328.519 140.329L332.945 141.081C332.679 142.232 332.369 143.383 332.015 144.489C333.608 145.463 335.29 146.746 336.175 147.72L333.608 151.128C332.9 150.375 331.705 149.313 330.466 148.384C329.404 150.597 328.12 152.5 326.66 154.005C325.996 153.252 324.358 151.924 323.341 151.172C323.208 151.615 323.075 151.924 322.898 152.146C322.234 153.119 321.482 153.473 320.464 153.606C319.579 153.783 318.207 153.828 316.79 153.783C316.746 152.588 316.303 150.951 315.772 149.889C316.879 150.021 317.808 150.021 318.251 150.021C318.738 150.021 319.048 149.977 319.357 149.535C319.623 149.092 319.8 148.03 319.977 145.728L318.428 146.304C318.118 144.755 317.366 142.365 316.658 140.594L318.516 139.975C319.092 141.258 319.667 142.896 320.065 144.268C320.154 142.852 320.198 141.081 320.287 138.957H308.735V114.305H324.049V118.598H319.534V121.519H323.341V122.537C328.032 119.926 332.325 115.898 334.671 112.048L339.362 113.685C339.097 114.172 338.787 114.615 338.477 115.057C341.132 117.403 344.983 119.749 348.391 121.032C347.638 122.227 346.753 124.529 346.443 125.856C345.071 125.148 343.699 124.352 342.327 123.422V126.343H329.315V124.13C328.297 124.794 327.28 125.414 326.262 126.033C325.642 125.192 324.314 123.776 323.341 122.98V125.414H319.534V128.025H323.473V131.875H319.534V134.664H324.447C324.447 134.664 324.447 135.814 324.403 136.346C324.181 144.578 323.96 148.826 323.429 150.862C326.04 148.384 327.722 144.533 328.519 140.329ZM339.893 131.964V136.124H342.681V131.964H339.893ZM336.485 139.444V128.689H346.311V139.444H336.485ZM329.006 131.964V136.124H331.44V131.964H329.006ZM325.598 139.444V128.689H335.069V139.444H325.598ZM339.318 140.107L344.009 140.904C343.699 142.674 343.301 144.401 342.77 146.038C344.629 147.277 346.753 148.826 347.904 149.933L344.85 153.518C344.009 152.588 342.504 151.349 341 150.198C340.247 151.615 339.362 152.942 338.388 154.005C337.636 153.208 335.689 151.747 334.582 151.084C337.149 148.561 338.654 144.533 339.318 140.107Z" fill="black"/>
<path d="M42.3892 166.868H346.886V165.54H42.3892V166.868Z" fill="black"/>
<mask id="mask2_230_2043" style="mask-type:luminance" maskUnits="userSpaceOnUse" x="42" y="165" width="305" height="2">
<path d="M42.3892 166.868H346.886V165.54H42.3892V166.868Z" fill="white"/>
</mask>
<g mask="url(#mask2_230_2043)">
<path d="M42.3892 166.868V168.639H40.6188V166.868H42.3892ZM346.886 166.868H348.657V168.639H346.886V166.868ZM346.886 165.54V163.77H348.657V165.54H346.886ZM42.3892 165.54H40.6188V163.77H42.3892V165.54ZM42.3892 165.098H346.886V168.639H42.3892V165.098ZM345.116 166.868V165.54H348.657V166.868H345.116ZM346.886 167.311H42.3892V163.77H346.886V167.311ZM44.1595 165.54V166.868H40.6188V165.54H44.1595Z" fill="black"/>
</g>
<path d="M64.8349 177.349V178.604H51.076V177.349H57.3761C57.1589 176.794 56.8692 176.215 56.6037 175.732L57.9072 175.321C58.2934 175.925 58.7279 176.721 58.9692 177.349H64.8349ZM48.0104 178.821L46.7793 179.28C46.5862 178.411 46.031 177.059 45.4276 176.046L46.6103 175.659C47.2379 176.673 47.8173 177.977 48.0104 178.821ZM50.5691 179.594V180.922H43.062V179.594H50.5691ZM48.6621 190.48H45.1379V194.753H48.6621V190.48ZM49.9173 189.153V196.056H45.1379V197.215H43.931V189.153H49.9173ZM44.0517 187.222V185.918H49.9173V187.222H44.0517ZM44.0517 184.011V182.708H49.9173V184.011H44.0517ZM55.9761 188.622V190.022H59.7658V188.622H55.9761ZM55.9761 186.135V187.511H59.7658V186.135H55.9761ZM53.2726 180.656V182.635H56.0002V180.656H53.2726ZM59.9107 180.656V182.635H62.7107V180.656H59.9107ZM63.6763 191.615L64.5694 192.436C63.6763 193.087 62.5417 193.715 61.5521 194.198C62.5659 195.091 63.8452 195.791 65.2935 196.177C64.9797 196.491 64.5694 196.998 64.3763 197.36C61.3348 196.37 59.1382 194.174 57.9554 191.229H57.6175C56.9899 191.832 56.1933 192.387 55.3485 192.894V195.525L59.0899 194.777C59.0658 195.163 59.0899 195.743 59.1382 196.032C54.8657 197.022 54.2381 197.215 53.8519 197.456C53.7312 197.143 53.3691 196.587 53.1277 196.37C53.4657 196.129 54.045 195.574 54.045 194.511V193.57C53.1277 194.029 52.1622 194.391 51.2691 194.705C51.1001 194.439 50.6656 193.884 50.4001 193.643C52.3312 193.087 54.3829 192.267 55.8312 191.229H50.7622V190.022H54.5036V188.622H51.9691V187.511H54.5036V186.135H51.5346V185.001H54.5036V183.649H52.0174V179.642H57.3037V183.649H55.9761V185.001H59.7658V183.649H58.6555V179.642H64.0142V183.649H61.2383V185.001H64.5452V186.135H61.2383V187.511H64.0383V188.622H61.2383V190.022H65.0521V191.229H59.3072C59.6934 192.001 60.1762 192.725 60.7072 193.353C61.7452 192.846 62.928 192.122 63.6763 191.615ZM80.2594 175.563H82.0215C81.9974 176.408 81.9732 177.615 81.8525 179.039C82.2146 181.839 83.6871 192.122 92.2079 195.936C91.7734 196.298 91.2907 196.829 91.0493 197.287C84.8457 194.367 82.3112 188.139 81.1525 183.601C80.0904 188.525 77.5559 194.198 71.473 197.36C71.2075 196.949 70.6764 196.467 70.2178 196.129C80.2594 191.108 80.187 179.184 80.2594 175.563ZM118.616 180.39V182.032H112.002V194.849C112.002 196.056 111.664 196.539 110.867 196.829C110.071 197.094 108.695 197.143 106.329 197.118C106.257 196.66 105.991 195.936 105.75 195.453C107.488 195.525 109.153 195.501 109.612 195.501C110.095 195.477 110.288 195.332 110.288 194.849V182.587C107.464 187.198 102.732 191.977 98.2426 194.511C97.9529 194.053 97.4701 193.449 97.0356 193.087C101.429 190.867 106.039 186.377 108.719 182.032H97.7839V180.39H110.288V175.466H112.002V180.39H118.616ZM141.282 187.173V184.542H130.974V187.173H141.282ZM130.902 191.277H141.282V188.573H130.974V189.442C130.974 190.022 130.95 190.625 130.902 191.277ZM145.699 180.149H132.664C132.181 181.139 131.65 182.153 131.095 183.094H142.851V195.38C142.851 196.394 142.609 196.877 141.861 197.143C141.113 197.408 139.785 197.408 137.685 197.408C137.613 196.949 137.371 196.298 137.154 195.839C138.819 195.912 140.292 195.887 140.702 195.887C141.137 195.863 141.282 195.718 141.282 195.356V192.677H130.709C130.371 194.439 129.671 196.249 128.247 197.601C128.054 197.239 127.474 196.587 127.136 196.346C129.14 194.391 129.357 191.711 129.357 189.418V185.58C128.174 187.053 126.823 188.404 125.278 189.491C125.085 189.129 124.578 188.549 124.264 188.235C127.161 186.256 129.357 183.335 130.926 180.149H124.747V178.628H131.578C132.037 177.59 132.399 176.528 132.688 175.49L134.281 175.852C133.992 176.794 133.678 177.711 133.292 178.628H145.699V180.149ZM171.599 177.059L170.634 177.928C169.958 177.47 168.703 176.697 167.737 176.166L168.679 175.394C169.62 175.877 170.899 176.601 171.599 177.059ZM155.306 196.66L154.123 196.225C154.534 194.946 155.065 192.894 155.33 191.567L156.416 191.977C156.127 193.28 155.692 195.38 155.306 196.66ZM162.403 187.873V184.76H157.406V187.873H162.403ZM163.73 183.553V189.08H156.03V183.553H163.73ZM162.523 193.111L161.389 193.715C160.906 192.822 159.989 191.301 159.241 190.191L160.327 189.684C161.099 190.794 162.041 192.242 162.523 193.111ZM159.675 196.056H162.692C163.465 196.056 163.586 195.718 163.658 193.232C163.972 193.474 164.479 193.667 164.865 193.763C164.72 196.612 164.334 197.263 162.837 197.263H159.554C157.792 197.263 157.334 196.877 157.334 195.429V191.373H158.685V195.429C158.685 195.96 158.83 196.056 159.675 196.056ZM164.261 191.591L165.396 191.156C166.265 192.58 167.303 194.511 167.81 195.67L166.603 196.225C166.12 195.043 165.106 193.063 164.261 191.591ZM170.489 180.584L171.937 180.946C171.068 183.335 169.789 185.411 168.268 187.149C169.017 192.411 170.224 195.839 171.31 195.839C171.744 195.839 171.962 194.56 172.082 191.76C172.42 192.098 172.927 192.46 173.313 192.605C173.048 196.249 172.565 197.384 171.117 197.384C169.186 197.384 167.786 193.811 166.941 188.525C166.168 189.249 165.372 189.877 164.527 190.456C164.286 190.167 163.73 189.587 163.368 189.346C164.575 188.646 165.686 187.777 166.699 186.763C166.386 184.47 166.168 181.959 166.048 179.304H154.823V180.97H164.913V182.153H154.823V183.118C154.823 187.149 154.485 193.256 152.409 197.505C152.12 197.215 151.468 196.781 151.13 196.636C153.134 192.58 153.327 186.956 153.327 183.118V177.952H165.999C165.951 177.132 165.951 176.287 165.927 175.466H167.496C167.496 176.311 167.496 177.156 167.52 177.952H172.927V179.304H167.568C167.665 181.404 167.81 183.384 168.027 185.194C169.065 183.818 169.886 182.273 170.489 180.584Z" fill="black"/>
<path d="M193.172 183.264C194.91 184.664 197.058 186.836 198.627 188.647L197.155 189.902C195.586 187.947 193.51 185.895 191.796 184.519L193.172 183.264Z" fill="black"/>
<path d="M239.602 177.349V178.604H225.843V177.349H232.143C231.926 176.794 231.636 176.215 231.37 175.732L232.674 175.321C233.06 175.925 233.495 176.721 233.736 177.349H239.602ZM222.777 178.821L221.546 179.28C221.353 178.411 220.798 177.059 220.194 176.046L221.377 175.659C222.005 176.673 222.584 177.977 222.777 178.821ZM225.336 179.594V180.922H217.829V179.594H225.336ZM223.429 190.48H219.905V194.753H223.429V190.48ZM224.684 189.153V196.056H219.905V197.215H218.698V189.153H224.684ZM218.818 187.222V185.918H224.684V187.222H218.818ZM218.818 184.011V182.708H224.684V184.011H218.818ZM230.743 188.622V190.022H234.533V188.622H230.743ZM230.743 186.135V187.511H234.533V186.135H230.743ZM228.039 180.656V182.635H230.767V180.656H228.039ZM234.677 180.656V182.635H237.477V180.656H234.677ZM238.443 191.615L239.336 192.436C238.443 193.087 237.308 193.715 236.319 194.198C237.333 195.091 238.612 195.791 240.06 196.177C239.746 196.491 239.336 196.998 239.143 197.36C236.102 196.37 233.905 194.174 232.722 191.229H232.384C231.757 191.832 230.96 192.387 230.115 192.894V195.525L233.857 194.777C233.833 195.163 233.857 195.743 233.905 196.032C229.632 197.022 229.005 197.215 228.619 197.456C228.498 197.143 228.136 196.587 227.894 196.37C228.232 196.129 228.812 195.574 228.812 194.511V193.57C227.894 194.029 226.929 194.391 226.036 194.705C225.867 194.439 225.432 193.884 225.167 193.643C227.098 193.087 229.15 192.267 230.598 191.229H225.529V190.022H229.27V188.622H226.736V187.511H229.27V186.135H226.301V185.001H229.27V183.649H226.784V179.642H232.07V183.649H230.743V185.001H234.533V183.649H233.422V179.642H238.781V183.649H236.005V185.001H239.312V186.135H236.005V187.511H238.805V188.622H236.005V190.022H239.819V191.229H234.074C234.46 192.001 234.943 192.725 235.474 193.353C236.512 192.846 237.695 192.122 238.443 191.615ZM250.633 183.746H262.557C261.133 183.191 259.274 182.587 257.271 181.959C255.074 182.684 252.709 183.263 250.633 183.746ZM261.471 179.087H251.067C253.023 179.57 255.219 180.149 257.368 180.801C258.961 180.246 260.385 179.666 261.471 179.087ZM266.492 185.097H248.436V188.984C248.436 191.663 248.05 195.26 245.878 197.698C245.66 197.384 245.033 196.853 244.671 196.66C246.65 194.439 246.891 191.349 246.891 188.96V183.746H249.885C249.667 183.456 249.305 183.094 249.064 182.901C251.019 182.515 253.24 182.008 255.364 181.404C253.481 180.825 251.55 180.342 249.812 179.932L250.826 179.087H247.012V177.735H256.016C255.605 177.108 255.099 176.432 254.64 175.877L255.799 175.273C256.45 175.973 257.199 176.987 257.657 177.735H265.719V179.087H262.05L262.944 179.642C261.857 180.222 260.53 180.801 259.13 181.308C260.964 181.887 262.63 182.418 263.909 182.901L263.04 183.746H266.492V185.097ZM258.502 195.284H266.878V196.66H248.919V195.284H256.933V192.653H251.212V191.325H256.933V189.008H251.719C251.043 190.142 250.247 191.156 249.45 191.977C249.281 191.687 248.847 190.963 248.557 190.698C249.909 189.394 251.092 187.511 251.792 185.556L253.192 185.942C252.974 186.546 252.709 187.101 252.443 187.68H256.933V185.532H258.502V187.68H265.116V189.008H258.502V191.325H264.609V192.653H258.502V195.284ZM287.854 182.853V178.049H278.054V182.853H287.854ZM289.472 176.504V184.397H276.485V176.504H289.472ZM279.792 188.573H274.482V194.608H279.792V188.573ZM272.961 197.481V187.029H281.385V197.239H279.792V196.153H274.482V197.481H272.961ZM285.658 194.608H291.451V188.573H285.658V194.608ZM284.113 187.029H293.044V197.312H291.451V196.153H285.658V197.481H284.113V187.029ZM301.058 188.477H304.293V186.594H301.058V188.477ZM301.058 183.625V185.46H304.293V183.625H301.058ZM309.12 183.625H305.765V185.46H309.12V183.625ZM309.12 188.477V186.594H305.765V188.477H309.12ZM320.393 181.115V181.959C320.103 192.122 319.886 195.453 319.065 196.467C318.679 197.07 318.196 197.239 317.496 197.312C316.821 197.384 315.686 197.384 314.576 197.312C314.527 196.877 314.358 196.201 314.093 195.791C315.3 195.887 316.41 195.912 316.869 195.912C317.279 195.912 317.496 195.839 317.714 195.549C318.293 194.825 318.607 191.591 318.848 182.611H315.179C314.89 189.032 313.803 194.391 309.482 197.577C309.241 197.215 308.686 196.684 308.276 196.443C308.734 196.105 309.169 195.767 309.555 195.38C305.813 195.839 301.975 196.274 299.224 196.587L299.006 195.163C300.455 195.018 302.289 194.849 304.293 194.632V192.436H299.658V191.18H304.293V189.611H299.731V182.466H304.293V180.849H298.982V179.594H304.293V177.856C302.724 178.001 301.131 178.097 299.682 178.146C299.61 177.784 299.441 177.252 299.272 176.939C302.844 176.746 307.238 176.311 309.7 175.756L310.52 176.987C309.217 177.277 307.551 177.518 305.765 177.711V179.594H310.979V180.849H305.765V182.466H310.52V189.611H305.765V191.18H310.545V192.436H305.765V194.487C307.358 194.318 309.024 194.149 310.665 193.956V194.101C312.814 191.18 313.465 187.198 313.683 182.611H310.762V181.115H313.731C313.779 179.401 313.779 177.59 313.779 175.756H315.3C315.3 177.59 315.276 179.401 315.227 181.115H320.393ZM336.131 175.563H337.893C337.869 176.408 337.845 177.615 337.725 179.039C338.087 181.839 339.559 192.122 348.08 195.936C347.645 196.298 347.163 196.829 346.921 197.287C340.718 194.367 338.183 188.139 337.024 183.601C335.962 188.525 333.428 194.198 327.345 197.36C327.079 196.949 326.548 196.467 326.09 196.129C336.131 191.108 336.059 179.184 336.131 175.563Z" fill="black"/>
<path d="M89.6674 270.313L89.6651 270.314L78.9163 277.478L67.3613 271.704L67.3588 271.703L55.7802 265.976L55.0032 253.082L55.0031 253.079L54.1732 240.189L64.9513 233.069L64.9536 233.067L75.7024 225.903L87.2574 231.677L87.2599 231.679L98.8385 237.405L99.6154 250.299L99.6156 250.302L100.446 263.193L89.6674 270.313Z" stroke="black" stroke-width="1.35804"/>
<path d="M26.557 550.672C27.9693 550.672 29.1141 549.528 29.1141 548.115C29.1141 546.703 27.9693 545.558 26.557 545.558C25.1447 545.558 23.9999 546.703 23.9999 548.115C23.9999 549.528 25.1447 550.672 26.557 550.672Z" fill="black"/>
<path d="M64.182 548.115C65.5943 548.115 66.7391 546.971 66.7391 545.558C66.7391 544.146 65.5943 543.001 64.182 543.001C62.7697 543.001 61.6249 544.146 61.6249 545.558C61.6249 546.971 62.7697 548.115 64.182 548.115Z" fill="black"/>
<path d="M101.443 548.115C102.855 548.115 104 546.97 104 545.557C104 544.145 102.855 543 101.443 543C100.031 543 98.8857 544.145 98.8857 545.557C98.8857 546.97 100.031 548.115 101.443 548.115Z" fill="black"/>
<path d="M26.557 584.979C27.9693 584.979 29.1141 583.835 29.1141 582.422C29.1141 581.01 27.9693 579.865 26.557 579.865C25.1447 579.865 23.9999 581.01 23.9999 582.422C23.9999 583.835 25.1447 584.979 26.557 584.979Z" fill="black"/>
<path d="M64.182 585.192C65.5943 585.192 66.7391 584.048 66.7391 582.635C66.7391 581.223 65.5943 580.078 64.182 580.078C62.7697 580.078 61.6249 581.223 61.6249 582.635C61.6249 584.048 62.7697 585.192 64.182 585.192Z" fill="black"/>
<path d="M101.443 585.192C102.855 585.192 104 584.048 104 582.635C104 581.223 102.855 580.078 101.443 580.078C100.031 580.078 98.8857 581.223 98.8857 582.635C98.8857 584.048 100.031 585.192 101.443 585.192Z" fill="black"/>
<path d="M26.9232 618.954C28.3355 618.954 29.4803 617.809 29.4803 616.396C29.4803 614.984 28.3355 613.839 26.9232 613.839C25.511 613.839 24.3661 614.984 24.3661 616.396C24.3661 617.809 25.511 618.954 26.9232 618.954Z" fill="black"/>
<path d="M64.182 618.954C65.5943 618.954 66.7391 617.809 66.7391 616.396C66.7391 614.984 65.5943 613.839 64.182 613.839C62.7697 613.839 61.6249 614.984 61.6249 616.396C61.6249 617.809 62.7697 618.954 64.182 618.954Z" fill="black"/>
<path d="M101.443 618.954C102.855 618.954 104 617.809 104 616.396C104 614.984 102.855 613.839 101.443 613.839C100.031 613.839 98.8857 614.984 98.8857 616.396C98.8857 617.809 100.031 618.954 101.443 618.954Z" fill="black"/>
</g>
</g>
<path d="M209.066 386.519C207.176 399.507 203.605 426.989 204.437 433.019C205.027 437.302 210.382 448.808 215.24 458.492C222.099 449.727 234.95 434.503 237.137 432.658C239.871 430.352 242.086 430.525 243.344 430.881C244.602 431.236 246.689 432.822 247.618 435.62C248.362 437.858 247.017 441.487 246.252 443.021L237.971 455.119L214.455 486.647L162.424 543.566C162.309 543.654 161.625 543.956 159.816 544.46C157.555 545.089 154.966 543.995 153.483 543.484C151.997 542.974 149.226 540.923 147.751 539.42C146.273 537.916 143.623 533.762 142.079 528.401C140.313 522.265 140.683 516.899 141.068 513.718C145.6 508.359 155.608 496.549 159.379 492.18C164.089 486.721 163.56 486.029 164.31 479.539C165.057 473.05 163.915 447.284 164.344 442.244C164.772 437.204 166.832 425.109 167.469 422.211C168.109 419.312 170.459 412.914 171.516 410.135C172.572 407.355 176.191 396.153 177.941 392.845C179.342 390.198 180.153 389.184 180.382 389.008C181.421 384.05 183.634 373.791 184.164 372.42C184.832 370.706 185.369 370.405 186.097 370.068C186.827 369.731 187.629 369.777 189.151 370.479C190.369 371.04 191.092 372.687 191.302 373.44C191.074 371.897 190.569 368.344 190.372 366.477C190.126 364.144 190.864 362.813 191.712 362.057C192.559 361.3 193.516 361.118 194.701 361.091C195.886 361.063 197.745 362.494 198.502 363.342C199.107 364.02 199.404 364.955 199.477 365.338C200.188 365.599 202.406 366.763 205.593 369.33C208.779 371.896 209.236 381.858 209.066 386.519Z" stroke="black" stroke-width="1.2096" stroke-linejoin="round"/>
<path d="M204.036 462.678C202.207 463.765 198.176 466.895 196.707 470.721C194.869 475.503 194.439 480.893 194.897 484.886C195.261 488.08 195.431 489.07 195.687 490.025" stroke="black" stroke-width="1.2096" stroke-linejoin="round"/>
<path d="M182.797 449.299C183.77 451.885 185.909 458.141 186.701 462.485C187.636 467.628 187.356 469.61 186.948 474.148C186.559 478.45 184.238 483.076 183.241 484.849" stroke="black" stroke-width="1.2096" stroke-linejoin="round"/>
<path d="M191.265 373.249C191.754 374.081 192.734 377.214 192.742 383.083C192.751 390.42 192.487 394.239 191.922 397.52C191.47 400.145 189.357 410.438 188.358 415.256C187.739 417.556 186.94 422.88 186.546 425.519C185.935 429.602 185.963 434.952 186.554 437.021" stroke="black" stroke-width="1.2096" stroke-linejoin="round"/>
<path d="M180.382 389.008C180.793 388.731 182.243 388.574 182.946 388.916C183.819 389.345 185.104 390.885 185.359 392.225C185.614 393.565 186.107 394.066 185.097 400.208C184.286 405.123 181.501 415.703 180.211 420.378C179.866 422.031 179.118 426.101 178.909 429.156C178.644 432.974 178.379 440.959 178.682 441.496" stroke="black" stroke-width="1.2096" stroke-linejoin="round"/>
<path d="M199.477 365.338C200.227 368.236 201.71 375.187 201.637 379.802C201.546 385.571 201.446 392.334 200.608 396.262C199.769 400.191 198.922 405.112 197.865 407.892C196.807 410.672 195.231 415.931 194.912 417.38C194.594 418.829 193.416 426.194 194.072 429.639C194.597 432.395 194.801 433.467 194.838 433.658" stroke="black" stroke-width="1.2096" stroke-linejoin="round"/>
<path d="M216.227 471.959C218.727 467.639 226.359 453.108 229.867 446.382L276.759 460.023L279.033 518.567C276.094 526.714 268.574 542.951 261.982 542.723C253.741 542.439 249.475 535.618 247.487 531.072C245.894 527.434 246.253 523.683 246.632 522.261C245.685 522.356 242.145 522.83 235.548 523.966C227.307 525.388 217.239 519.622 213.384 510.61C208.171 498.43 213.098 477.359 216.227 471.959Z" fill="black" stroke="black" stroke-width="1.2096" stroke-linejoin="round"/>
<path d="M272.013 496.41C271.106 491.408 268.227 481.632 266.901 477.369L307.826 453.497L357.843 476.233C329.232 503.136 273.324 557.057 270.594 558.649C267.183 560.638 262.071 561.207 260.647 558.365C259.522 556.112 260.72 552.279 261.204 550.734L261.216 550.691C263.49 543.018 268.55 525.398 270.594 516.304C273.15 504.936 273.151 502.662 272.013 496.41Z" fill="white" stroke="black" stroke-width="1.2096" stroke-linejoin="round"/>
<path d="M244.447 479.916C237.056 475.37 232.794 470.254 229.383 462.297L221.992 440.414L216.594 421.088L211.763 365.102L257.236 358.281L313.221 385.848L324.873 396.079L330.84 407.732L340.787 449.224C326.01 457.086 288.266 476.279 278.263 479.916C265.76 484.464 250.2 483.457 244.447 479.916Z" fill="white" stroke="black" stroke-width="1.2096" stroke-linejoin="round"/>
<path d="M216.831 343.499C212.965 348.273 209.376 355.923 207.562 362.777C205.748 369.631 207.159 385.155 213.61 389.59C213.61 380.115 213.61 365.398 226.512 369.43C243.447 354.31 253.124 386.48 283.162 396.359C313.2 406.237 318.442 382.735 318.442 382.735L329.655 425.915L327.381 429.325C323.877 433.114 316.47 441.375 314.878 444.103C312.89 447.514 311.983 454.859 313.402 461.964C314.821 469.069 323.28 478.294 332.755 481.901C341.215 485.122 352.968 484.162 356.947 482.931C356.855 483.594 357.246 483.372 358.157 488.374C359.294 494.626 364.193 504.059 372.067 509.542C382.752 516.983 398.747 516.02 406.743 513.574C423.879 508.332 429.725 496.236 430.733 493.615C433.035 487.624 433.672 483.3 433.672 476.479C433.672 470.23 431.967 467.218 431.967 465.702C431.967 465.986 432.306 465.929 433.672 463.429C435.378 460.302 442.023 449.868 437.934 436.43C436.084 430.351 428.919 419.83 420.883 412.558C414.77 407.028 401.84 399.2 394.167 396.359C386.494 393.517 377.97 391.243 374.273 387.549C370.58 383.854 366.886 380.728 360.064 360.55C353.246 340.372 342.731 333.268 335.622 326.447C328.518 319.627 321.131 315.932 309.479 312.238C297.826 308.543 282.194 309.964 271.397 312.238C260.599 314.511 252.071 317.069 241.842 322.753C231.609 328.436 221.662 337.531 216.831 343.499Z" fill="black" stroke="black" stroke-width="1.2096" stroke-linejoin="round"/>
<path d="M226.662 422.655L233.766 426.633" stroke="black" stroke-width="1.2096" stroke-linejoin="round"/>
<path d="M238.882 420.95L245.987 424.929" stroke="black" stroke-width="1.2096" stroke-linejoin="round"/>
<path d="M230.234 446.098C230.803 445.434 232.339 444.165 233.931 444.392C235.919 444.676 238.193 445.813 239.899 445.529C241.604 445.245 243.024 443.256 244.447 442.403C245.866 441.55 247.866 441.285 252.402 440.982C265.192 440.13 272.296 437.856 273.719 437.287" stroke="black" stroke-width="1.2096" stroke-linejoin="round"/>
<path d="M230.234 442.119C230.899 440.414 232.964 436.719 235.919 435.582C239.613 434.161 242.173 433.025 247.854 433.025C252.402 433.025 263.962 434.73 269.171 435.582" stroke="black" stroke-width="1.2096" stroke-linejoin="round"/>
<path d="M236.205 449.224C241.536 448.483 249.168 447.003 257.168 445.06C265.566 443.02 272.062 438.398 273.719 437.287" stroke="black" stroke-width="1.2096" stroke-linejoin="round"/>
<path d="M272.014 446.666C270.211 448.75 266.103 453.316 264.054 454.908C261.498 456.897 257.519 458.886 253.539 459.454C249.559 460.023 246.721 460.023 242.455 458.602C239.044 457.465 236.677 456.044 235.919 455.476" stroke="black" stroke-width="1.2096" stroke-linejoin="round"/>
<path d="M71.8946 388.991C77.2527 404.498 88.0661 437.409 88.4556 445.007C88.7326 450.405 84.8486 465.786 81.1492 478.813C70.6769 469.655 51.3354 453.967 48.2183 452.213C44.3213 450.021 41.6425 450.752 40.1809 451.482C38.7197 452.213 36.5279 454.649 36.0408 458.302C35.6509 461.225 38.1516 465.365 39.4503 467.07L52.4478 479.989L88.6991 513.201L165.903 570.922C166.065 571.003 166.976 571.214 169.315 571.409C172.238 571.653 175.161 569.704 176.862 568.73C178.568 567.756 181.491 564.59 182.951 562.398C184.414 560.206 186.696 554.486 187.338 547.542C188.071 539.594 186.362 533.091 185.144 529.275C178.326 523.755 163.275 511.594 157.622 507.112C150.562 501.511 151.05 500.537 148.61 492.743C146.175 484.95 141.55 453.045 139.845 446.956C138.139 440.867 132.781 426.498 131.321 423.088C129.857 419.678 125.475 412.372 123.527 409.206C121.58 406.04 114.516 393.132 111.592 389.479C109.254 386.556 108.02 385.501 107.697 385.338C105.262 379.493 100.146 367.413 99.1739 365.854C97.9522 363.906 97.2224 363.662 96.2494 363.419C95.2749 363.175 94.3008 363.419 92.5961 364.637C91.232 365.611 90.7288 367.803 90.6478 368.777C90.5663 366.829 90.3555 362.347 90.1607 360.009C89.9172 357.086 88.6991 355.625 87.4815 354.895C86.2638 354.164 85.0461 354.164 83.585 354.408C82.1234 354.651 80.1751 356.843 79.4445 358.061C78.8598 359.035 78.7139 360.253 78.7139 360.74C77.9018 361.227 75.4504 363.175 72.1381 367.072C68.8258 370.969 70.5955 383.309 71.8946 388.991Z" fill="white" stroke="black" stroke-width="1.2096" stroke-linejoin="round"/>
<path d="M81.3933 478.13L77.0093 492.256" stroke="black" stroke-width="1.2096" stroke-linejoin="round"/>
<path d="M90.6483 368.533C90.2423 369.67 89.7713 373.745 91.1353 380.954C92.8401 389.966 94.0577 394.593 95.5189 398.49C96.6882 401.607 101.69 413.752 104.045 419.435C105.343 422.114 107.569 428.464 108.669 431.612C110.375 436.483 111.593 443.059 111.351 445.738" stroke="black" stroke-width="1.2096" stroke-linejoin="round"/>
<path d="M116.463 489.333C115.733 494.61 114.955 509.499 117.681 518.072C120.41 526.645 123.201 529.519 124.257 530.98" stroke="black" stroke-width="1.2096" stroke-linejoin="round"/>
<path d="M107.698 385.338C107.129 385.095 105.311 385.241 104.529 385.825C103.557 386.556 102.339 388.748 102.339 390.453C102.339 392.158 101.851 392.888 104.529 400.195C106.674 406.04 112.568 418.38 115.246 423.819C116.056 425.767 117.927 430.589 118.899 434.292C120.116 438.919 122.31 448.661 122.064 449.391" stroke="black" stroke-width="1.2096" stroke-linejoin="round"/>
<path d="M78.7139 360.74C78.4703 364.474 78.2752 373.356 79.4445 379.006C80.9057 386.069 82.6104 394.35 84.5591 398.977C86.5073 403.605 88.6991 409.45 90.6478 412.616C92.5961 415.782 95.762 421.871 96.493 423.575C97.2224 425.28 100.392 434.048 100.392 438.432C100.392 441.939 100.392 443.303 100.392 443.546" stroke="black" stroke-width="1.2096" stroke-linejoin="round"/>
<path d="M55.333 393.96L44.1301 340.379L127.91 325.28L138.627 379.835L55.333 393.96Z" stroke="black" stroke-width="1.2096" stroke-linejoin="round"/>
<path d="M52.7565 350.121L77.842 345.981" stroke="black" stroke-width="1.2096" stroke-linejoin="round"/>
<path d="M54.3196 356.819L122.269 344.885" stroke="black" stroke-width="1.2096" stroke-linejoin="round"/>
<path d="M55.7174 363.385L123.322 351.451" stroke="black" stroke-width="1.2096" stroke-linejoin="round"/>
<path d="M57.0372 369.949L124.986 358.015" stroke="black" stroke-width="1.2096" stroke-linejoin="round"/>
<path d="M58.7036 376.515L126.652 364.581" stroke="black" stroke-width="1.2096" stroke-linejoin="round"/>
<path d="M103.416 374.947L127.946 371.146" stroke="black" stroke-width="1.2096" stroke-linejoin="round"/>
<path d="M232.157 395.638C232.023 401.888 230.746 416.04 226.714 422.652" stroke="black" stroke-width="1.2096"/>
<path d="M246.795 379.989C252.455 376.116 266.555 374.348 274.386 375.086" stroke="black" stroke-width="1.2096"/>
<path d="M282.904 394.961C269.811 389.069 256.064 388.414 247.881 392.015" stroke="black" stroke-width="1.2096"/>
<path d="M252.559 390.457C251.229 390.457 248.567 388.905 247.68 387.131" stroke="black" stroke-width="1.2096"/>
<path d="M258.028 390.051C255.082 389.723 253.445 387.105 252.791 385.795" stroke="black" stroke-width="1.2096"/>
<path d="M282.037 393.769C274.07 399.106 261.653 403.541 253.89 403.541" stroke="black" stroke-width="1.2096"/>
<ellipse cx="257.438" cy="396.445" rx="5.544" ry="6.6528" transform="rotate(-9.35126 257.438 396.445)" fill="black"/>
<mask id="path-64-outside-1_230_2043" maskUnits="userSpaceOnUse" x="192.996" y="375.97" width="100.12" height="54.0922" fill="black">
<rect fill="white" x="192.996" y="375.97" width="100.12" height="54.0922"/>
<path fill-rule="evenodd" clip-rule="evenodd" d="M259.325 382.603C260.327 382.4 261.361 382.215 262.421 382.052C269.186 381.01 274.896 381.817 279.491 382.466C281.931 382.811 284.056 383.111 285.858 383.066L286.509 388.297C285.724 388.237 284.164 388.806 284.209 391.561C284.266 395.005 283.6 408.655 280.377 412.274C276.548 416.575 260.827 418.111 255.083 416.935C249.813 415.856 245.677 404.262 242.817 396.076C242.783 395.98 242.75 395.885 242.718 395.792C242.604 395.466 242.498 395.162 242.397 394.88C241.517 393.001 240.675 392.901 238.965 393.115C236.9 393.373 235.933 393.795 235.82 396.42C235.745 398.158 235.749 399.884 235.752 401.577C235.763 407.27 235.773 412.601 232.82 416.862C229.976 420.966 212.2 423.243 207.781 420.508C203.363 417.773 199.926 406.374 199.088 403.381C198.419 400.985 197.202 400.776 196.538 401.03L195.755 396.337C197.66 396.019 199.65 395.213 202.035 394.246C205.412 392.878 209.583 391.188 215.43 390.108C221.073 389.066 224.534 388.529 228.691 387.884C230.016 387.678 231.411 387.461 232.97 387.214C235.251 386.852 238.834 386.198 242.817 385.47C248.353 384.459 254.662 383.307 259.325 382.603Z"/>
</mask>
<path fill-rule="evenodd" clip-rule="evenodd" d="M259.325 382.603C260.327 382.4 261.361 382.215 262.421 382.052C269.186 381.01 274.896 381.817 279.491 382.466C281.931 382.811 284.056 383.111 285.858 383.066L286.509 388.297C285.724 388.237 284.164 388.806 284.209 391.561C284.266 395.005 283.6 408.655 280.377 412.274C276.548 416.575 260.827 418.111 255.083 416.935C249.813 415.856 245.677 404.262 242.817 396.076C242.783 395.98 242.75 395.885 242.718 395.792C242.604 395.466 242.498 395.162 242.397 394.88C241.517 393.001 240.675 392.901 238.965 393.115C236.9 393.373 235.933 393.795 235.82 396.42C235.745 398.158 235.749 399.884 235.752 401.577C235.763 407.27 235.773 412.601 232.82 416.862C229.976 420.966 212.2 423.243 207.781 420.508C203.363 417.773 199.926 406.374 199.088 403.381C198.419 400.985 197.202 400.776 196.538 401.03L195.755 396.337C197.66 396.019 199.65 395.213 202.035 394.246C205.412 392.878 209.583 391.188 215.43 390.108C221.073 389.066 224.534 388.529 228.691 387.884C230.016 387.678 231.411 387.461 232.97 387.214C235.251 386.852 238.834 386.198 242.817 385.47C248.353 384.459 254.662 383.307 259.325 382.603Z" fill="black"/>
<path d="M262.421 382.052L262.594 383.175L262.594 383.175L262.421 382.052ZM259.325 382.603L259.55 383.717C259.532 383.721 259.513 383.724 259.494 383.727L259.325 382.603ZM279.491 382.466L279.332 383.592L279.491 382.466ZM285.858 383.066L285.83 381.93C286.414 381.915 286.914 382.346 286.986 382.926L285.858 383.066ZM286.509 388.297L287.638 388.157C287.68 388.495 287.568 388.835 287.332 389.082C287.097 389.329 286.763 389.457 286.423 389.431L286.509 388.297ZM284.209 391.561L283.073 391.58L283.073 391.58L284.209 391.561ZM280.377 412.274L281.226 413.03L281.226 413.03L280.377 412.274ZM255.083 416.935L255.312 415.821L255.312 415.821L255.083 416.935ZM242.817 396.076L243.89 395.701L243.89 395.701L242.817 396.076ZM242.718 395.792L241.644 396.167L241.644 396.167L242.718 395.792ZM242.397 394.88L243.427 394.398C243.442 394.43 243.455 394.463 243.467 394.496L242.397 394.88ZM238.965 393.115L238.823 391.987L238.823 391.987L238.965 393.115ZM235.82 396.42L236.956 396.468L236.956 396.468L235.82 396.42ZM235.752 401.577L234.615 401.579L234.615 401.579L235.752 401.577ZM232.82 416.862L231.885 416.214L231.885 416.214L232.82 416.862ZM207.781 420.508L208.38 419.541L208.38 419.541L207.781 420.508ZM199.088 403.381L197.993 403.687L197.993 403.687L199.088 403.381ZM196.538 401.03L196.944 402.092C196.625 402.214 196.269 402.186 195.973 402.016C195.676 401.847 195.472 401.553 195.416 401.217L196.538 401.03ZM195.755 396.337L194.634 396.524C194.53 395.905 194.949 395.319 195.568 395.216L195.755 396.337ZM202.035 394.246L202.462 395.3L202.462 395.3L202.035 394.246ZM215.43 390.108L215.637 391.226L215.43 390.108ZM228.691 387.884L228.866 389.007L228.691 387.884ZM232.97 387.214L232.792 386.091L232.97 387.214ZM242.817 385.47L242.613 384.352L242.817 385.47ZM262.594 383.175C261.552 383.336 260.535 383.518 259.55 383.717L259.099 381.488C260.118 381.282 261.17 381.094 262.248 380.928L262.594 383.175ZM279.332 383.592C274.738 382.943 269.177 382.162 262.594 383.175L262.248 380.928C269.195 379.858 275.054 380.691 279.65 381.34L279.332 383.592ZM285.886 384.203C283.97 384.251 281.741 383.932 279.332 383.592L279.65 381.34C282.121 381.689 284.142 381.972 285.83 381.93L285.886 384.203ZM285.381 388.438L284.729 383.207L286.986 382.926L287.638 388.157L285.381 388.438ZM283.073 391.58C283.046 389.986 283.486 388.822 284.247 388.067C284.989 387.33 285.911 387.111 286.596 387.163L286.423 389.431C286.322 389.423 286.072 389.459 285.849 389.68C285.644 389.883 285.327 390.381 285.346 391.542L283.073 391.58ZM279.528 411.518C280.152 410.818 280.742 409.5 281.248 407.689C281.743 405.919 282.118 403.824 282.396 401.704C282.951 397.463 283.1 393.245 283.073 391.58L285.346 391.542C285.376 393.321 285.22 397.65 284.65 402C284.366 404.176 283.973 406.387 283.439 408.301C282.915 410.175 282.214 411.921 281.226 413.03L279.528 411.518ZM255.312 415.821C257.993 416.37 263.206 416.301 268.279 415.534C270.798 415.153 273.228 414.609 275.244 413.908C277.298 413.194 278.77 412.37 279.528 411.518L281.226 413.03C280.07 414.329 278.141 415.309 275.991 416.056C273.803 416.816 271.226 417.389 268.618 417.783C263.438 418.565 257.918 418.676 254.855 418.049L255.312 415.821ZM243.89 395.701C245.325 399.806 247.05 404.679 249.061 408.658C250.067 410.647 251.119 412.363 252.208 413.631C253.31 414.914 254.351 415.624 255.312 415.821L254.855 418.049C253.181 417.706 251.729 416.563 250.483 415.112C249.225 413.647 248.077 411.751 247.032 409.683C244.942 405.549 243.17 400.532 241.743 396.451L243.89 395.701ZM243.791 395.418C243.824 395.511 243.857 395.605 243.89 395.701L241.743 396.451C241.71 396.354 241.677 396.259 241.644 396.167L243.791 395.418ZM243.467 394.496C243.57 394.784 243.678 395.092 243.791 395.418L241.644 396.167C241.53 395.839 241.426 395.54 241.327 395.264L243.467 394.496ZM241.367 395.362C240.971 394.516 240.695 394.324 240.537 394.255C240.323 394.161 239.98 394.134 239.106 394.243L238.823 391.987C239.659 391.882 240.592 391.798 241.447 392.17C242.357 392.568 242.943 393.364 243.427 394.398L241.367 395.362ZM239.106 394.243C238.05 394.375 237.64 394.526 237.424 394.723C237.255 394.876 237.008 395.247 236.956 396.468L234.684 396.371C234.744 394.968 235.037 393.816 235.897 393.038C236.708 392.303 237.815 392.113 238.823 391.987L239.106 394.243ZM236.956 396.468C236.883 398.178 236.886 399.878 236.889 401.575L234.615 401.579C234.612 399.89 234.608 398.139 234.684 396.371L236.956 396.468ZM236.889 401.575C236.9 407.18 236.947 412.902 233.754 417.51L231.885 416.214C234.598 412.3 234.626 407.361 234.615 401.579L236.889 401.575ZM233.754 417.51C233.266 418.214 232.52 418.799 231.684 419.29C230.834 419.788 229.817 420.231 228.705 420.621C226.48 421.4 223.775 421.998 221.047 422.376C218.317 422.753 215.521 422.916 213.106 422.805C210.753 422.697 208.555 422.324 207.183 421.475L208.38 419.541C209.218 420.06 210.899 420.427 213.21 420.533C215.46 420.636 218.114 420.486 220.735 420.123C223.359 419.76 225.908 419.191 227.953 418.474C228.976 418.116 229.849 417.729 230.533 417.328C231.231 416.919 231.662 416.536 231.885 416.214L233.754 417.51ZM207.183 421.475C205.862 420.657 204.708 419.262 203.718 417.711C202.715 416.138 201.817 414.301 201.045 412.486C199.501 408.855 198.417 405.203 197.993 403.687L200.183 403.074C200.597 404.552 201.65 408.096 203.138 411.597C203.883 413.347 204.725 415.06 205.635 416.488C206.559 417.936 207.491 418.991 208.38 419.541L207.183 421.475ZM197.993 403.687C197.699 402.632 197.338 402.265 197.172 402.152C197.034 402.058 196.958 402.086 196.944 402.092L196.131 399.968C196.781 399.719 197.646 399.725 198.45 400.271C199.226 400.798 199.809 401.734 200.183 403.074L197.993 403.687ZM195.416 401.217L194.634 396.524L196.877 396.15L197.659 400.843L195.416 401.217ZM195.568 395.216C197.324 394.923 199.188 394.173 201.608 393.193L202.462 395.3C200.112 396.253 197.997 397.116 195.942 397.459L195.568 395.216ZM201.608 393.193C204.996 391.82 209.256 390.092 215.224 388.99L215.637 391.226C209.91 392.283 205.829 393.936 202.462 395.3L201.608 393.193ZM215.224 388.99C220.883 387.945 224.356 387.406 228.517 386.76L228.866 389.007C224.711 389.652 221.263 390.187 215.637 391.226L215.224 388.99ZM228.517 386.76C229.841 386.554 231.235 386.338 232.792 386.091L233.148 388.337C231.587 388.585 230.19 388.801 228.866 389.007L228.517 386.76ZM232.792 386.091C235.056 385.732 238.623 385.08 242.613 384.352L243.021 386.589C239.045 387.315 235.446 387.972 233.148 388.337L232.792 386.091ZM242.613 384.352C248.142 383.342 254.471 382.186 259.155 381.478L259.494 383.727C254.853 384.428 248.563 385.577 243.021 386.589L242.613 384.352Z" fill="white" mask="url(#path-64-outside-1_230_2043)"/>
<path d="M264.212 384.953C254.515 386.051 248.898 387.536 247.277 391.606C245.657 395.676 249.977 409.844 254.999 413.504C258.379 415.968 275.84 413.21 278.307 410.104C280.775 406.997 282.53 392.298 280.743 388.582C278.847 384.641 271.751 384.099 264.212 384.953Z" fill="black" stroke="#FFFCFC" stroke-width="0.4032"/>
<path d="M215.223 393.017C223.446 391.15 228.932 390.721 231.552 394.227C234.173 397.732 233.192 412.415 230.435 415.106C226.303 419.141 211.753 419.056 209.943 418.236C206.272 416.573 201.453 403.528 201.917 400.073C202.381 396.618 206.299 395.043 215.223 393.017Z" fill="black" stroke="#FFFCFC" stroke-width="0.4032"/>
<path d="M343.061 398.637L312.37 372.491V373.06L310.664 396.079L326.861 408.3L343.061 398.637Z" fill="black" stroke="black" stroke-width="1.2096" stroke-linejoin="round"/>
<path d="M310.664 364.818L303.556 362.544C300.241 376.849 293.895 405.628 295.032 406.31C296.451 407.163 301.854 406.879 302.991 406.31C304.124 405.742 308.104 403.184 310.664 401.195C312.708 399.603 313.789 395.985 314.071 394.374C314.168 386.89 314.301 371.525 314.071 369.933C313.845 368.342 311.704 365.86 310.664 364.818Z" fill="black" stroke="black" stroke-width="1.2096" stroke-linejoin="round"/>
<path d="M324.873 410.573C324.192 412.165 320.99 420.709 319.474 424.783C318.837 426.488 318.906 429.614 320.611 432.172C322.313 434.73 326.861 434.161 331.691 432.172C336.525 430.182 341.924 423.362 344.767 419.383C347.609 415.404 349.879 406.594 349.311 404.321C348.746 402.047 347.892 398.353 342.775 396.647C337.662 394.942 333.965 398.637 332.26 399.774C330.554 400.911 325.724 408.584 324.873 410.573Z" fill="white" stroke="black" stroke-width="1.2096" stroke-linejoin="round"/>
<path d="M332.828 414.268C333.965 414.647 336.469 415.802 337.376 417.394C338.287 418.985 338.513 419.573 338.513 419.667" stroke="black" stroke-width="1.2096" stroke-linejoin="round"/>
<path d="M339.65 417.394C339.461 417.868 338.8 419.213 337.663 420.804C336.239 422.793 333.114 425.067 331.691 425.351C330.272 425.636 328.853 424.499 326.861 424.499C324.873 424.499 322.599 424.783 321.744 426.204" stroke="black" stroke-width="1.2096" stroke-linejoin="round"/>
<path d="M322.454 439.094L323.397 444.274L320.522 442.213L318.857 437.535C319.764 437.961 321.502 438.75 322.454 439.094Z" fill="white" stroke="black" stroke-width="1.13702" stroke-linejoin="round"/>
<path d="M322.942 360.129L330.199 358.942L331.223 350.708L323.865 352.719L322.942 360.129Z" fill="white" stroke="black" stroke-width="1.13702" stroke-linejoin="round"/>
<path d="M351.504 365.774L350.533 373.596C350.412 374.556 350.387 376.755 351.254 377.866C352.117 378.977 355.286 382.409 356.762 383.986C357.907 385.456 360.028 388.323 360.524 389.493C365.016 395.908 367.241 403.948 366.197 412.333C364.225 428.185 351.238 439.977 335.868 440.992L333.381 445.51L323.341 444.261L322.397 439.074L319.148 437.675C306.995 431.669 299.383 418.452 301.153 404.24C302.632 392.328 310.334 382.708 320.591 378.232C321.361 378 323.051 377.444 323.651 377.076C324.804 376.376 325.877 375.691 326.502 375.204C327.429 374.483 327.941 373.711 328.3 370.83L329.272 363.008L351.504 365.774Z" fill="white" stroke="black" stroke-width="1.13702" stroke-linejoin="round"/>
<path fill-rule="evenodd" clip-rule="evenodd" d="M330.437 435.983C315.067 434.071 304.161 420.063 306.072 404.695C307.983 389.327 321.994 378.419 337.36 380.331C352.726 382.243 363.637 396.252 361.726 411.62C359.81 426.987 345.803 437.895 330.437 435.983ZM331.296 429.079C319.74 427.642 311.539 417.109 312.975 405.554C314.414 393.999 324.946 385.798 336.501 387.235C348.057 388.673 356.258 399.205 354.819 410.76C353.383 422.315 342.852 430.517 331.296 429.079Z" fill="#FFF500"/>
<path d="M306.636 404.765C304.761 419.821 315.45 433.546 330.506 435.419L330.364 436.547C314.684 434.597 303.556 420.304 305.507 404.625L306.636 404.765ZM337.291 380.895C322.232 379.022 308.511 389.709 306.636 404.765L305.507 404.625C307.459 388.946 321.752 377.816 337.429 379.767L337.291 380.895ZM361.161 411.549C363.032 396.493 352.347 382.769 337.291 380.895L337.429 379.767C353.109 381.718 364.237 396.01 362.29 411.69L361.161 411.549ZM330.506 435.419C345.561 437.292 359.286 426.606 361.161 411.549L362.29 411.69C360.338 427.369 346.045 438.498 330.364 436.547L330.506 435.419ZM313.539 405.624C312.14 416.868 320.123 427.116 331.364 428.515L331.223 429.643C319.357 428.167 310.934 417.35 312.414 405.484L313.539 405.624ZM336.433 387.8C325.187 386.401 314.938 394.381 313.539 405.624L312.414 405.484C313.89 393.617 324.704 385.195 336.57 386.671L336.433 387.8ZM354.254 410.69C355.653 399.447 347.674 389.198 336.433 387.8L336.57 386.671C348.436 388.148 356.859 398.964 355.383 410.83L354.254 410.69ZM331.364 428.515C342.61 429.914 352.855 421.933 354.254 410.69L355.383 410.83C353.907 422.697 343.089 431.12 331.223 429.643L331.364 428.515Z" fill="black"/>
<path d="M331.25 429.448C319.492 427.985 311.145 417.267 312.608 405.509C314.071 393.75 324.79 385.404 336.548 386.867C348.307 388.33 356.653 399.048 355.19 410.806C353.727 422.565 343.008 430.911 331.25 429.448Z" fill="#FFF500" stroke="black" stroke-width="1.13702" stroke-linejoin="round"/>
<path d="M331.22 350.708L354.274 353.577L353.25 361.81L330.196 358.942L331.22 350.708Z" fill="white" stroke="black" stroke-width="1.13702" stroke-linejoin="round"/>
<path d="M303.705 306.47C304.624 306.605 305.528 306.86 306.395 307.221C309.374 308.462 311.463 309.332 315.358 312.5C320.918 317.018 325.559 324.904 327.647 331.343C329.022 335.587 330.651 344.438 331.494 350.71L324.333 352.669C324.196 349.896 323.833 345.792 322.313 339.646C319.357 327.682 313.249 317.78 308.818 314.076C302.544 308.833 297.008 308.85 293.746 308.861C293.653 308.861 293.565 308.861 293.48 308.861C288.323 308.871 283.892 309.914 283.892 309.914C283.892 309.914 285.323 308.962 287.46 307.997C292.416 306.371 294.746 305.964 299.476 306.002C300.488 306.011 302.044 306.226 303.705 306.47Z" fill="white" stroke="black" stroke-width="1.13702" stroke-linejoin="round"/>
<path d="M352.008 353.211C349.863 342.204 345.065 326.794 334.453 317.166C332.844 315.709 331.227 314.393 329.724 313.248C325.067 309.708 319.422 308.015 313.7 307.469L304.899 306.629C305.733 306.991 306.499 307.288 307.229 307.573C309.741 308.551 311.886 309.385 315.289 312.216C320.797 316.794 325.389 324.798 327.445 331.338C328.784 335.599 330.365 344.432 331.195 350.792L331.623 350.675L352.008 353.211Z" fill="white" stroke="black" stroke-width="1.13702" stroke-linejoin="round"/>
<path d="M301.149 404.24C299.843 414.747 303.665 424.711 310.656 431.619C306.745 428.118 303.129 423.969 301.467 421.838C298.585 418.135 296.73 412.887 296.315 406.147C295.899 399.406 298.415 392.613 300.524 389.112C302.29 386.181 307.467 380.361 312.866 377.27C314.1 376.565 315.1 376.006 315.983 375.512C317.479 374.677 318.648 374.024 320.067 373.15C321.877 372.037 322.329 369.529 322.228 369.238L322.894 363.886L329.272 363.008L328.3 370.83C327.942 373.711 327.425 374.483 326.502 375.204C325.877 375.691 325.24 376.166 323.777 376.955L320.688 378.244C310.556 382.417 302.681 391.949 301.149 404.24Z" fill="white" stroke="black" stroke-width="1.13702" stroke-linejoin="round"/>
<mask id="mask3_230_2043" style="mask-type:luminance" maskUnits="userSpaceOnUse" x="330" y="358" width="21" height="8">
<path d="M331.385 363.586L349.406 365.828C349.848 365.883 350.251 365.569 350.305 365.128L350.717 361.819C350.772 361.377 350.458 360.974 350.016 360.919L331.995 358.677C331.554 358.622 331.151 358.936 331.096 359.377L330.684 362.686C330.629 363.128 330.943 363.531 331.385 363.586Z" fill="white"/>
</mask>
<g mask="url(#mask3_230_2043)">
<path d="M331.385 363.586L349.406 365.828C349.848 365.883 350.251 365.569 350.305 365.128L350.717 361.819C350.772 361.377 350.458 360.974 350.016 360.919L331.995 358.677C331.554 358.622 331.151 358.936 331.096 359.377L330.684 362.686C330.629 363.128 330.943 363.531 331.385 363.586Z" fill="white" stroke="black" stroke-width="2.27405" stroke-linejoin="round"/>
</g>
<path d="M331.05 362.882L326.857 363.316C326.704 363.332 326.579 363.201 326.599 363.049L326.99 360.034C327.006 359.928 327.087 359.844 327.195 359.829L331.389 359.25C331.546 359.229 331.679 359.36 331.659 359.515L331.264 362.675C331.248 362.785 331.163 362.871 331.05 362.882Z" fill="white" stroke="black" stroke-width="1.13702" stroke-linejoin="round"/>
</g>
<defs>
<clipPath id="clip0_230_2043">
<rect width="390" height="643" fill="white"/>
</clipPath>
</defs>
</svg>
