<svg width="1920" height="948" viewBox="0 0 1920 948" fill="none" xmlns="http://www.w3.org/2000/svg">
<g clip-path="url(#clip0_223_689)">
<mask id="mask0_223_689" style="mask-type:luminance" maskUnits="userSpaceOnUse" x="0" y="0" width="1920" height="948">
<path d="M1920 0H0V948H1920V0Z" fill="white"/>
</mask>
<g mask="url(#mask0_223_689)">
<path d="M1920 0H0V948H1920V0Z" fill="white"/>
<path d="M1884.5 223C1772.66 223 1682 132.338 1682 20.5C1682 -91.3377 1772.66 -182 1884.5 -182C1996.34 -182 2087 -91.3377 2087 20.5C2087 132.338 1996.34 223 1884.5 223Z" fill="#FFF500"/>
<path d="M743 855C676.726 855 623 801.274 623 735C623 668.726 676.726 615 743 615C809.274 615 863 668.726 863 735C863 801.274 809.274 855 743 855Z" fill="#FFF500"/>
<path d="M49 681C457.691 681 789 349.691 789 -59.0001C789 -467.691 457.691 -799 49 -799C-359.691 -799 -691 -467.691 -691 -59.0001C-691 349.691 -359.691 681 49 681Z" fill="#FFF500"/>
<path d="M1610.56 319.938L1534.44 255.093V256.502L1530.21 313.595L1570.38 343.903L1610.56 319.938Z" fill="black" stroke="black" stroke-width="3" stroke-linejoin="round"/>
<path d="M1530.21 236.062L1512.58 230.423C1504.36 265.9 1488.62 337.277 1491.44 338.969C1494.96 341.084 1508.36 340.379 1511.18 338.969C1513.99 337.559 1523.86 331.216 1530.21 326.282C1535.28 322.335 1537.96 313.36 1538.66 309.366C1538.9 290.805 1539.23 252.696 1538.66 248.749C1538.1 244.802 1532.79 238.646 1530.21 236.062Z" fill="black" stroke="black" stroke-width="3" stroke-linejoin="round"/>
<path d="M1558.4 367.163C1561.69 370.217 1569.11 375.903 1572.5 374.211C1576.73 372.097 1584.48 362.934 1585.89 353.771C1587.3 344.608 1592.23 333.33 1597.87 331.921C1603.51 330.511 1608.44 331.216 1611.26 336.15C1614.08 341.084 1614.08 347.427 1611.26 351.656C1608.44 355.885 1602.81 359.41 1597.87 356.59C1593.92 354.335 1589.65 352.361 1588 351.656" stroke="black" stroke-width="3" stroke-linejoin="round"/>
<path d="M1565.45 349.542C1563.76 353.489 1555.82 374.681 1552.06 384.784C1550.48 389.013 1550.65 396.767 1554.88 403.11C1559.1 409.454 1570.38 408.044 1582.36 403.11C1594.35 398.176 1607.74 381.26 1614.79 371.392C1621.84 361.524 1627.47 339.674 1626.06 334.035C1624.66 328.396 1622.54 319.234 1609.85 315.004C1597.17 310.775 1588 319.938 1583.77 322.758C1579.54 325.577 1567.56 344.608 1565.45 349.542Z" fill="white" stroke="black" stroke-width="3" stroke-linejoin="round"/>
<path d="M1585.18 358.705C1588 359.645 1594.21 362.511 1596.46 366.458C1598.72 370.405 1599.28 371.862 1599.28 372.097" stroke="black" stroke-width="3" stroke-linejoin="round"/>
<path d="M1602.1 366.458C1601.63 367.633 1599.99 370.969 1597.17 374.916C1593.64 379.85 1585.89 385.489 1582.36 386.194C1578.84 386.899 1575.32 384.079 1570.38 384.079C1565.45 384.079 1559.81 384.784 1557.69 388.308" stroke="black" stroke-width="3" stroke-linejoin="round"/>
<path d="M1456.85 858L1408.22 884.784L1456.85 914.388V858Z" stroke="black" stroke-width="3" stroke-linejoin="round"/>
<path d="M1310.42 714L1278 759.11L1322.41 791.533L1354.83 747.128L1310.42 714Z" stroke="black" stroke-width="3" stroke-linejoin="round"/>
<path d="M1207.65 87L1171 121.537L1216.82 138.454L1207.65 87Z" stroke="black" stroke-width="3" stroke-linejoin="round"/>
<path d="M1595 682.084C1598.87 682.084 1602 678.95 1602 675.084C1602 671.218 1598.87 668.084 1595 668.084C1591.13 668.084 1588 671.218 1588 675.084C1588 678.95 1591.13 682.084 1595 682.084Z" fill="black"/>
<path d="M1698 675.084C1701.87 675.084 1705 671.95 1705 668.084C1705 664.218 1701.87 661.084 1698 661.084C1694.13 661.084 1691 664.218 1691 668.084C1691 671.95 1694.13 675.084 1698 675.084Z" fill="black"/>
<path d="M1800 675.084C1803.87 675.084 1807 671.95 1807 668.084C1807 664.218 1803.87 661.084 1800 661.084C1796.13 661.084 1793 664.218 1793 668.084C1793 671.95 1796.13 675.084 1800 675.084Z" fill="black"/>
<path d="M1595 776C1598.87 776 1602 772.866 1602 769C1602 765.134 1598.87 762 1595 762C1591.13 762 1588 765.134 1588 769C1588 772.866 1591.13 776 1595 776Z" fill="black"/>
<path d="M1698 776.582C1701.87 776.582 1705 773.448 1705 769.582C1705 765.716 1701.87 762.582 1698 762.582C1694.13 762.582 1691 765.716 1691 769.582C1691 773.448 1694.13 776.582 1698 776.582Z" fill="black"/>
<path d="M1800 776.582C1803.87 776.582 1807 773.448 1807 769.582C1807 765.716 1803.87 762.582 1800 762.582C1796.13 762.582 1793 765.716 1793 769.582C1793 773.448 1796.13 776.582 1800 776.582Z" fill="black"/>
<path d="M1596 869C1599.87 869 1603 865.866 1603 862C1603 858.134 1599.87 855 1596 855C1592.13 855 1589 858.134 1589 862C1589 865.866 1592.13 869 1596 869Z" fill="black"/>
<path d="M1698 869C1701.87 869 1705 865.866 1705 862C1705 858.134 1701.87 855 1698 855C1694.13 855 1691 858.134 1691 862C1691 865.866 1694.13 869 1698 869Z" fill="black"/>
<path d="M1800 869C1803.87 869 1807 865.866 1807 862C1807 858.134 1803.87 855 1800 855C1796.13 855 1793 858.134 1793 862C1793 865.866 1796.13 869 1800 869Z" fill="black"/>
<path d="M1417.52 777.165C1413.22 775.969 1408.76 778.489 1407.56 782.793C1406.37 787.096 1408.89 791.554 1413.19 792.749L1456.93 804.896C1461.23 806.092 1465.69 803.572 1466.89 799.268C1468.08 794.965 1465.56 790.507 1461.26 789.312L1417.52 777.165Z" fill="black"/>
<path d="M961.581 517.094L950.708 552.128" stroke="black" stroke-width="3" stroke-linejoin="round"/>
<path d="M182.778 603L105.51 682.138L215.431 710L182.778 603Z" stroke="black" stroke-width="3" stroke-linejoin="round"/>
<path d="M493.201 716.888C507.944 716.888 519.895 704.937 519.895 690.194C519.895 675.451 507.944 663.5 493.201 663.5C478.459 663.5 466.507 675.451 466.507 690.194C466.507 704.937 478.459 716.888 493.201 716.888Z" stroke="black" stroke-width="3" stroke-linejoin="round"/>
<path d="M459.261 820.156C462.419 816.997 462.419 811.877 459.261 808.719C456.102 805.56 450.982 805.56 447.823 808.719L415.726 840.816C412.568 843.974 412.568 849.095 415.726 852.253C418.884 855.411 424.005 855.411 427.163 852.253L459.261 820.156Z" fill="black"/>
<path d="M701.143 869.98L701.138 869.984L677.393 885.81L651.867 873.054L651.862 873.051L626.284 860.401L624.567 831.917V831.911L622.734 803.434L646.543 787.706L646.548 787.702L670.293 771.877L695.819 784.632L695.824 784.635L721.402 797.286L723.119 825.769V825.775L724.952 854.252L701.143 869.98Z" stroke="black" stroke-width="3"/>
<path d="M1920 947H0V948H1920V947Z" fill="#DDDDDD"/>
<path d="M1559.45 420.278L1561.79 433.125L1554.66 428.013L1550.53 416.412C1552.78 417.468 1557.09 419.425 1559.45 420.278Z" fill="white" stroke="black" stroke-width="2.82" stroke-linejoin="round"/>
<path d="M172.9 300H139.9C151.9 304.2 167.7 310.3 176 314.7L170.4 324.9C161.6 319.9 143.3 312.2 130.4 307.5L134.9 300H131.3C126.5 312.3 115.8 320.2 89.0997 324.6C88.2997 321.4 85.4997 316.4 83.1997 313.9C103.3 311.2 112.7 306.7 117.4 300H87.5997V289.9H121.3C121.6 288.3 121.9 286.5 122.1 284.7H85.2997V274.4H123.7V269.1H94.0997V259.1H123.7V254H88.3997V243.5H107.4C105.9 240.5 103.8 237.3 101.8 234.7L112.4 230.5C115.5 234 118.6 238.8 119.9 242.2L117 243.5H139C141.5 239.6 144.5 234.4 146.1 230.5L158.9 233.8C156.7 237.3 154.4 240.6 152.2 243.5H171.4V254H136V259.1H166.6V269.1H136V274.4H175.8V284.7H134.7C134.5 286.5 134.2 288.2 133.9 289.9H172.9V300ZM203.3 231.5L214.6 235.9C208.1 245.2 198.3 254.9 189.1 260.9C187.8 258.3 184.9 253.4 183.1 251.1C190.8 246.2 199.2 238.1 203.3 231.5ZM248.8 265.7V270.9H259.4V265.7H248.8ZM248.8 250.5V255.6H259.4V250.5H248.8ZM270.7 280.5H248.8V285.5H271.7V295.3H248.8V300.6H275.7V310.9H248.8V324.7H237.4V310.9H212.3V300.6H237.4V295.3H216.2V285.5H237.4V280.5H217.7V270.9H237.4V265.7H214V260.5C212.1 263.6 209.8 266.9 207.3 270.1V324.8H196.2V283C193.3 286 190.5 288.7 187.7 291C186.8 288.5 183.9 282 182.2 279.1C190.6 272.9 200 263 205.5 253.4L214 257V255.6H237.4V250.5H218.1V240.9H237.4V231.3H248.8V240.9H270.7V255.6H276.7V265.7H270.7V280.5ZM298.2 248.6V256.8H287.5V239.4H324C323.2 237.3 322.1 235.2 321.1 233.4L331.5 230.5C333.2 233.2 335 236.5 336.1 239.4H372.6V256.8H361.5V248.6H298.2ZM309.2 301.9V305.1H350.8V301.9H309.2ZM309.2 293.2V296.3H350.8V293.2H309.2ZM309.2 284.6V287.5H350.8V284.6H309.2ZM362.9 311H349.2C358 313.4 366.8 316 372.7 317.9L364.6 325.2C357.4 322.5 345.7 318.5 334.2 315.5L338.3 311H320L326 315.4C317.6 319.7 303.6 323.6 292 325.3C290.6 323 287.8 319.4 285.7 317.2C294.5 316 304.8 313.7 312 311H297.7V278.6H362.9V311ZM333.7 269.8H346.6L346.9 266.6H334.1L333.7 269.8ZM311.2 266.6L310.8 269.8H324L324.4 266.6H311.2ZM325.3 257.8H312.3L311.9 260.7H325L325.3 257.8ZM347.4 260.7L347.6 257.8H335L334.8 260.7H347.4ZM358.5 259.4H375.8V267.9H357.7L356.9 275.7H299.4L300.4 267.9H284.7V259.4H301.6L302.6 251.8H359.2L358.5 259.4ZM413.2 305.3L421.6 309.1C414.8 314.8 402.8 320 392.5 322.4C391 319.9 387.9 316 385.5 313.8C395.5 312.4 407.1 309 413.2 305.3ZM440.1 310.3L448.1 304.7C456.2 307.7 468 312.7 474.4 315.9L466 322.4C460.2 319.1 448.5 313.8 440.1 310.3ZM444.3 256.9H416.9C418.5 259.4 420.1 262.3 420.9 264.4L415.5 265.7H442.8L439.2 264.6C440.8 262.3 442.9 259.3 444.3 256.9ZM435.8 292.2H474.6V302H435.8V324.8H424V302H385.9V292.2H424V287.8H395.2V279.2H424V274.7H390.2V265.7H408.6C407.7 263.4 406.2 260.6 404.9 258.4L411.6 256.9H386.1V247.6H399.7C398.2 243.8 395.6 239 393.3 235.2L403.5 231.8C406.5 236 409.8 242 411.1 245.8L406.3 247.6H415.5V231.3H426.5V247.6H434V231.3H445.2V247.6H454.1L450.5 246.5C452.8 242.5 455.5 236.4 456.9 232.1L469.4 235C466.6 239.6 463.9 244.1 461.4 247.6H474.3V256.9H447.9L457.3 259.3C455.1 261.7 453 263.9 451.2 265.7H470.5V274.7H435.8V279.2H465.8V287.8H435.8V292.2Z" fill="black"/>
<path d="M108.1 372.4H124.1C120.9 370.4 117.6 368.3 114.6 366.4C112.5 368.4 110.3 370.5 108.1 372.4ZM124.9 390.9H102.2V394.2V394.8H124.9V390.9ZM101.8 405.9H124.9V401.8H102C102 403.1 101.9 404.5 101.8 405.9ZM127.7 425.3H109.2V432.4H127.7V425.3ZM124.8 379.4H104.2V375.5C100.7 378.1 97.2 380.6 93.5 382.7H135.7V414.1H101C100.8 415.1 100.7 416.2 100.5 417.2H138.1V443.9H127.7V441.2H109.2V444.3H99.3V423.6C97.9 429.9 95.8 436 92.9 441.1C90.6 439.6 85.4 437.4 82.5 436.5C90.4 423.8 91.2 405.9 91.2 394.2V384.1L88.9 385.3C87.8 382.5 84.7 376.5 82.7 373.9C94.3 369 106 360.8 112.4 351.2L123.3 355.5C122.7 356.4 122.1 357.2 121.5 358C128.9 362.3 137.2 367.2 141.8 370.5L135.7 380.5C133 378.3 129.1 375.7 124.8 372.9V379.4ZM154.9 361.6V417.4H143.7V361.6H154.9ZM161.8 351.6H173.2V430.4C173.2 436.8 172 440 168.3 441.9C164.8 443.9 159.1 444.3 151.1 444.3C150.6 441 149.2 435.7 147.6 432.4C152.7 432.5 157.9 432.5 159.5 432.5C161.1 432.5 161.8 432 161.8 430.3V351.6ZM237.7 372.7H225.1C223.1 375.9 220.9 378.7 218.7 381.1H237.7V372.7ZM211.1 381.1H218.3C215.9 379.2 211.2 376.8 208.5 375.5C214.7 369.9 219.8 361.1 222.7 352.3L233.7 354.9C232.9 357.5 231.8 360.1 230.7 362.6H237.7V351.4H249.5V362.6H271.3V372.7H249.5V381.1H275.4V391.1H211.1V381.1ZM229.9 414.8H256.9V405.6H229.9V414.8ZM268.7 427.5H256.9V424.8H229.9V427.8H218.5V396.2H268.7V427.5ZM206.2 368.4L195 372.1C193.7 367.7 191.3 360.7 189.5 355.4L200.4 352.2C202.3 357.5 204.7 364.1 206.2 368.4ZM208.8 395.5L213.8 397.7C211.7 407.4 208.4 417.2 204.4 424.9C205.7 425.8 207.2 426.9 209.1 428C215.9 432.1 225.2 432.7 236.9 432.7C248.4 432.7 266.3 431.7 277.4 430.1C276 433.3 274.2 439.1 274 442.3C265.6 442.8 248.1 443.5 236.4 443.5C223.2 443.5 214.8 442.4 207.6 438.2C203.5 435.9 199.9 432.6 197.9 432.6C195.6 432.6 192.3 439.4 190 445.1L182.1 433.7C186.2 428.5 190.7 424.7 194.4 423C196.8 418.2 198.9 412.1 200.5 406.2H187.1C189.4 400.6 192.1 392.7 194.5 385.2H183.9V374.6H208.5C206.4 381.4 203.8 389.2 201.4 396H207.1L208.8 395.5ZM305.9 441.1L297.7 438C299.4 431.8 301.3 422.5 302.2 415.8L309.8 418.7C308.8 425 307.2 434.9 305.9 441.1ZM328.2 401.5V394.3H314.6V401.5H328.2ZM354.5 360.6H360.7C358.8 358.9 356.5 357.1 354.5 355.5C354.5 357.2 354.5 358.9 354.5 360.6ZM361.8 372.6L372.5 375.3C368.9 384.8 363.7 393.3 357.4 400.5C359.8 419.3 363.4 432.7 366.5 432.7C367.9 432.7 368.8 427.6 369.1 416.7C371.3 419.4 375 422 377.9 423.2C376.2 439.7 373 444 365 444C356.3 444 350.7 429.6 347.4 409.8C345.5 411.3 343.5 412.6 341.5 413.9C340.6 412.7 339 411.1 337.4 409.4H325.6C328.4 413.9 331.8 419.8 333.3 423.2L325.5 427.4C324.4 424.4 322.1 420 319.9 415.9V432.7C319.9 435.3 320.3 435.6 322.8 435.6H330C332.3 435.6 332.8 434.1 333 425C334.5 426.1 337.1 427.2 339.4 427.9C338 424.5 336.6 421.1 335.3 418.1L343.1 415.1C346.3 421.9 350.2 431 352.1 436.4L343.7 440C343.1 437.8 342.1 434.9 340.9 431.8C339.8 441 337.2 443.6 331 443.6H321.3C312.5 443.6 310.5 441 310.5 432.8V415.8H319.8L317.9 412.4L324.1 409.4H304.9V386.3H337.5V403.4C340.4 401.6 343.1 399.5 345.6 397.2C344.6 388.5 344 379.2 343.5 370H302.4V374.3H340.7V382.2H302.4C302.2 400 300.4 427 291.8 444.9C289.8 443 284.9 439.6 282.3 438.7C290.7 421.4 291.5 396.3 291.5 379.8V360.6H343.2C343.1 357.5 343 354.4 343 351.3H354.5V354.5L360.8 350.1C364 352.4 368.5 355.7 370.8 357.8L367.1 360.6H375.1V370H354.8C355 375.1 355.3 380.2 355.7 385.1C358.2 381.2 360.2 377.1 361.8 372.6ZM430.9 402H413.7C413.5 403.4 413.3 404.8 413 406.1C418.2 411.2 429 423.7 431.8 427L423.8 437C420.5 431.8 414.8 424.3 409.9 418.2C406.5 428 400.6 437.4 391 444.4C389.4 441.9 385 437.2 382.5 435.4C395.5 426.1 400.1 413.6 401.7 402H384V390.8H402.5V388.3V374.9H398.5C396.5 380 394.2 384.6 391.7 388.3C389.5 386.3 384.8 382.9 382.1 381.4C387.5 374.2 391.3 362.7 393.3 351.3L404.7 353.6C404 357.1 403.2 360.5 402.2 363.9H428.6V374.9H414.5V388.4V390.8H430.9V402ZM445.1 423.4H459.6V371.1H445.1V423.4ZM433.6 359.9H471.7V440.3H459.6V434.6H445.1V441.8H433.6V359.9ZM491.7 414L500.8 416.6C498.3 423.8 494.2 432 490.7 437.1C488.9 435.6 485.1 433 482.9 431.7C486.3 427 489.6 420.2 491.7 414ZM515.2 370.9H500.4C501.9 374.2 503.2 378.5 503.7 381.3L496.5 383.3H510.9C512.4 379.7 514.2 374.6 515.2 370.9ZM530.3 410.8H514.8V444H503.3V410.8H484.7V400.8H503.3V393.1H484.1V383.3H493.8C493.3 380.3 492.1 376 490.9 372.9L499.1 370.9H485.6V361.2H502.7C501.8 358.5 500.7 355.7 499.7 353.3L511.6 350.4C513.1 353.7 514.9 357.8 516.1 361.2H530.4V370.9H517.9L526 372.5C524.5 376.3 523 380.2 521.5 383.3H531.9V393.1H514.8V400.8H530.3V410.8ZM576.5 384.2V395.2H567.2V444.3H555.6V395.2H546.3V396.4C546.3 411.1 545 431.7 536.5 444.5C534.5 442.4 529.8 438.6 527.3 437.4C529.2 434.5 530.7 431.2 531.8 427.7L524.7 432.1C523.1 428.1 519.7 421.7 516.9 417.1L524.7 412.9C527.4 416.9 530.5 422.2 532.2 426C535 416.4 535.3 405.6 535.3 396.4V360.8C546.2 358.8 558.3 355.7 565.6 352.3L574.7 361C566.5 364.3 556.1 366.7 546.3 368.5V384.2H576.5ZM664.9 370.9V366.3H659.6V370.9H664.9ZM664.9 382.8V378.1H659.6V382.8H664.9ZM635.3 378.1V382.8H640.4V378.1H635.3ZM635.3 366.3V370.9H640.4V366.3H635.3ZM652.4 378.1H647.6V382.8H652.4V378.1ZM647.6 370.9H652.4V366.3H647.6V370.9ZM674.1 358.5V390.6H626.5V358.5H638.3V351.4H647.5V358.5H651.9V351.4H661.2V358.5H674.1ZM676 394V402.5H625V394H676ZM598.7 410.9V413.9C598.7 416.8 598.6 419.8 598.4 423.1C601.8 421.7 605.9 419.7 610.4 417.5V413.1L606.4 417.5C604.7 415.8 601.6 413.1 598.7 410.9ZM597.2 362.8V382.9H601.1V366.9H610.8V362.8H597.2ZM607.1 382.9H610.8V373.6H607.1V382.9ZM615.7 394.9V390.9H592.8V394.9H615.7ZM598.7 402.6V408.3L602.1 404.9C605 406.8 608.2 409 610.4 410.9V402.6H598.7ZM624.7 398.3H620.2V434.4C620.2 438.7 619.5 441.1 616.7 442.6C614.1 444.1 610.4 444.2 605.1 444.2C604.8 441.7 603.6 437.9 602.4 435.5C605.2 435.6 608.2 435.6 609.1 435.6C610.1 435.6 610.4 435.2 610.4 434.3V425.2C607.1 427.4 603.9 429.5 600.7 431.4L598.1 425.8C597.3 432.6 595.6 439.8 592.1 445C590.4 443.3 586 440.3 583.8 439.3C588.7 431.8 589.1 421.6 589.1 413.7V398.4H584.1V382.9H588V354.4H620.5V382.9H624.7V398.3ZM657.3 425.3H642.5C643.7 428.3 645 431.7 645.9 434.5H654C655.2 431.5 656.5 428.1 657.3 425.3ZM639.2 413V418.2H660.9V413H639.2ZM663.8 434.5H676.8V443.1H624V434.5H635.8C635 432 634 429.4 633.1 427.2L639.4 425.3H628.8V405.8H671.9V425.3H660.5L668.2 427.4C666.6 429.9 665.2 432.3 663.8 434.5ZM689.1 437.9L682.7 435.7C684.6 429.9 686.1 420.7 686.8 414.1L692.7 416.2C692.1 422.8 690.8 432.3 689.1 437.9ZM693.8 416.2L698.7 415.8C699.2 421.5 699.5 429 699.5 434L694.3 434.6C694.5 429.6 694.2 422 693.8 416.2ZM699.7 415.5L704.5 414.7C705.7 419.9 707 426.5 707.4 430.8L702.4 431.8C702.1 427.4 700.9 420.6 699.7 415.5ZM697 394.8V401.1H703.2V394.8H697ZM703.2 364.8H697V371.4H703.2V364.8ZM703.2 386.1V380.2H697V386.1H703.2ZM739.5 373.3H760.2C756.3 370.4 752.5 367.4 749.1 364.3C746.3 367.5 743 370.5 739.5 373.3ZM732.5 413.9L742.5 415.6C741.9 418.2 741.2 420.8 740.4 423.3C744 425.5 747.8 428.4 749.8 430.6L744 438.3C742.4 436.6 739.7 434.2 736.9 432.1C734.5 437.1 731.6 441.4 728.3 444.8C726.8 443.1 723.1 440.1 720.8 438.4C720.5 439.4 720.2 440.1 719.8 440.6C718.3 442.8 716.6 443.6 714.3 443.9C712.3 444.3 709.2 444.4 706 444.3C705.9 441.6 704.9 437.9 703.7 435.5C706.2 435.8 708.3 435.8 709.3 435.8C710.4 435.8 711.1 435.7 711.8 434.7C712.4 433.7 712.8 431.3 713.2 426.1L709.7 427.4C709 423.9 707.3 418.5 705.7 414.5L709.9 413.1C711.2 416 712.5 419.7 713.4 422.8C713.6 419.6 713.7 415.6 713.9 410.8H687.8V355.1H722.4V364.8H712.2V371.4H720.8V373.7C731.4 367.8 741.1 358.7 746.4 350L757 353.7C756.4 354.8 755.7 355.8 755 356.8C761 362.1 769.7 367.4 777.4 370.3C775.7 373 773.7 378.2 773 381.2C769.9 379.6 766.8 377.8 763.7 375.7V382.3H734.3V377.3C732 378.8 729.7 380.2 727.4 381.6C726 379.7 723 376.5 720.8 374.7V380.2H712.2V386.1H721.1V394.8H712.2V401.1H723.3C723.3 401.1 723.3 403.7 723.2 404.9C722.7 423.5 722.2 433.1 721 437.7C726.9 432.1 730.7 423.4 732.5 413.9ZM758.2 395V404.4H764.5V395H758.2ZM750.5 411.9V387.6H772.7V411.9H750.5ZM733.6 395V404.4H739.1V395H733.6ZM725.9 411.9V387.6H747.3V411.9H725.9ZM756.9 413.4L767.5 415.2C766.8 419.2 765.9 423.1 764.7 426.8C768.9 429.6 773.7 433.1 776.3 435.6L769.4 443.7C767.5 441.6 764.1 438.8 760.7 436.2C759 439.4 757 442.4 754.8 444.8C753.1 443 748.7 439.7 746.2 438.2C752 432.5 755.4 423.4 756.9 413.4Z" fill="black"/>
<path d="M86 474.5H774V471.5H86V474.5Z" fill="black"/>
<mask id="mask1_223_689" style="mask-type:luminance" maskUnits="userSpaceOnUse" x="86" y="471" width="688" height="4">
<path d="M86 474.5H774V471.5H86V474.5Z" fill="white"/>
</mask>
<g mask="url(#mask1_223_689)">
<path d="M86 474.5V478.5H82V474.5H86ZM774 474.5H778V478.5H774V474.5ZM774 471.5V467.5H778V471.5H774ZM86 471.5H82V467.5H86V471.5ZM86 470.5H774V478.5H86V470.5ZM770 474.5V471.5H778V474.5H770ZM774 475.5H86V467.5H774V475.5ZM90 471.5V474.5H82V471.5H90Z" fill="black"/>
</g>
<path d="M135.595 497.659V500.495H104.507V497.659H118.742C118.251 496.404 117.597 495.095 116.997 494.004L119.942 493.077C120.815 494.441 121.796 496.241 122.342 497.659H135.595ZM97.5806 500.986L94.799 502.022C94.3627 500.058 93.1083 497.004 91.7448 494.714L94.4172 493.841C95.8353 496.132 97.1442 499.077 97.5806 500.986ZM103.362 502.731V505.731H86.3999V502.731H103.362ZM99.0531 527.328H91.0903V536.982H99.0531V527.328ZM101.889 524.329V539.927H91.0903V542.545H88.3633V524.329H101.889ZM88.636 519.966V517.02H101.889V519.966H88.636ZM88.636 512.712V509.767H101.889V512.712H88.636ZM115.579 523.129V526.292H124.141V523.129H115.579ZM115.579 517.511V520.62H124.141V517.511H115.579ZM109.47 505.131V509.603H115.633V505.131H109.47ZM124.469 505.131V509.603H130.795V505.131H124.469ZM132.977 529.892L134.995 531.746C132.977 533.219 130.414 534.637 128.177 535.728C130.468 537.746 133.359 539.327 136.631 540.2C135.922 540.909 134.995 542.054 134.559 542.872C127.687 540.636 122.723 535.673 120.051 529.019H119.287C117.869 530.383 116.07 531.637 114.161 532.782V538.727L122.614 537.037C122.56 537.909 122.614 539.218 122.723 539.873C113.07 542.109 111.652 542.545 110.779 543.091C110.506 542.381 109.688 541.127 109.143 540.636C109.907 540.091 111.215 538.836 111.215 536.437V534.31C109.143 535.346 106.961 536.164 104.943 536.873C104.562 536.273 103.58 535.019 102.98 534.473C107.343 533.219 111.979 531.364 115.251 529.019H103.798V526.292H112.252V523.129H106.525V520.62H112.252V517.511H105.543V514.948H112.252V511.894H106.634V502.84H118.578V511.894H115.579V514.948H124.141V511.894H121.633V502.84H133.74V511.894H127.468V514.948H134.94V517.511H127.468V520.62H133.795V523.129H127.468V526.292H136.086V529.019H123.105C123.978 530.764 125.069 532.401 126.269 533.819C128.614 532.673 131.286 531.037 132.977 529.892ZM170.446 493.623H174.427C174.373 495.532 174.318 498.259 174.046 501.476C174.864 507.803 178.191 531.037 197.443 539.654C196.461 540.473 195.371 541.672 194.825 542.709C180.809 536.109 175.082 522.038 172.464 511.785C170.064 522.911 164.337 535.728 150.593 542.872C149.993 541.945 148.794 540.854 147.757 540.091C170.446 528.746 170.282 501.804 170.446 493.623ZM257.11 504.531V508.239H242.166V537.2C242.166 539.927 241.402 541.018 239.603 541.672C237.803 542.272 234.694 542.381 229.349 542.327C229.185 541.291 228.586 539.654 228.04 538.564C231.967 538.727 235.73 538.673 236.767 538.673C237.857 538.618 238.294 538.291 238.294 537.2V509.494C231.912 519.911 221.223 530.71 211.078 536.437C210.424 535.4 209.333 534.037 208.351 533.219C218.277 528.201 228.695 518.057 234.749 508.239H210.042V504.531H238.294V493.405H242.166V504.531H257.11ZM308.323 519.856V513.912H285.034V519.856H308.323ZM284.871 529.128H308.323V523.02H285.034V524.983C285.034 526.292 284.98 527.656 284.871 529.128ZM318.304 503.985H288.852C287.761 506.221 286.562 508.512 285.307 510.639H311.868V538.4C311.868 540.691 311.323 541.782 309.632 542.381C307.941 542.981 304.942 542.981 300.197 542.981C300.033 541.945 299.488 540.473 298.997 539.436C302.76 539.6 306.087 539.545 307.014 539.545C307.996 539.491 308.323 539.164 308.323 538.346V532.292H284.435C283.671 536.273 282.089 540.364 278.871 543.418C278.435 542.6 277.126 541.127 276.363 540.582C280.889 536.164 281.38 530.11 281.38 524.929V516.257C278.708 519.584 275.654 522.638 272.163 525.092C271.727 524.274 270.581 522.965 269.872 522.256C276.417 517.784 281.38 511.185 284.925 503.985H270.963V500.549H286.398C287.434 498.204 288.252 495.804 288.907 493.459L292.506 494.277C291.852 496.404 291.143 498.477 290.27 500.549H318.304V503.985ZM376.825 497.004L374.644 498.968C373.117 497.931 370.28 496.186 368.099 494.986L370.226 493.241C372.353 494.332 375.244 495.968 376.825 497.004ZM340.011 541.291L337.338 540.309C338.265 537.418 339.465 532.782 340.065 529.783L342.52 530.71C341.865 533.655 340.883 538.4 340.011 541.291ZM356.046 521.438V514.402H344.756V521.438H356.046ZM359.045 511.675V524.165H341.647V511.675H359.045ZM356.318 533.273L353.755 534.637C352.664 532.619 350.592 529.183 348.901 526.674L351.355 525.529C353.1 528.037 355.227 531.31 356.318 533.273ZM349.883 539.927H356.7C358.445 539.927 358.718 539.164 358.882 533.546C359.591 534.091 360.736 534.528 361.609 534.746C361.281 541.182 360.409 542.654 357.027 542.654H349.61C345.628 542.654 344.592 541.782 344.592 538.509V529.346H347.646V538.509C347.646 539.709 347.974 539.927 349.883 539.927ZM360.245 529.837L362.808 528.856C364.772 532.073 367.117 536.437 368.262 539.055L365.535 540.309C364.445 537.636 362.154 533.164 360.245 529.837ZM374.316 504.967L377.589 505.785C375.625 511.185 372.735 515.875 369.299 519.802C370.989 531.692 373.716 539.436 376.171 539.436C377.153 539.436 377.643 536.546 377.916 530.219C378.68 530.983 379.825 531.801 380.698 532.128C380.098 540.364 379.007 542.927 375.734 542.927C371.371 542.927 368.208 534.855 366.299 522.911C364.554 524.547 362.754 525.965 360.845 527.274C360.3 526.619 359.045 525.31 358.227 524.765C360.954 523.183 363.463 521.22 365.754 518.929C365.045 513.748 364.554 508.076 364.281 502.076H338.92V505.84H361.718V508.512H338.92V510.694C338.92 519.802 338.156 533.601 333.466 543.2C332.811 542.545 331.339 541.563 330.575 541.236C335.102 532.073 335.538 519.366 335.538 510.694V499.022H364.172C364.063 497.168 364.063 495.259 364.008 493.405H367.553C367.553 495.313 367.553 497.222 367.608 499.022H379.825V502.076H367.717C367.935 506.821 368.262 511.294 368.753 515.384C371.099 512.275 372.953 508.785 374.316 504.967Z" fill="black"/>
<path d="M426.689 511.021C430.616 514.184 435.47 519.093 439.015 523.183L435.688 526.019C432.143 521.602 427.452 516.966 423.58 513.857L426.689 511.021Z" fill="black"/>
<path d="M531.595 497.659V500.495H500.507V497.659H514.742C514.251 496.404 513.597 495.095 512.997 494.004L515.942 493.077C516.815 494.441 517.796 496.241 518.342 497.659H531.595ZM493.58 500.986L490.799 502.022C490.363 500.058 489.108 497.004 487.745 494.714L490.417 493.841C491.835 496.132 493.144 499.077 493.58 500.986ZM499.362 502.731V505.731H482.4V502.731H499.362ZM495.053 527.328H487.09V536.982H495.053V527.328ZM497.889 524.329V539.927H487.09V542.545H484.363V524.329H497.889ZM484.636 519.966V517.02H497.889V519.966H484.636ZM484.636 512.712V509.767H497.889V512.712H484.636ZM511.579 523.129V526.292H520.141V523.129H511.579ZM511.579 517.511V520.62H520.141V517.511H511.579ZM505.47 505.131V509.603H511.633V505.131H505.47ZM520.469 505.131V509.603H526.795V505.131H520.469ZM528.977 529.892L530.995 531.746C528.977 533.219 526.414 534.637 524.177 535.728C526.468 537.746 529.359 539.327 532.631 540.2C531.922 540.909 530.995 542.054 530.559 542.872C523.687 540.636 518.723 535.673 516.051 529.019H515.287C513.869 530.383 512.07 531.637 510.161 532.782V538.727L518.614 537.037C518.56 537.909 518.614 539.218 518.723 539.873C509.07 542.109 507.652 542.545 506.779 543.091C506.506 542.381 505.688 541.127 505.143 540.636C505.907 540.091 507.215 538.836 507.215 536.437V534.31C505.143 535.346 502.961 536.164 500.943 536.873C500.562 536.273 499.58 535.019 498.98 534.473C503.343 533.219 507.979 531.364 511.251 529.019H499.798V526.292H508.252V523.129H502.525V520.62H508.252V517.511H501.543V514.948H508.252V511.894H502.634V502.84H514.578V511.894H511.579V514.948H520.141V511.894H517.633V502.84H529.74V511.894H523.468V514.948H530.94V517.511H523.468V520.62H529.795V523.129H523.468V526.292H532.086V529.019H519.105C519.978 530.764 521.069 532.401 522.269 533.819C524.614 532.673 527.286 531.037 528.977 529.892ZM556.52 512.112H583.462C580.245 510.857 576.045 509.494 571.518 508.076C566.555 509.712 561.21 511.021 556.52 512.112ZM581.008 501.586H557.501C561.919 502.676 566.882 503.985 571.736 505.458C575.336 504.203 578.554 502.895 581.008 501.586ZM592.352 515.166H551.556V523.947C551.556 530.001 550.684 538.127 545.775 543.636C545.284 542.927 543.866 541.727 543.048 541.291C547.521 536.273 548.066 529.292 548.066 523.892V512.112H554.829C554.338 511.457 553.52 510.639 552.975 510.203C557.392 509.33 562.41 508.185 567.209 506.821C562.955 505.512 558.592 504.422 554.665 503.494L556.956 501.586H548.339V498.531H568.682C567.755 497.113 566.61 495.586 565.573 494.332L568.191 492.968C569.664 494.55 571.355 496.841 572.391 498.531H590.607V501.586H582.317L584.335 502.84C581.881 504.149 578.881 505.458 575.718 506.603C579.863 507.912 583.626 509.112 586.517 510.203L584.553 512.112H592.352V515.166ZM574.3 538.182H593.225V541.291H552.647V538.182H570.755V532.237H557.829V529.237H570.755V524.001H558.974C557.447 526.565 555.647 528.856 553.847 530.71C553.465 530.055 552.484 528.419 551.829 527.819C554.883 524.874 557.556 520.62 559.138 516.202L562.301 517.075C561.81 518.438 561.21 519.693 560.61 521.002H570.755V516.148H574.3V521.002H589.244V524.001H574.3V529.237H588.098V532.237H574.3V538.182ZM640.62 510.094V499.24H618.477V510.094H640.62ZM644.274 495.75V513.584H614.932V495.75H644.274ZM622.404 523.02H610.405V536.655H622.404V523.02ZM606.969 543.145V519.529H626.004V542.6H622.404V540.145H610.405V543.145H606.969ZM635.657 536.655H648.747V523.02H635.657V536.655ZM632.167 519.529H652.346V542.763H648.747V540.145H635.657V543.145H632.167V519.529ZM670.454 522.802H677.762V518.547H670.454V522.802ZM670.454 511.839V515.984H677.762V511.839H670.454ZM688.67 511.839H681.089V515.984H688.67V511.839ZM688.67 522.802V518.547H681.089V522.802H688.67ZM714.14 506.167V508.076C713.486 531.037 712.995 538.564 711.141 540.854C710.268 542.218 709.177 542.6 707.595 542.763C706.068 542.927 703.505 542.927 700.996 542.763C700.887 541.782 700.505 540.254 699.905 539.327C702.632 539.545 705.141 539.6 706.177 539.6C707.105 539.6 707.595 539.436 708.086 538.782C709.395 537.146 710.104 529.837 710.65 509.548H702.36C701.705 524.056 699.251 536.164 689.488 543.363C688.943 542.545 687.688 541.345 686.761 540.8C687.797 540.036 688.779 539.273 689.652 538.4C681.198 539.436 672.526 540.418 666.309 541.127L665.818 537.909C669.09 537.582 673.235 537.2 677.762 536.709V531.746H667.29V528.91H677.762V525.365H667.454V509.221H677.762V505.567H665.763V502.731H677.762V498.804C674.217 499.131 670.617 499.349 667.345 499.458C667.181 498.64 666.8 497.441 666.418 496.731C674.49 496.295 684.416 495.313 689.979 494.059L691.833 496.841C688.888 497.495 685.125 498.04 681.089 498.477V502.731H692.87V505.567H681.089V509.221H691.833V525.365H681.089V528.91H691.888V531.746H681.089V536.382C684.689 536 688.452 535.619 692.161 535.182V535.509C697.015 528.91 698.487 519.911 698.978 509.548H692.379V506.167H699.087C699.196 502.295 699.196 498.204 699.196 494.059H702.632C702.632 498.204 702.578 502.295 702.469 506.167H714.14ZM749.7 493.623H753.682C753.627 495.532 753.573 498.259 753.3 501.476C754.118 507.803 757.445 531.037 776.698 539.654C775.716 540.473 774.625 541.672 774.08 542.709C760.063 536.109 754.336 522.038 751.718 511.785C749.319 522.911 743.592 535.728 729.848 542.872C729.248 541.945 728.048 540.854 727.012 540.091C749.7 528.746 749.537 501.804 749.7 493.623Z" fill="black"/>
</g>
<path d="M1295.99 501.789C1302.19 491.075 1321.12 455.034 1329.82 438.353L1446.12 472.185L1451.76 617.383C1444.47 637.589 1425.82 677.859 1409.47 677.295C1389.03 676.59 1378.45 659.674 1373.52 648.397C1369.57 639.375 1370.46 630.071 1371.4 626.546C1369.05 626.781 1360.27 627.956 1343.91 630.775C1323.47 634.3 1298.5 620 1288.94 597.648C1276.01 567.44 1288.23 515.181 1295.99 501.789Z" fill="black" stroke="black" stroke-width="3" stroke-linejoin="round"/>
<path d="M1434.35 562.432C1432.1 550.026 1424.96 525.78 1421.67 515.207L1523.17 456L1647.22 512.388C1576.26 579.113 1437.6 712.846 1430.83 716.793C1422.37 721.727 1409.69 723.137 1406.16 716.088C1403.37 710.502 1406.34 700.996 1407.54 697.164L1407.57 697.057C1413.21 678.026 1425.76 634.326 1430.83 611.771C1437.17 583.577 1437.17 577.938 1434.35 562.432Z" fill="white" stroke="black" stroke-width="3" stroke-linejoin="round"/>
<path d="M1365.98 521.524C1347.65 510.247 1337.08 497.56 1328.62 477.824L1310.29 423.551L1296.9 375.621L1284.92 236.767L1397.7 219.85L1536.55 288.22L1565.45 313.595L1580.25 342.494L1604.92 445.401C1568.27 464.902 1474.66 512.502 1449.85 521.524C1418.84 532.802 1380.25 530.305 1365.98 521.524Z" fill="white" stroke="black" stroke-width="3" stroke-linejoin="round"/>
<path d="M1297.49 183.187C1287.9 195.028 1279 214 1274.5 231C1270 248 1273.5 286.5 1289.5 297.5C1289.5 274 1289.5 237.5 1321.5 247.5C1363.5 210 1387.5 289.788 1462 314.288C1536.5 338.788 1549.5 280.5 1549.5 280.5L1577.31 387.592L1571.67 396.05C1562.98 405.448 1544.61 425.936 1540.66 432.702C1535.73 441.16 1533.48 459.379 1537 477C1540.52 494.621 1561.5 517.5 1585 526.447C1605.98 534.434 1635.13 532.054 1645 529C1644.77 530.645 1645.74 530.095 1648 542.5C1650.82 558.007 1662.97 581.401 1682.5 595C1709 613.455 1748.67 611.067 1768.5 605C1811 592 1825.5 562 1828 555.5C1833.71 540.641 1835.29 529.916 1835.29 513C1835.29 497.5 1831.06 490.03 1831.06 486.27C1831.06 486.975 1831.9 486.834 1835.29 480.632C1839.52 472.878 1856 447 1845.86 413.671C1841.27 398.593 1823.5 372.5 1803.57 354.464C1788.41 340.749 1756.34 321.336 1737.31 314.288C1718.28 307.24 1697.14 301.601 1687.97 292.438C1678.81 283.275 1669.65 275.521 1652.73 225.477C1635.82 175.433 1609.74 157.812 1592.11 140.896C1574.49 123.98 1556.17 114.817 1527.27 105.654C1498.37 96.4907 1459.6 100.015 1432.82 105.654C1406.04 111.292 1384.89 117.636 1359.52 131.733C1334.14 145.83 1309.47 168.385 1297.49 183.187Z" fill="black" stroke="black" stroke-width="3" stroke-linejoin="round"/>
<path d="M1320.87 373.507L1338.49 383.374" stroke="black" stroke-width="3" stroke-linejoin="round"/>
<path d="M1351.18 369.278L1368.8 379.145" stroke="black" stroke-width="3" stroke-linejoin="round"/>
<path d="M1330.73 437.648C1332.14 436.003 1335.95 432.855 1339.9 433.418C1344.83 434.123 1350.47 436.943 1354.7 436.238C1358.93 435.533 1362.45 430.599 1365.98 428.485C1369.5 426.37 1374.46 425.711 1385.71 424.96C1417.43 422.846 1435.05 417.207 1438.58 415.797" stroke="black" stroke-width="3" stroke-linejoin="round"/>
<path d="M1330.73 427.78C1332.38 423.551 1337.5 414.388 1344.83 411.568C1353.99 408.044 1360.34 405.225 1374.43 405.225C1385.71 405.225 1414.38 409.454 1427.3 411.568" stroke="black" stroke-width="3" stroke-linejoin="round"/>
<path d="M1345.54 445.401C1358.76 443.565 1377.69 439.893 1397.53 435.074C1418.36 430.015 1434.47 418.551 1438.58 415.797" stroke="black" stroke-width="3" stroke-linejoin="round"/>
<path d="M1434.35 439.057C1429.88 444.226 1419.69 455.551 1414.61 459.498C1408.27 464.432 1398.4 469.366 1388.53 470.775C1378.66 472.185 1371.62 472.185 1361.04 468.661C1352.58 465.842 1346.71 462.317 1344.83 460.908" stroke="black" stroke-width="3" stroke-linejoin="round"/>
<path d="M938.023 296.015C951.312 334.473 978.131 416.098 979.097 434.944C979.784 448.33 970.151 486.477 960.976 518.786C935.003 496.074 887.033 457.165 879.302 452.815C869.637 447.379 862.993 449.191 859.368 451.003C855.744 452.815 850.308 458.856 849.1 467.916C848.133 475.165 854.335 485.434 857.556 489.662L889.792 521.704L979.701 604.075L1171.18 747.232C1171.58 747.434 1173.84 747.957 1179.64 748.44C1186.89 749.045 1194.14 744.212 1198.36 741.796C1202.59 739.38 1209.84 731.527 1213.46 726.091C1217.09 720.655 1222.75 706.468 1224.34 689.245C1226.16 669.533 1221.92 653.405 1218.9 643.942C1201.99 630.25 1164.66 600.089 1150.64 588.974C1133.13 575.081 1134.34 572.665 1128.29 553.336C1122.25 534.007 1110.78 454.878 1106.55 439.777C1102.32 424.676 1089.03 389.037 1085.41 380.581C1081.78 372.124 1070.91 354.003 1066.08 346.151C1061.25 338.298 1043.73 306.284 1036.48 297.224C1030.68 289.975 1027.62 287.358 1026.82 286.955C1020.78 272.458 1008.09 242.498 1005.68 238.632C1002.65 233.799 1000.84 233.195 998.427 232.591C996.01 231.987 993.594 232.591 989.366 235.612C985.983 238.028 984.735 243.464 984.534 245.88C984.332 241.048 983.809 229.934 983.326 224.135C982.722 216.886 979.701 213.262 976.681 211.45C973.661 209.638 970.641 209.638 967.017 210.242C963.392 210.846 958.56 216.282 956.748 219.302C955.298 221.719 954.936 224.739 954.936 225.947C952.922 227.155 946.842 231.987 938.627 241.652C930.412 251.317 934.801 281.921 938.023 296.015Z" stroke="black" stroke-width="3" stroke-linejoin="round"/>
<path d="M984.535 245.276C983.528 248.095 982.36 258.203 985.743 276.082C989.971 298.432 992.991 309.908 996.615 319.573C999.515 327.305 1011.92 357.426 1017.76 371.52C1020.98 378.165 1026.5 393.915 1029.23 401.722C1033.46 413.803 1036.48 430.112 1035.88 436.756" stroke="black" stroke-width="3" stroke-linejoin="round"/>
<path d="M1048.56 544.879C1046.75 557.967 1044.82 594.894 1051.58 616.156C1058.35 637.418 1065.27 644.546 1067.89 648.17" stroke="black" stroke-width="3" stroke-linejoin="round"/>
<path d="M1026.82 286.955C1025.41 286.351 1020.9 286.713 1018.96 288.163C1016.55 289.975 1013.53 295.411 1013.53 299.64C1013.53 303.868 1012.32 305.68 1018.96 323.801C1024.28 338.298 1038.9 368.903 1045.54 382.393C1047.55 387.225 1052.19 399.185 1054.6 408.367C1057.62 419.843 1063.06 444.005 1062.45 445.817" stroke="black" stroke-width="3" stroke-linejoin="round"/>
<path d="M954.936 225.947C954.332 235.209 953.848 257.236 956.748 271.25C960.372 288.767 964.6 309.304 969.433 320.781C974.265 332.258 979.701 346.755 984.534 354.607C989.366 362.46 997.218 377.561 999.031 381.789C1000.84 386.017 1008.7 407.763 1008.7 418.635C1008.7 427.334 1008.7 430.716 1008.7 431.32" stroke="black" stroke-width="3" stroke-linejoin="round"/>
<path d="M896.948 308.339L869.163 175.45L1076.95 138L1103.53 273.305L896.948 308.339Z" stroke="black" stroke-width="3" stroke-linejoin="round"/>
<path d="M890.557 199.612L952.773 189.343" stroke="black" stroke-width="3" stroke-linejoin="round"/>
<path d="M894.434 216.223L1062.96 186.625" stroke="black" stroke-width="3" stroke-linejoin="round"/>
<path d="M897.901 232.506L1065.57 202.908" stroke="black" stroke-width="3" stroke-linejoin="round"/>
<path d="M901.175 248.788L1069.7 219.19" stroke="black" stroke-width="3" stroke-linejoin="round"/>
<path d="M905.307 265.071L1073.83 235.473" stroke="black" stroke-width="3" stroke-linejoin="round"/>
<path d="M1016.2 261.182L1077.04 251.756" stroke="black" stroke-width="3" stroke-linejoin="round"/>
<path d="M1334.5 306.5C1334.17 322 1331 357.1 1321 373.5" stroke="black" stroke-width="3"/>
<path d="M1374 275.6C1389.5 268.6 1424.7 270.4 1443.5 275.6" stroke="black" stroke-width="3"/>
<path d="M1461.36 310.819C1428.89 296.207 1394.79 294.584 1374.5 303.513" stroke="black" stroke-width="3"/>
<path d="M1386.1 299.65C1382.8 299.65 1376.2 295.8 1374 291.4" stroke="black" stroke-width="3"/>
<path d="M1399.66 298.642C1392.36 297.83 1388.3 291.336 1386.67 288.089" stroke="black" stroke-width="3"/>
<path d="M1459.21 307.864C1439.45 321.1 1408.65 332.1 1389.4 332.1" stroke="black" stroke-width="3"/>
<ellipse cx="1398.2" cy="314.5" rx="13.75" ry="16.5" transform="rotate(-9.35126 1398.2 314.5)" fill="black"/>
<path d="M1412.23 282.33C1352.62 296.227 1297.86 304.739 1268.31 292.911L1262.55 290.353C1268.31 315.06 1274.05 339.949 1280.93 356.284C1287.54 364.461 1301.07 367.622 1306.63 368.149C1309.15 368.388 1311.22 366.6 1314.84 361.915C1316.7 359.504 1319.66 355.132 1322.11 352.326C1324.14 349.988 1326.34 347.948 1332.91 347.498C1342.21 346.86 1349.99 351.266 1363.95 362.34C1367.34 365.033 1373.25 368.807 1378.79 368.427C1388.64 367.753 1447.2 356.017 1481.97 343.187C1509.78 332.922 1538.45 314.484 1549.3 306.549C1551.25 304.068 1552.79 300.177 1554.38 296.889C1555.2 295.194 1564.34 267.362 1564.16 265.558C1563.84 262.4 1567.62 247.76 1567.62 232C1554.15 237.692 1493.19 263.454 1412.23 282.33Z" fill="white"/>
<mask id="mask2_223_689" style="mask-type:alpha" maskUnits="userSpaceOnUse" x="1262" y="232" width="306" height="137">
<path d="M1412.23 282.33C1352.62 296.227 1297.86 304.739 1268.31 292.911L1262.55 290.353C1268.31 315.06 1274.05 339.949 1280.93 356.284C1287.54 364.461 1301.07 367.622 1306.63 368.149C1309.15 368.388 1311.22 366.6 1314.84 361.915C1316.7 359.504 1319.66 355.132 1322.11 352.326C1324.14 349.988 1326.34 347.948 1332.91 347.498C1342.21 346.86 1349.99 351.266 1363.95 362.34C1367.34 365.033 1373.25 368.807 1378.79 368.427C1388.64 367.753 1447.2 356.017 1481.97 343.187C1509.78 332.922 1538.45 314.484 1549.3 306.549C1551.25 304.068 1552.79 300.177 1554.38 296.889C1555.2 295.194 1564.34 267.362 1564.16 265.558C1563.84 262.4 1567.62 247.76 1567.62 232C1554.15 237.692 1493.19 263.454 1412.23 282.33Z" fill="white"/>
</mask>
<g mask="url(#mask2_223_689)">
<path fill-rule="evenodd" clip-rule="evenodd" d="M1263.67 313.97C1294.81 325.996 1361.79 317.854 1423.97 302.628C1497.06 284.727 1543.95 262.742 1564.31 253.192C1567.48 251.708 1570 250.524 1571.89 249.702C1575.41 257.64 1577.95 264.858 1579.69 270.608C1554.79 282.146 1506.3 303.383 1434.47 320.98C1371.26 336.465 1303.46 345.194 1267.41 335.469C1263.68 326.765 1260.21 318.365 1257.59 311.362L1263.67 313.97Z" fill="#FFF500"/>
</g>
<path d="M1269.86 296C1280.5 298.584 1352.62 296.227 1412.23 282.33C1493.19 263.454 1554.15 237.692 1567.62 232C1567.62 245.5 1566.61 252.5 1564.52 263.5C1563.2 270.442 1560.45 279 1558.83 285C1557.88 288.526 1542.17 295.519 1540.22 298C1529.37 305.936 1509.78 332.922 1481.97 343.187C1447.2 356.017 1388.64 367.753 1378.79 368.427C1373.25 368.807 1367.34 365.033 1363.95 362.34C1349.99 351.266 1342.21 346.86 1332.91 347.498C1326.34 347.948 1324.14 349.988 1322.11 352.326C1319.66 355.132 1316.7 359.504 1314.84 361.915C1311.22 366.6 1309.15 368.388 1306.63 368.149C1301.07 367.622 1287.54 364.461 1280.93 356.284C1274.05 339.949 1268.31 315.06 1262.55 290.353C1262.55 290.353 1259.23 293.416 1269.86 296Z" stroke="black" stroke-width="2.82"/>
<path d="M1560.66 224.433L1578.66 221.488L1581.2 201.067L1562.95 206.055L1560.66 224.433Z" fill="white" stroke="black" stroke-width="2.82" stroke-linejoin="round"/>
<path d="M1631.5 238.432L1629.09 257.831C1628.79 260.213 1628.73 265.667 1630.88 268.422C1633.02 271.178 1640.88 279.69 1644.54 283.601C1647.38 287.247 1652.64 294.358 1653.87 297.258C1665.01 313.17 1670.53 333.109 1667.94 353.907C1663.05 393.222 1630.84 422.468 1592.72 424.986L1586.55 436.191L1561.65 433.092L1559.31 420.227L1551.25 416.759C1521.11 401.862 1502.23 369.082 1506.62 333.835C1510.29 304.29 1529.39 280.432 1554.83 269.329C1556.74 268.754 1560.93 267.375 1562.42 266.462C1565.28 264.726 1567.94 263.028 1569.49 261.821C1571.79 260.033 1573.06 258.118 1573.95 250.971L1576.36 231.571L1631.5 238.432Z" fill="white" stroke="black" stroke-width="2.82" stroke-linejoin="round"/>
<path fill-rule="evenodd" clip-rule="evenodd" d="M1579.25 412.563C1541.13 407.821 1514.08 373.078 1518.82 334.963C1523.56 296.849 1558.31 269.795 1596.42 274.537C1634.53 279.279 1661.59 314.022 1656.85 352.137C1652.1 390.251 1617.36 417.305 1579.25 412.563ZM1581.38 395.44C1552.72 391.874 1532.38 365.752 1535.94 337.094C1539.51 308.436 1565.63 288.095 1594.29 291.66C1622.95 295.226 1643.29 321.348 1639.72 350.006C1636.16 378.664 1610.04 399.005 1581.38 395.44Z" fill="#FFF500"/>
<path d="M1520.22 335.137C1515.57 372.479 1542.08 406.518 1579.42 411.164L1579.07 413.962C1540.18 409.124 1512.58 373.677 1517.42 334.789L1520.22 335.137ZM1596.25 275.936C1558.9 271.29 1524.87 297.795 1520.22 335.137L1517.42 334.789C1522.26 295.902 1557.71 268.299 1596.59 273.138L1596.25 275.936ZM1655.45 351.963C1660.09 314.621 1633.59 280.582 1596.25 275.936L1596.59 273.138C1635.48 277.976 1663.08 313.423 1658.25 352.311L1655.45 351.963ZM1579.42 411.164C1616.76 415.81 1650.8 389.305 1655.45 351.963L1658.25 352.311C1653.41 391.198 1617.96 418.801 1579.07 413.962L1579.42 411.164ZM1537.34 337.268C1533.87 365.153 1553.67 390.571 1581.55 394.04L1581.2 396.839C1551.77 393.177 1530.88 366.35 1534.55 336.92L1537.34 337.268ZM1594.12 293.06C1566.23 289.59 1540.81 309.383 1537.34 337.268L1534.55 336.92C1538.21 307.489 1565.03 286.599 1594.46 290.261L1594.12 293.06ZM1638.32 349.832C1641.79 321.947 1622 296.529 1594.12 293.06L1594.46 290.261C1623.89 293.923 1644.78 320.75 1641.12 350.18L1638.32 349.832ZM1581.55 394.04C1609.44 397.51 1634.85 377.717 1638.32 349.832L1641.12 350.18C1637.46 379.611 1610.63 400.501 1581.2 396.839L1581.55 394.04Z" fill="black"/>
<path d="M1581.27 396.354C1552.1 392.726 1531.4 366.143 1535.03 336.98C1538.66 307.817 1565.24 287.118 1594.41 290.746C1623.57 294.374 1644.27 320.957 1640.64 350.12C1637.01 379.283 1610.43 399.983 1581.27 396.354Z" fill="#FFF500" stroke="black" stroke-width="2.82" stroke-linejoin="round"/>
<path d="M1581.19 201.067L1638.37 208.181L1635.83 228.602L1578.65 221.488L1581.19 201.067Z" fill="white" stroke="black" stroke-width="2.82" stroke-linejoin="round"/>
<path d="M1512.95 91.3493C1515.23 91.6841 1517.47 92.3171 1519.62 93.2123C1527.01 96.289 1532.19 98.4478 1541.85 106.305C1555.64 117.511 1567.15 137.069 1572.33 153.039C1575.74 163.565 1579.78 185.516 1581.87 201.072L1564.11 205.929C1563.77 199.052 1562.87 188.873 1559.1 173.631C1551.77 143.959 1536.62 119.399 1525.63 110.213C1510.07 97.2092 1496.34 97.2529 1488.25 97.2786C1488.02 97.2793 1487.8 97.28 1487.59 97.2804C1474.8 97.3047 1463.81 99.8904 1463.81 99.8904C1463.81 99.8904 1467.36 97.5304 1472.66 95.1362C1484.95 91.1036 1490.73 90.0933 1502.46 90.1898C1504.97 90.2104 1508.83 90.7448 1512.95 91.3493Z" fill="white" stroke="black" stroke-width="2.82" stroke-linejoin="round"/>
<path d="M1632.75 207.275C1627.43 179.976 1615.53 141.757 1589.21 117.878C1585.22 114.263 1581.21 110.999 1577.48 108.16C1565.93 99.3795 1551.93 95.1806 1537.74 93.8265L1515.91 91.7427C1517.98 92.6417 1519.88 93.379 1521.69 94.086C1527.92 96.5105 1533.24 98.5796 1541.68 105.601C1555.34 116.954 1566.73 136.806 1571.83 153.027C1575.15 163.593 1579.07 185.502 1581.13 201.275L1582.19 200.985L1632.75 207.275Z" fill="white" stroke="black" stroke-width="2.82" stroke-linejoin="round"/>
<path d="M1506.61 333.834C1503.37 359.894 1512.85 384.606 1530.19 401.738C1520.49 393.056 1511.52 382.766 1507.4 377.48C1500.25 368.295 1495.65 355.281 1494.62 338.563C1493.59 321.845 1499.83 304.996 1505.06 296.315C1509.44 289.046 1522.28 274.61 1535.67 266.945C1538.73 265.195 1541.21 263.81 1543.4 262.585C1547.11 260.512 1550.01 258.893 1553.53 256.725C1558.02 253.966 1559.14 247.746 1558.89 247.023L1560.54 233.75L1576.36 231.571L1573.95 250.971C1573.06 258.118 1571.78 260.033 1569.49 261.821C1567.94 263.028 1566.36 264.206 1562.73 266.164L1555.07 269.359C1529.94 279.71 1510.41 303.35 1506.61 333.834Z" fill="white" stroke="black" stroke-width="2.82" stroke-linejoin="round"/>
<mask id="mask3_223_689" style="mask-type:luminance" maskUnits="userSpaceOnUse" x="1579" y="220" width="51" height="19">
<path d="M1581.6 233.006L1626.3 238.567C1627.39 238.703 1628.39 237.925 1628.53 236.829L1629.55 228.623C1629.68 227.527 1628.91 226.527 1627.81 226.391L1583.12 220.83C1582.02 220.694 1581.02 221.472 1580.88 222.568L1579.86 230.775C1579.73 231.871 1580.5 232.87 1581.6 233.006Z" fill="white"/>
</mask>
<g mask="url(#mask3_223_689)">
<path d="M1581.6 233.006L1626.3 238.567C1627.39 238.703 1628.39 237.925 1628.53 236.829L1629.55 228.623C1629.68 227.527 1628.91 226.527 1627.81 226.391L1583.12 220.83C1582.02 220.694 1581.02 221.472 1580.88 222.568L1579.86 230.775C1579.73 231.871 1580.5 232.87 1581.6 233.006Z" fill="white" stroke="black" stroke-width="5.64" stroke-linejoin="round"/>
</g>
<path d="M1580.77 231.261L1570.37 232.337C1569.99 232.376 1569.68 232.052 1569.73 231.674L1570.7 224.196C1570.74 223.933 1570.94 223.725 1571.21 223.688L1581.61 222.253C1582 222.2 1582.33 222.526 1582.28 222.91L1581.3 230.747C1581.26 231.02 1581.05 231.233 1580.77 231.261Z" fill="white" stroke="black" stroke-width="2.82" stroke-linejoin="round"/>
<path d="M1262.5 290.5C1265.5 286.5 1273 281.5 1280 279.5" stroke="black" stroke-width="2.82"/>
</g>
<defs>
<clipPath id="clip0_223_689">
<rect width="1920" height="948" fill="white"/>
</clipPath>
</defs>
</svg>
