<svg width="1920" height="768" viewBox="0 0 1920 768" fill="none" xmlns="http://www.w3.org/2000/svg">
<g clip-path="url(#clip0_181_186)">
<mask id="mask0_181_186" style="mask-type:luminance" maskUnits="userSpaceOnUse" x="0" y="0" width="1920" height="768">
<path d="M1920 0H0V768H1920V0Z" fill="white"/>
</mask>
<g mask="url(#mask0_181_186)">
<path d="M1920 0H0V768H1920V0Z" fill="#FFF500"/>
<mask id="mask1_181_186" style="mask-type:luminance" maskUnits="userSpaceOnUse" x="-19" y="0" width="2013" height="768">
<path d="M1993.54 0H-19V768H1993.54V0Z" fill="white"/>
</mask>
<g mask="url(#mask1_181_186)">
<path d="M484.299 566.151C463.458 566.151 446.563 583.046 446.563 603.888V672.415C446.563 693.257 463.458 710.151 484.299 710.151H911.467C932.311 710.151 949.207 693.257 949.207 672.415V603.888C949.207 583.046 932.311 566.151 911.467 566.151H484.299Z" fill="#FFFA80"/>
<path d="M923.311 708.996C922.591 709.069 921.895 709.142 921.199 709.213C937.243 705.488 949.207 691.103 949.207 673.925V602.378C949.207 589.284 942.259 577.813 931.843 571.448L961.435 581.095C965.047 582.906 965.683 583.359 968.227 585.17C973.207 588.728 976.375 596.039 976.831 597.849C977.275 599.66 978.643 605.095 979.087 610.981C979.447 615.691 979.243 647.66 979.087 663.057C979.027 668.943 978.187 675.283 976.375 681.17C975.655 683.501 973.855 688.868 970.939 692.943C968.671 696.114 964.147 702.399 952.375 705.17C946.123 706.64 933.799 707.912 923.419 708.985L923.311 708.996Z" fill="#FFFA80"/>
<path d="M889.905 542H462.736C441.895 542 425 558.895 425 579.736V648.264C425 669.105 441.895 686 462.736 686H889.905C910.746 686 927.64 669.105 927.64 648.264V579.736C927.64 558.895 910.746 542 889.905 542Z" stroke="#FFD600" stroke-width="3"/>
<path d="M892.171 551.963H460.474C445.885 551.963 434.059 563.789 434.059 578.378V649.623C434.059 664.212 445.885 676.038 460.474 676.038H892.171C906.76 676.038 918.586 664.212 918.586 649.623V578.378C918.586 563.789 906.76 551.963 892.171 551.963Z" stroke="#FFD600" stroke-width="3"/>
<mask id="mask2_181_186" style="mask-type:luminance" maskUnits="userSpaceOnUse" x="636" y="571" width="82" height="82">
<path d="M717.675 571.039H636.075V652.639H717.675V571.039Z" fill="white"/>
<path fill-rule="evenodd" clip-rule="evenodd" d="M676.318 647.927C696.556 647.927 712.963 631.522 712.963 611.284C712.963 591.046 696.556 574.639 676.318 574.639C656.082 574.639 639.675 591.046 639.675 611.284C639.675 631.522 656.082 647.927 676.318 647.927ZM676.364 644.152C694.59 644.152 709.364 629.377 709.364 611.152C709.364 592.926 694.59 578.152 676.364 578.152C658.138 578.152 643.364 592.926 643.364 611.152C643.364 629.377 658.138 644.152 676.364 644.152Z" fill="black"/>
</mask>
<g mask="url(#mask2_181_186)">
<path d="M709.363 611.283C709.363 629.533 694.569 644.327 676.318 644.327V651.527C698.545 651.527 716.563 633.509 716.563 611.283H709.363ZM676.318 578.239C694.569 578.239 709.363 593.033 709.363 611.283H716.563C716.563 589.057 698.545 571.039 676.318 571.039V578.239ZM643.275 611.283C643.275 593.033 658.069 578.239 676.318 578.239V571.039C654.093 571.039 636.075 589.057 636.075 611.283H643.275ZM676.318 644.327C658.069 644.327 643.275 629.533 643.275 611.283H636.075C636.075 633.509 654.093 651.527 676.318 651.527V644.327ZM705.764 611.151C705.764 627.389 692.601 640.551 676.364 640.551V647.751C696.578 647.751 712.964 631.365 712.964 611.151H705.764ZM676.364 581.751C692.601 581.751 705.764 594.914 705.764 611.151H712.964C712.964 590.937 696.578 574.551 676.364 574.551V581.751ZM646.964 611.151C646.964 594.914 660.127 581.751 676.364 581.751V574.551C656.15 574.551 639.764 590.937 639.764 611.151H646.964ZM676.364 640.551C660.127 640.551 646.964 627.389 646.964 611.151H639.764C639.764 631.365 656.15 647.751 676.364 647.751V640.551Z" fill="#FFD600"/>
</g>
<path d="M676.363 632.751C688.292 632.751 697.963 623.081 697.963 611.151C697.963 599.222 688.292 589.551 676.363 589.551C664.433 589.551 654.763 599.222 654.763 611.151C654.763 623.081 664.433 632.751 676.363 632.751Z" fill="#FFD600" stroke="#FFD600" stroke-width="3"/>
<path d="M839.347 574.603H833.007C831.756 574.603 830.743 575.616 830.743 576.867C830.743 578.117 831.756 579.131 833.007 579.131H839.347C840.597 579.131 841.611 578.117 841.611 576.867C841.611 575.616 840.597 574.603 839.347 574.603Z" fill="#FFD600"/>
<path d="M828.475 583.66H822.135C820.885 583.66 819.871 584.673 819.871 585.924C819.871 587.174 820.885 588.188 822.135 588.188H828.475C829.725 588.188 830.739 587.174 830.739 585.924C830.739 584.673 829.725 583.66 828.475 583.66Z" fill="#FFD600"/>
<path d="M828.475 618.981H822.135C820.885 618.981 819.871 619.995 819.871 621.246C819.871 622.496 820.885 623.51 822.135 623.51H828.475C829.725 623.51 830.739 622.496 830.739 621.246C830.739 619.995 829.725 618.981 828.475 618.981Z" fill="#FFD600"/>
<path d="M828.475 601.773H822.135C820.885 601.773 819.871 602.787 819.871 604.038C819.871 605.288 820.885 606.302 822.135 606.302H828.475C829.725 606.302 830.739 605.288 830.739 604.038C830.739 602.787 829.725 601.773 828.475 601.773Z" fill="#FFD600"/>
<path d="M828.475 637.094H822.135C820.885 637.094 819.871 638.108 819.871 639.358C819.871 640.609 820.885 641.623 822.135 641.623H828.475C829.725 641.623 830.739 640.609 830.739 639.358C830.739 638.108 829.725 637.094 828.475 637.094Z" fill="#FFD600"/>
<path d="M839.347 592.717H833.007C831.756 592.717 830.743 593.73 830.743 594.981C830.743 596.231 831.756 597.245 833.007 597.245H839.347C840.597 597.245 841.611 596.231 841.611 594.981C841.611 593.73 840.597 592.717 839.347 592.717Z" fill="#FFD600"/>
<path d="M839.347 609.924H833.007C831.756 609.924 830.743 610.938 830.743 612.188C830.743 613.438 831.756 614.452 833.007 614.452H839.347C840.597 614.452 841.611 613.438 841.611 612.188C841.611 610.938 840.597 609.924 839.347 609.924Z" fill="#FFD600"/>
<path d="M839.347 628.038H833.007C831.756 628.038 830.743 629.052 830.743 630.302C830.743 631.553 831.756 632.566 833.007 632.566H839.347C840.597 632.566 841.611 631.553 841.611 630.302C841.611 629.052 840.597 628.038 839.347 628.038Z" fill="#FFD600"/>
<path d="M839.347 646.15H833.007C831.756 646.15 830.743 647.164 830.743 648.415C830.743 649.665 831.756 650.679 833.007 650.679H839.347C840.597 650.679 841.611 649.665 841.611 648.415C841.611 647.164 840.597 646.15 839.347 646.15Z" fill="#FFD600"/>
<path d="M817.602 592.717H811.263C810.012 592.717 808.999 593.73 808.999 594.981C808.999 596.231 810.012 597.245 811.263 597.245H817.602C818.853 597.245 819.867 596.231 819.867 594.981C819.867 593.73 818.853 592.717 817.602 592.717Z" fill="#FFD600"/>
<path d="M817.602 609.924H811.263C810.012 609.924 808.999 610.938 808.999 612.188C808.999 613.438 810.012 614.452 811.263 614.452H817.602C818.853 614.452 819.867 613.438 819.867 612.188C819.867 610.938 818.853 609.924 817.602 609.924Z" fill="#FFD600"/>
<path d="M817.602 628.038H811.263C810.012 628.038 808.999 629.052 808.999 630.302C808.999 631.553 810.012 632.566 811.263 632.566H817.602C818.853 632.566 819.867 631.553 819.867 630.302C819.867 629.052 818.853 628.038 817.602 628.038Z" fill="#FFD600"/>
<path d="M861.079 592.717H854.739C853.489 592.717 852.475 593.73 852.475 594.981C852.475 596.231 853.489 597.245 854.739 597.245H861.079C862.329 597.245 863.343 596.231 863.343 594.981C863.343 593.73 862.329 592.717 861.079 592.717Z" fill="#FFD600"/>
<path d="M861.079 628.038H854.739C853.489 628.038 852.475 629.052 852.475 630.302C852.475 631.553 853.489 632.566 854.739 632.566H861.079C862.329 632.566 863.343 631.553 863.343 630.302C863.343 629.052 862.329 628.038 861.079 628.038Z" fill="#FFD600"/>
<path d="M861.079 609.924H854.739C853.489 609.924 852.475 610.938 852.475 612.188C852.475 613.438 853.489 614.452 854.739 614.452H861.079C862.329 614.452 863.343 613.438 863.343 612.188C863.343 610.938 862.329 609.924 861.079 609.924Z" fill="#FFD600"/>
<path d="M861.079 646.15H854.739C853.489 646.15 852.475 647.164 852.475 648.415C852.475 649.665 853.489 650.679 854.739 650.679H861.079C862.329 650.679 863.343 649.665 863.343 648.415C863.343 647.164 862.329 646.15 861.079 646.15Z" fill="#FFD600"/>
<path d="M882.811 592.717H876.471C875.221 592.717 874.207 593.73 874.207 594.981C874.207 596.231 875.221 597.245 876.471 597.245H882.811C884.061 597.245 885.075 596.231 885.075 594.981C885.075 593.73 884.061 592.717 882.811 592.717Z" fill="#FFD600"/>
<path d="M882.811 609.924H876.471C875.221 609.924 874.207 610.938 874.207 612.188C874.207 613.438 875.221 614.452 876.471 614.452H882.811C884.061 614.452 885.075 613.438 885.075 612.188C885.075 610.938 884.061 609.924 882.811 609.924Z" fill="#FFD600"/>
<path d="M882.811 628.038H876.471C875.221 628.038 874.207 629.052 874.207 630.302C874.207 631.553 875.221 632.566 876.471 632.566H882.811C884.061 632.566 885.075 631.553 885.075 630.302C885.075 629.052 884.061 628.038 882.811 628.038Z" fill="#FFD600"/>
<path d="M861.079 574.603H854.739C853.489 574.603 852.475 575.616 852.475 576.867C852.475 578.117 853.489 579.131 854.739 579.131H861.079C862.329 579.131 863.343 578.117 863.343 576.867C863.343 575.616 862.329 574.603 861.079 574.603Z" fill="#FFD600"/>
<path d="M850.219 583.66H843.879C842.629 583.66 841.615 584.673 841.615 585.924C841.615 587.174 842.629 588.188 843.879 588.188H850.219C851.469 588.188 852.483 587.174 852.483 585.924C852.483 584.673 851.469 583.66 850.219 583.66Z" fill="#FFD600"/>
<path d="M850.219 618.981H843.879C842.629 618.981 841.615 619.995 841.615 621.246C841.615 622.496 842.629 623.51 843.879 623.51H850.219C851.469 623.51 852.483 622.496 852.483 621.246C852.483 619.995 851.469 618.981 850.219 618.981Z" fill="#FFD600"/>
<path d="M850.219 601.773H843.879C842.629 601.773 841.615 602.787 841.615 604.038C841.615 605.288 842.629 606.302 843.879 606.302H850.219C851.469 606.302 852.483 605.288 852.483 604.038C852.483 602.787 851.469 601.773 850.219 601.773Z" fill="#FFD600"/>
<path d="M850.219 637.094H843.879C842.629 637.094 841.615 638.108 841.615 639.358C841.615 640.609 842.629 641.623 843.879 641.623H850.219C851.469 641.623 852.483 640.609 852.483 639.358C852.483 638.108 851.469 637.094 850.219 637.094Z" fill="#FFD600"/>
<path d="M871.95 583.66H865.611C864.36 583.66 863.347 584.673 863.347 585.924C863.347 587.174 864.36 588.188 865.611 588.188H871.95C873.201 588.188 874.215 587.174 874.215 585.924C874.215 584.673 873.201 583.66 871.95 583.66Z" fill="#FFD600"/>
<path d="M871.95 618.981H865.611C864.36 618.981 863.347 619.995 863.347 621.246C863.347 622.496 864.36 623.51 865.611 623.51H871.95C873.201 623.51 874.215 622.496 874.215 621.246C874.215 619.995 873.201 618.981 871.95 618.981Z" fill="#FFD600"/>
<path d="M871.95 601.773H865.611C864.36 601.773 863.347 602.787 863.347 604.038C863.347 605.288 864.36 606.302 865.611 606.302H871.95C873.201 606.302 874.215 605.288 874.215 604.038C874.215 602.787 873.201 601.773 871.95 601.773Z" fill="#FFD600"/>
<path d="M871.95 637.094H865.611C864.36 637.094 863.347 638.108 863.347 639.358C863.347 640.609 864.36 641.623 865.611 641.623H871.95C873.201 641.623 874.215 640.609 874.215 639.358C874.215 638.108 873.201 637.094 871.95 637.094Z" fill="#FFD600"/>
<path d="M490.661 574.603H484.322C483.071 574.603 482.058 575.616 482.058 576.867C482.058 578.117 483.071 579.131 484.322 579.131H490.661C491.912 579.131 492.926 578.117 492.926 576.867C492.926 575.616 491.912 574.603 490.661 574.603Z" fill="#FFD600"/>
<path d="M479.793 583.661H473.453C472.203 583.661 471.189 584.674 471.189 585.925C471.189 587.175 472.203 588.189 473.453 588.189H479.793C481.043 588.189 482.057 587.175 482.057 585.925C482.057 584.674 481.043 583.661 479.793 583.661Z" fill="#FFD600"/>
<path d="M479.793 618.981H473.453C472.203 618.981 471.189 619.995 471.189 621.246C471.189 622.496 472.203 623.51 473.453 623.51H479.793C481.043 623.51 482.057 622.496 482.057 621.246C482.057 619.995 481.043 618.981 479.793 618.981Z" fill="#FFD600"/>
<path d="M479.793 601.773H473.453C472.203 601.773 471.189 602.787 471.189 604.038C471.189 605.288 472.203 606.302 473.453 606.302H479.793C481.043 606.302 482.057 605.288 482.057 604.038C482.057 602.787 481.043 601.773 479.793 601.773Z" fill="#FFD600"/>
<path d="M479.793 637.094H473.453C472.203 637.094 471.189 638.108 471.189 639.358C471.189 640.609 472.203 641.623 473.453 641.623H479.793C481.043 641.623 482.057 640.609 482.057 639.358C482.057 638.108 481.043 637.094 479.793 637.094Z" fill="#FFD600"/>
<path d="M490.661 592.717H484.322C483.071 592.717 482.058 593.73 482.058 594.981C482.058 596.231 483.071 597.245 484.322 597.245H490.661C491.912 597.245 492.926 596.231 492.926 594.981C492.926 593.73 491.912 592.717 490.661 592.717Z" fill="#FFD600"/>
<path d="M490.661 609.924H484.322C483.071 609.924 482.058 610.938 482.058 612.188C482.058 613.438 483.071 614.452 484.322 614.452H490.661C491.912 614.452 492.926 613.438 492.926 612.188C492.926 610.938 491.912 609.924 490.661 609.924Z" fill="#FFD600"/>
<path d="M490.661 628.038H484.322C483.071 628.038 482.058 629.052 482.058 630.302C482.058 631.553 483.071 632.566 484.322 632.566H490.661C491.912 632.566 492.926 631.553 492.926 630.302C492.926 629.052 491.912 628.038 490.661 628.038Z" fill="#FFD600"/>
<path d="M490.661 646.15H484.322C483.071 646.15 482.058 647.164 482.058 648.415C482.058 649.665 483.071 650.679 484.322 650.679H490.661C491.912 650.679 492.926 649.665 492.926 648.415C492.926 647.164 491.912 646.15 490.661 646.15Z" fill="#FFD600"/>
<path d="M468.927 592.717H462.587C461.337 592.717 460.323 593.73 460.323 594.981C460.323 596.231 461.337 597.245 462.587 597.245H468.927C470.177 597.245 471.191 596.231 471.191 594.981C471.191 593.73 470.177 592.717 468.927 592.717Z" fill="#FFD600"/>
<path d="M468.927 609.924H462.587C461.337 609.924 460.323 610.938 460.323 612.188C460.323 613.438 461.337 614.452 462.587 614.452H468.927C470.177 614.452 471.191 613.438 471.191 612.188C471.191 610.938 470.177 609.924 468.927 609.924Z" fill="#FFD600"/>
<path d="M468.927 628.038H462.587C461.337 628.038 460.323 629.052 460.323 630.302C460.323 631.553 461.337 632.566 462.587 632.566H468.927C470.177 632.566 471.191 631.553 471.191 630.302C471.191 629.052 470.177 628.038 468.927 628.038Z" fill="#FFD600"/>
<path d="M512.396 592.717H506.056C504.806 592.717 503.792 593.73 503.792 594.981C503.792 596.231 504.806 597.245 506.056 597.245H512.396C513.646 597.245 514.66 596.231 514.66 594.981C514.66 593.73 513.646 592.717 512.396 592.717Z" fill="#FFD600"/>
<path d="M512.396 628.038H506.056C504.806 628.038 503.792 629.052 503.792 630.302C503.792 631.553 504.806 632.566 506.056 632.566H512.396C513.646 632.566 514.66 631.553 514.66 630.302C514.66 629.052 513.646 628.038 512.396 628.038Z" fill="#FFD600"/>
<path d="M512.396 609.924H506.056C504.806 609.924 503.792 610.938 503.792 612.188C503.792 613.438 504.806 614.452 506.056 614.452H512.396C513.646 614.452 514.66 613.438 514.66 612.188C514.66 610.938 513.646 609.924 512.396 609.924Z" fill="#FFD600"/>
<path d="M512.396 646.15H506.056C504.806 646.15 503.792 647.164 503.792 648.415C503.792 649.665 504.806 650.679 506.056 650.679H512.396C513.646 650.679 514.66 649.665 514.66 648.415C514.66 647.164 513.646 646.15 512.396 646.15Z" fill="#FFD600"/>
<path d="M534.134 592.717H527.794C526.544 592.717 525.53 593.73 525.53 594.981C525.53 596.231 526.544 597.245 527.794 597.245H534.134C535.384 597.245 536.398 596.231 536.398 594.981C536.398 593.73 535.384 592.717 534.134 592.717Z" fill="#FFD600"/>
<path d="M534.134 609.925H527.794C526.544 609.925 525.53 610.938 525.53 612.189C525.53 613.439 526.544 614.453 527.794 614.453H534.134C535.384 614.453 536.398 613.439 536.398 612.189C536.398 610.938 535.384 609.925 534.134 609.925Z" fill="#FFD600"/>
<path d="M534.134 628.038H527.794C526.544 628.038 525.53 629.052 525.53 630.302C525.53 631.553 526.544 632.566 527.794 632.566H534.134C535.384 632.566 536.398 631.553 536.398 630.302C536.398 629.052 535.384 628.038 534.134 628.038Z" fill="#FFD600"/>
<path d="M512.396 574.603H506.056C504.806 574.603 503.792 575.616 503.792 576.867C503.792 578.117 504.806 579.131 506.056 579.131H512.396C513.646 579.131 514.66 578.117 514.66 576.867C514.66 575.616 513.646 574.603 512.396 574.603Z" fill="#FFD600"/>
<path d="M501.532 583.661H495.192C493.942 583.661 492.928 584.674 492.928 585.925C492.928 587.175 493.942 588.189 495.192 588.189H501.532C502.783 588.189 503.796 587.175 503.796 585.925C503.796 584.674 502.783 583.661 501.532 583.661Z" fill="#FFD600"/>
<path d="M501.532 618.981H495.192C493.942 618.981 492.928 619.995 492.928 621.246C492.928 622.496 493.942 623.51 495.192 623.51H501.532C502.783 623.51 503.796 622.496 503.796 621.246C503.796 619.995 502.783 618.981 501.532 618.981Z" fill="#FFD600"/>
<path d="M501.532 601.773H495.192C493.942 601.773 492.928 602.787 492.928 604.038C492.928 605.288 493.942 606.302 495.192 606.302H501.532C502.783 606.302 503.796 605.288 503.796 604.038C503.796 602.787 502.783 601.773 501.532 601.773Z" fill="#FFD600"/>
<path d="M501.532 637.094H495.192C493.942 637.094 492.928 638.108 492.928 639.358C492.928 640.609 493.942 641.623 495.192 641.623H501.532C502.783 641.623 503.796 640.609 503.796 639.358C503.796 638.108 502.783 637.094 501.532 637.094Z" fill="#FFD600"/>
<path d="M523.265 583.661H516.926C515.675 583.661 514.662 584.674 514.662 585.925C514.662 587.175 515.675 588.189 516.926 588.189H523.265C524.516 588.189 525.53 587.175 525.53 585.925C525.53 584.674 524.516 583.661 523.265 583.661Z" fill="#FFD600"/>
<path d="M523.265 618.981H516.926C515.675 618.981 514.662 619.995 514.662 621.246C514.662 622.496 515.675 623.51 516.926 623.51H523.265C524.516 623.51 525.53 622.496 525.53 621.246C525.53 619.995 524.516 618.981 523.265 618.981Z" fill="#FFD600"/>
<path d="M523.265 601.773H516.926C515.675 601.773 514.662 602.787 514.662 604.038C514.662 605.288 515.675 606.302 516.926 606.302H523.265C524.516 606.302 525.53 605.288 525.53 604.038C525.53 602.787 524.516 601.773 523.265 601.773Z" fill="#FFD600"/>
<path d="M523.265 637.094H516.926C515.675 637.094 514.662 638.108 514.662 639.358C514.662 640.609 515.675 641.623 516.926 641.623H523.265C524.516 641.623 525.53 640.609 525.53 639.358C525.53 638.108 524.516 637.094 523.265 637.094Z" fill="#FFD600"/>
<path d="M899.635 685.062C900.367 684.986 901.099 684.91 901.855 684.834C912.247 683.761 924.559 682.489 930.811 681.019C942.583 678.248 947.119 671.962 949.375 668.792C952.291 664.717 954.091 659.349 954.811 657.019C956.623 651.132 957.475 644.792 957.523 638.905C957.679 623.509 957.895 591.54 957.523 586.83C957.079 580.942 955.723 575.509 955.267 573.698C954.811 571.886 951.643 564.577 946.663 561.019C944.119 559.207 943.495 558.754 939.871 556.942L910.291 547.297C920.695 553.66 927.643 565.132 927.643 578.226V649.773C927.643 666.951 915.691 681.337 899.635 685.062Z" stroke="#FFD600" stroke-width="3"/>
<path fill-rule="evenodd" clip-rule="evenodd" d="M235.192 70.1168C224.814 74.737 217.501 77.9932 212.127 81.801C211.036 82.7994 209.996 83.7331 208.998 84.6295L208.958 84.6657C201.709 91.1797 196.621 95.7503 188.911 109.124C177.917 128.197 173.452 157.043 174.78 179.095C175.841 196.736 183.612 236.012 188.743 254.958L188.742 254.959C183.61 236.015 175.839 196.735 174.777 179.094C173.45 157.042 177.915 128.197 188.91 109.123C196.619 95.7495 201.707 91.1788 208.957 84.6649C209.966 83.7574 211.018 82.8123 212.125 81.8003L168.161 101.374C165.224 102.682 162.609 104.61 160.612 107.13C155.842 113.148 146.385 125.866 138.261 141.578C115.45 185.697 122.402 245.812 129.689 281.251L122.604 284.405L133.121 308.026L134.303 307.5L149.924 307.621L157.008 304.468L159.637 310.372L199.794 292.494L197.165 286.588L221.969 275.545L212.503 254.286C212.06 252.577 211.385 250.541 210.56 248.047C207.71 239.428 203.052 225.345 199.865 200.474C194.719 160.309 201.128 123.845 209.782 108.319C215.673 97.748 221.911 90.7423 228.281 85.5119C230.75 83.4844 233.351 81.6482 236.06 79.9938C236.985 79.4285 237.923 78.8843 238.872 78.361C245.33 74.8028 252.324 72.2097 259.55 70.464C248.154 73.2177 237.334 78.0791 228.284 85.5109L228.108 85.6561C236.303 84.5234 245.083 83.7605 256.547 86.2055C277.853 90.7487 299.302 99.5961 322.727 120.419C334.306 130.713 361.482 164.022 372.125 180.512L373.38 181.244L366.699 184.22L376.164 205.479L389.453 205.222L394.801 202.842L396.904 207.565L383.087 213.718L391.59 232.814C392.634 235.159 394.389 240.72 393.057 244.203C391.725 247.687 386.356 258.829 383.838 263.963C382.608 267.181 380.98 271.906 379.658 275.745L379.242 276.953C378.864 277.974 378.505 279.004 378.167 280.042C378.469 279.188 378.835 278.131 379.242 276.953C384.47 262.827 393.514 250.357 405.574 240.683C375.651 265.152 364.486 307.467 380.966 344.482C400.714 388.838 452.68 408.785 497.036 389.037C503.588 386.119 509.609 382.499 515.046 378.304L515.099 378.634C509.648 382.612 503.683 386.085 497.248 388.95C491.658 391.439 485.964 393.356 480.235 394.729L491.818 408.72L518.159 396.992L518.145 396.897L523.646 388.174L521.453 372.882C521.071 373.23 520.685 373.574 520.295 373.915C547.712 349.106 557.448 308.583 541.591 272.967C540.766 271.116 539.886 269.306 538.952 267.541C539.963 269.43 540.914 271.371 541.799 273.361C553.349 299.301 551.381 327.817 538.927 350.95C546.177 338.944 552.165 325.501 554.738 318.748C559.207 307.016 559.843 292.119 555.636 274.507C551.43 256.895 539.693 241.418 531.576 234.071C524.78 227.92 507.013 216.998 490.806 213.252C487.108 212.398 484.124 211.74 481.482 211.157L481.479 211.156H481.476C477.005 210.169 473.513 209.399 469.199 208.258C463.707 206.807 460.594 200.723 460.63 199.896L454.747 186.684L437.771 189.37L446.369 208.681C449.537 215.795 451.452 217.378 454.38 218.51C456.13 219.188 458.899 219.991 461.938 220.792C461.813 220.792 461.686 220.791 461.561 220.789C458.385 219.964 455.464 219.128 453.651 218.43C450.751 217.312 448.853 215.748 445.721 208.713L437.219 189.617L432.336 191.79L430.233 187.066L451.492 177.6L451.489 177.601L443.16 158.894L430.309 158.95C427.313 154.082 411.873 130.793 372.285 98.2358C311.67 48.3846 258.729 62.5062 258.729 62.5062C258.729 62.5062 248.215 64.3189 235.222 70.1032L235.192 70.1168ZM419.764 160.593L419.371 159.486L419.937 160.516L419.764 160.593ZM432.102 180.573L451.479 177.602L432.645 179.766L432.856 180.238L432.102 180.573Z" fill="#FFFA80"/>
<path fill-rule="evenodd" clip-rule="evenodd" d="M151.915 340.701L141.924 318.261L205.702 289.864L225.52 286.702L232.357 302.055C232.313 303.018 235.932 310.087 242.339 311.763C247.372 313.08 251.445 313.967 256.661 315.104L256.664 315.105C259.747 315.777 263.231 316.536 267.546 317.521C286.452 321.841 307.164 334.505 315.081 341.644C324.538 350.171 338.202 368.146 343.072 388.62C347.943 409.094 347.166 426.423 341.925 440.078C338.907 447.936 331.887 463.585 323.398 477.567C337.986 450.634 340.346 417.463 326.925 387.318C312.747 355.475 285.181 335.031 254.93 328.966C285.76 335.569 313.119 356.31 326.925 387.318C345.078 428.09 334.36 474.398 303.568 503.321L295.157 510.428C297.627 508.576 299.996 506.622 302.262 504.575L304.676 521.703L298.479 531.443L298.499 531.565L298.362 531.625L298.344 531.655L298.34 531.635L269.688 544.393L256.713 528.368C209.965 539.272 160.564 515.879 140.316 470.402C129.605 446.344 128.946 420.359 136.531 397.156C136.944 393.221 140.669 382.751 142.75 377.331C145.722 371.291 152.058 358.185 153.63 354.089C155.203 349.992 153.142 343.456 151.915 340.701ZM243.754 327.376L234.736 326.47C233.791 326.279 232.941 326.094 232.169 325.914C233.156 326.18 234.18 326.447 235.22 326.713C236.957 327.166 240.978 327.333 243.754 327.376Z" fill="#FFFA80"/>
<path d="M199.532 253.914L176.824 256.949L166.307 233.328L190.067 232.656L199.532 253.914Z" stroke="#FFD600" stroke-width="3" stroke-linejoin="round"/>
<path d="M119.488 296.629L129.479 319.07C130.706 321.826 132.767 328.362 131.194 332.458C129.622 336.555 123.286 349.659 120.314 355.7C118.233 361.121 114.508 371.591 114.095 375.526C106.51 398.729 107.169 424.713 117.88 448.771C138.128 494.249 187.53 517.641 234.278 506.738L247.251 522.763L276.063 509.935L272.714 488.804L281.132 481.69C311.923 452.768 322.642 406.46 304.488 365.687C289.273 331.511 257.593 309.808 222.949 305.758C220.446 305.764 214.909 305.636 212.785 305.083C208.707 304.042 204.888 302.973 202.584 302.089C199.17 300.778 196.938 298.941 193.256 290.674L183.265 268.234L119.488 296.629Z" stroke="#FFD600" stroke-width="3" stroke-linejoin="round"/>
<path d="M288.715 372.177C307.974 415.434 288.521 466.113 245.264 485.372L246.606 488.386C291.528 468.386 311.731 415.756 291.729 370.835L288.715 372.177ZM175.521 328.726C218.777 309.466 269.457 328.921 288.715 372.177L291.729 370.835C271.729 325.914 219.1 305.711 174.179 325.711L175.521 328.726ZM132.069 441.921C112.81 398.664 132.264 347.985 175.521 328.726L174.179 325.711C129.257 345.711 109.054 398.341 129.055 443.263L132.069 441.921ZM245.264 485.372C202.007 504.631 151.329 485.177 132.069 441.921L129.055 443.263C149.055 488.185 201.685 508.387 246.606 488.386L245.264 485.372ZM268.907 380.996C283.295 413.313 268.761 451.176 236.443 465.564L237.787 468.579C271.768 453.45 287.051 413.636 271.922 379.654L268.907 380.996ZM184.339 348.533C216.656 334.145 254.518 348.679 268.907 380.996L271.922 379.654C256.791 345.672 216.978 330.389 182.996 345.519L184.339 348.533ZM151.875 433.102C137.487 400.784 152.021 362.922 184.339 348.533L182.996 345.519C149.014 360.648 133.731 400.462 148.861 434.444L151.875 433.102ZM236.443 465.564C204.127 479.953 166.263 465.419 151.875 433.102L148.861 434.444C163.991 468.426 203.804 483.709 237.787 468.579L236.443 465.564Z" fill="#FFD600"/>
<path d="M237.34 467.575C270.769 452.692 285.802 413.528 270.919 380.1C256.036 346.672 216.872 331.638 183.444 346.521C150.016 361.405 134.982 400.569 149.865 433.997C164.748 467.425 203.912 482.458 237.34 467.575Z" stroke="#FFD600" stroke-width="3" stroke-linejoin="round"/>
<path d="M166.308 233.327L100.168 262.774L110.685 286.396L176.825 256.948L166.308 233.327Z" stroke="#FFD600" stroke-width="3" stroke-linejoin="round"/>
<path d="M115.825 119.948C93.0133 164.068 99.9667 224.185 107.253 259.623L166.306 233.331C161.175 214.388 153.403 175.106 152.341 157.464C151.014 135.412 155.478 106.566 166.473 87.4924C175.257 72.256 180.637 68.4457 189.689 60.1699L145.725 79.7439C142.787 81.0518 140.173 82.9793 138.176 85.4994C133.406 91.5178 123.949 104.236 115.825 119.948Z" stroke="#FFD600" stroke-width="3" stroke-linejoin="round"/>
<path d="M360.651 192.086L369.153 211.183C370.197 213.529 371.952 219.089 370.62 222.573C369.289 226.057 363.92 237.198 361.401 242.333C359.639 246.944 357.059 254.652 355.732 258.412C363.064 235.878 379.934 217.221 403.254 206.84C415.167 201.535 427.64 199.143 439.878 199.354C436.415 198.466 433.172 197.553 431.215 196.799C428.314 195.681 426.417 194.118 423.285 187.082L414.782 167.985L360.651 192.086Z" stroke="#FFD600" stroke-width="3" stroke-linejoin="round"/>
<path d="M304.488 365.687C317.909 395.832 315.549 429.003 300.962 455.937C309.449 441.955 316.471 426.306 319.487 418.448C324.728 404.792 325.505 387.464 320.635 366.99C315.764 346.514 302.101 328.54 292.644 320.014C284.726 312.875 264.015 300.211 245.109 295.891C240.792 294.905 237.308 294.145 234.225 293.473H234.224C229.009 292.337 224.935 291.449 219.902 290.133C213.495 288.456 209.876 281.388 209.919 280.425L203.084 265.071L183.265 268.234L193.255 290.675C196.937 298.941 199.169 300.778 202.583 302.088C204.887 302.973 207.22 303.811 212.298 304.84L222.669 305.882C256.67 309.142 288.788 330.425 304.488 365.687Z" stroke="#FFD600" stroke-width="3" stroke-linejoin="round"/>
<path d="M418.401 201.97C458.769 192.021 501.774 212.225 519.363 251.731C530.912 277.671 528.944 306.187 516.49 329.32C523.74 317.313 529.73 303.871 532.302 297.118C536.771 285.386 537.407 270.489 533.2 252.877C528.994 235.265 517.257 219.787 509.139 212.441C502.343 206.29 484.576 195.367 468.371 191.622C464.669 190.766 461.684 190.109 459.041 189.524C454.569 188.539 451.078 187.769 446.762 186.628C441.27 185.177 438.158 179.093 438.193 178.266L432.311 165.053L415.334 167.74L423.932 187.051C427.1 194.165 429.016 195.747 431.943 196.88C433.919 197.645 437.192 198.57 440.688 199.471C433.285 199.335 425.8 200.146 418.401 201.97Z" stroke="#FFD600" stroke-width="3" stroke-linejoin="round"/>
<path d="M457.8 373.098L469.384 387.088L495.725 375.361L492.986 356.768C487.447 360.844 481.375 364.398 474.814 367.319C469.223 369.809 463.529 371.726 457.8 373.098Z" stroke="#FFD600" stroke-width="3" stroke-linejoin="round"/>
<path d="M272.562 488.917L275.907 510.025L282.24 500.073L279.824 482.945C277.511 485.035 275.089 487.028 272.562 488.917Z" stroke="#FFD600" stroke-width="3" stroke-linejoin="round"/>
<path d="M492.593 356.559L495.622 375.407L501.211 366.544L499.019 351.252C496.972 353.11 494.829 354.882 492.593 356.559Z" stroke="#FFD600" stroke-width="3" stroke-linejoin="round"/>
<path d="M127.486 285.991L111.865 285.87L176.824 256.949L199.532 253.914L127.486 285.991Z" stroke="#FFD600" stroke-width="3" stroke-linejoin="round"/>
<path d="M367.019 183.592L353.728 183.848L409.665 158.943L429.058 155.97L367.019 183.592Z" stroke="#FFD600" stroke-width="3" stroke-linejoin="round"/>
<path d="M177.358 270.863L137.202 288.742L131.745 276.485L171.901 258.607L177.358 270.863Z" fill="#FFD600"/>
<path d="M409.9 170.16L374.468 185.935L370.261 176.487L405.693 160.711L409.9 170.16Z" fill="#FFD600"/>
<path d="M234.111 64.5748C222.646 62.1299 213.867 62.8927 205.672 64.0254L205.848 63.8802C219.1 52.998 236.145 47.6271 253.241 46.3149C257.241 46.0079 259.78 45.9473 259.78 45.9473C268.445 46.3353 275.721 47.7014 287.396 50.7556C335.449 63.3256 375.472 108.72 396.931 137.847L397.328 138.963L350.945 159.614L349.688 158.88C339.046 142.391 311.87 109.082 300.291 98.7887C276.866 77.9654 255.416 69.118 234.111 64.5748Z" stroke="#FFD600" stroke-width="3" stroke-linejoin="round"/>
<path d="M517.646 252.008C537.024 295.53 517.451 346.522 473.928 365.9L475.27 368.914C520.458 348.795 540.78 295.854 520.661 250.666L517.646 252.008ZM403.755 208.288C447.278 188.911 498.269 208.485 517.646 252.008L520.661 250.666C500.542 205.478 447.601 185.155 402.413 205.274L403.755 208.288ZM360.036 322.18C340.659 278.657 360.232 227.667 403.755 208.288L402.413 205.274C357.225 225.393 336.902 278.335 357.021 323.523L360.036 322.18ZM473.928 365.9C430.404 385.277 379.414 365.704 360.036 322.18L357.021 323.523C377.14 368.71 430.082 389.033 475.27 368.914L473.928 365.9ZM483.074 265.985C494.371 291.357 482.961 321.082 457.589 332.379L458.931 335.393C485.967 323.356 498.127 291.679 486.09 264.642L483.074 265.985ZM416.682 240.498C442.053 229.203 471.779 240.613 483.074 265.985L486.09 264.642C474.052 237.605 442.376 225.446 415.339 237.484L416.682 240.498ZM391.195 306.892C379.899 281.521 391.309 251.795 416.682 240.498L415.339 237.484C388.302 249.522 376.142 281.197 388.181 308.235L391.195 306.892ZM457.589 332.379C432.217 343.675 402.492 332.265 391.195 306.892L388.181 308.235C400.218 335.272 431.894 347.432 458.931 335.393L457.589 332.379Z" fill="#FFD600"/>
<path d="M429.053 155.971L410.205 158.136L400.95 137.349L420.724 137.264L429.053 155.971Z" stroke="#FFD600" stroke-width="3" stroke-linejoin="round"/>
<path d="M400.953 137.348L344.262 162.589L353.727 183.848L410.419 158.608L400.953 137.348Z" stroke="#FFD600" stroke-width="3" stroke-linejoin="round"/>
<path d="M212.755 48.4863C202.377 53.1066 195.064 56.3629 189.69 60.1705C188.598 61.169 187.558 62.1027 186.562 62.9991L186.521 63.0354C179.271 69.5492 174.184 74.1199 166.475 87.4933C155.479 106.567 151.015 135.413 152.342 157.465C153.403 175.106 161.175 214.384 166.306 233.329L190.065 232.655C189.622 230.947 188.949 228.911 188.124 226.417C185.272 217.798 180.614 203.714 177.428 178.843C172.283 138.679 178.691 102.215 187.345 86.6882C193.235 76.1177 199.475 69.1119 205.844 63.8816C208.313 61.8539 210.913 60.0177 213.622 58.3634C214.548 57.798 215.486 57.2539 216.435 56.7306C227.621 50.5671 240.415 47.2995 253.239 46.3154C257.239 46.0085 259.778 45.9477 259.778 45.9477C268.441 46.3358 275.719 47.7019 287.394 50.7561C335.447 63.3261 375.469 108.72 396.929 137.847L397.5 138.886L400.951 137.349L407.871 137.318C404.875 132.452 389.435 109.163 349.848 76.6055C289.233 26.7542 236.292 40.8759 236.292 40.8759C236.292 40.8759 225.777 42.6885 212.785 48.4728L212.755 48.4863Z" stroke="#FFD600" stroke-width="3" stroke-linejoin="round"/>
<path d="M1611.53 -9L1368.86 38.0185L1400.64 202.042L1525.28 177.893C1530.02 187.463 1536.22 196.917 1540.53 202.749C1568.59 233.224 1626.86 298.474 1635.44 315.667C1641.53 327.878 1648.08 367.399 1652.67 401.286C1619.18 390.669 1549.96 369.208 1540.98 368.298C1529.74 367.161 1524.28 371.558 1521.64 374.725C1518.99 377.892 1516.38 385.743 1518.94 394.69C1520.99 401.848 1530.96 408.905 1535.69 411.539L1578.78 430.313L1704.88 473.25L1953.18 526.099C1953.64 526.123 1955.96 525.693 1961.56 523.782C1967.83 521.646 1972.33 515.452 1975.33 511.323C1975.69 510.835 1976.02 510.376 1976.33 509.956C1979.29 505.979 1982.86 495.7 1984.03 489.151C1985.2 482.602 1984.7 467.059 1979.17 450.339C1972.84 431.203 1962.32 417.878 1955.65 410.277C1937.21 405.193 1878.49 393.557 1862.37 390.364C1859.82 389.859 1858.34 389.565 1858.25 389.542C1839.02 384.446 1836.71 381.706 1827.41 370.696C1826.07 369.109 1824.58 367.35 1822.88 365.387C1815.27 356.612 1798.32 330.831 1783.17 307.777C1771.42 289.906 1760.75 273.673 1756.34 268.272C1746.25 255.902 1719.33 228.057 1712.51 221.641C1705.68 215.226 1688.15 202.743 1680.45 197.383C1678.24 195.846 1674.24 192.878 1669.42 189.298C1657.44 180.395 1640.36 167.704 1632.9 163.779C1628.17 161.289 1624.86 159.825 1622.71 159.014L1643.31 155.024L1611.53 -9Z" fill="#FFFA80"/>
<path d="M1582.52 -26.0006L1339.86 21.0181L1371.64 185.042L1614.31 138.023L1582.52 -26.0006Z" stroke="#FFD600" stroke-width="3"/>
<path d="M1551.19 82.6858C1556.21 81.7118 1566.38 79.2136 1569.91 77.2312C1572.73 75.6453 1573.69 72.0264 1573.81 70.4152C1573.44 67.7454 1572.48 61.7544 1571.62 59.1486C1570.56 55.8914 1569.65 53.469 1560.81 50.4211C1551.96 47.3732 1527.11 46.9925 1522.58 48.3026C1518.96 49.3508 1506.57 48.6631 1500.83 48.1883L1475.31 41.7539L1468.32 40.3503C1465.89 39.8634 1463.4 39.8545 1460.97 40.3252C1454.33 41.6114 1440.59 44.2742 1435.82 45.1977C1428.28 46.659 1423.69 47.1159 1418.98 49.759C1414.28 52.4022 1386.96 70.6837 1382.08 74.6599C1377.2 78.6361 1372.71 80.1251 1369.21 84.5135C1365.3 89.4285 1366.36 97.4767 1367.34 101.762C1367.85 104.404 1369.63 108.677 1372.29 111.626C1374.95 114.574 1379.63 115.833 1383.4 115.102C1387.98 114.214 1392.94 113.253 1398.19 112.237" stroke="#FFD600" stroke-width="3" stroke-linecap="round"/>
<path d="M1469.76 48.3828L1469.42 49.8432M1469.42 49.8432L1469.43 49.8458L1469.46 49.8537L1469.6 49.8852C1469.71 49.913 1469.89 49.9542 1470.11 50.0076C1470.56 50.1144 1471.21 50.27 1472 50.4648C1473.6 50.8544 1475.79 51.4004 1478.19 52.0259C1480.89 52.7283 1483.81 53.5237 1486.43 54.306L1406.08 69.8741L1425.9 56.274L1455.24 50.589C1460.92 49.4881 1464.5 49.3208 1466.62 49.4105C1467.67 49.4553 1468.36 49.5638 1468.75 49.6492C1468.95 49.6919 1469.07 49.7286 1469.13 49.7486C1469.15 49.7555 1469.17 49.7604 1469.17 49.7628C1469.25 49.7966 1469.33 49.8235 1469.42 49.8432ZM1469.14 49.7483C1469.14 49.7487 1469.14 49.7491 1469.14 49.7496" stroke="#FFD600" stroke-width="3" stroke-linecap="round" stroke-linejoin="round"/>
<path d="M1501.1 10.2903L1574.19 -3.87109" stroke="#FFD600" stroke-width="3" stroke-linecap="round" stroke-linejoin="round"/>
<path d="M1462.86 140.589L1563.98 121" stroke="#FFD600" stroke-width="3" stroke-linecap="round" stroke-linejoin="round"/>
<path d="M1464.86 149.397L1599.86 123" stroke="#FFD600" stroke-width="3" stroke-linecap="round" stroke-linejoin="round"/>
<path d="M1503.01 20.1727L1576.11 6.01123" stroke="#FFD600" stroke-width="3" stroke-linecap="round" stroke-linejoin="round"/>
<path d="M1504.93 30.055L1578.02 15.8936" stroke="#FFD600" stroke-width="3" stroke-linecap="round" stroke-linejoin="round"/>
<path d="M1414.24 116.815C1422.2 115.273 1427.4 107.57 1425.86 99.6111C1424.32 91.6517 1416.62 86.4496 1408.66 87.9918C1400.7 89.534 1395.49 97.2365 1397.04 105.196C1398.58 113.155 1406.28 118.357 1414.24 116.815Z" stroke="#FFD600" stroke-width="3"/>
<path d="M1536.94 93.0407C1544.9 91.4985 1550.1 83.796 1548.56 75.8367C1547.02 67.8773 1539.32 62.6752 1531.36 64.2174C1523.4 65.7596 1518.2 73.4621 1519.74 81.4214C1521.28 89.3808 1528.98 94.5829 1536.94 93.0407Z" stroke="#FFD600" stroke-width="3"/>
<path fill-rule="evenodd" clip-rule="evenodd" d="M1415.2 121.756C1425.88 119.685 1432.87 109.342 1430.8 98.6542C1428.73 87.9659 1418.38 80.9802 1407.7 83.0511C1397.01 85.1221 1390.02 95.4655 1392.09 106.153C1394.16 116.842 1404.51 123.827 1415.2 121.756ZM1414.24 116.815C1422.2 115.273 1427.4 107.57 1425.86 99.6115C1424.32 91.6521 1416.61 86.45 1408.65 87.9922C1400.69 89.5344 1395.49 97.2369 1397.03 105.196C1398.58 113.155 1406.28 118.357 1414.24 116.815Z" fill="#FFD600"/>
<path d="M1429.33 98.9398C1431.24 108.815 1424.78 118.371 1414.91 120.285L1415.48 123.23C1426.98 121.001 1434.5 109.871 1432.27 98.3692L1429.33 98.9398ZM1407.98 84.524C1417.86 82.6107 1427.41 89.0648 1429.33 98.9398L1432.27 98.3692C1430.04 86.8676 1418.91 79.3503 1407.41 81.5788L1407.98 84.524ZM1393.57 105.869C1391.65 95.9937 1398.11 86.4374 1407.98 84.524L1407.41 81.5788C1395.91 83.8074 1388.39 94.9378 1390.62 106.44L1393.57 105.869ZM1414.91 120.285C1405.03 122.198 1395.48 115.744 1393.57 105.869L1390.62 106.44C1392.85 117.941 1403.98 125.459 1415.48 123.23L1414.91 120.285ZM1424.38 99.8971C1425.77 107.043 1421.1 113.959 1413.95 115.344L1414.52 118.289C1423.3 116.589 1429.03 108.099 1427.33 99.3264L1424.38 99.8971ZM1408.94 89.4651C1416.08 88.0805 1423 92.7511 1424.38 99.8971L1427.33 99.3264C1425.63 90.5538 1417.14 84.8201 1408.37 86.5199L1408.94 89.4651ZM1398.51 104.912C1397.12 97.7652 1401.79 90.8497 1408.94 89.4651L1408.37 86.5199C1399.6 88.2197 1393.86 96.7092 1395.56 105.482L1398.51 104.912ZM1413.95 115.344C1406.81 116.728 1399.89 112.058 1398.51 104.912L1395.56 105.482C1397.26 114.255 1405.75 119.989 1414.52 118.289L1413.95 115.344Z" fill="#FFD600"/>
<path fill-rule="evenodd" clip-rule="evenodd" d="M1537.9 97.9814C1548.59 95.9105 1555.57 85.5671 1553.5 74.8788C1551.43 64.1905 1541.09 57.2048 1530.4 59.2757C1519.71 61.3467 1512.73 71.6901 1514.8 82.3783C1516.87 93.0666 1527.21 100.052 1537.9 97.9814ZM1536.94 93.04C1544.9 91.4978 1550.1 83.7953 1548.56 75.8359C1547.02 67.8766 1539.32 62.6744 1531.36 64.2166C1523.4 65.7588 1518.2 73.4613 1519.74 81.4207C1521.28 89.38 1528.98 94.5822 1536.94 93.04Z" fill="#FFD600"/>
<path d="M1552.03 75.1644C1553.94 85.0394 1547.49 94.5957 1537.62 96.5091L1538.19 99.4543C1549.69 97.2258 1557.2 86.0953 1554.98 74.5938L1552.03 75.1644ZM1530.69 60.7487C1540.56 58.8353 1550.12 65.2895 1552.03 75.1644L1554.98 74.5938C1552.75 63.0922 1541.62 55.5749 1530.12 57.8034L1530.69 60.7487ZM1516.27 82.0933C1514.36 72.2183 1520.81 62.662 1530.69 60.7487L1530.12 57.8034C1518.61 60.032 1511.1 71.1624 1513.33 82.664L1516.27 82.0933ZM1537.62 96.5091C1527.74 98.4224 1518.18 91.9683 1516.27 82.0933L1513.33 82.664C1515.55 94.1656 1526.68 101.683 1538.19 99.4543L1537.62 96.5091ZM1547.09 76.1216C1548.47 83.2676 1543.8 90.1831 1536.66 91.5677L1537.23 94.5129C1546 92.8131 1551.73 84.3235 1550.03 75.5509L1547.09 76.1216ZM1531.64 65.6895C1538.79 64.3049 1545.71 68.9755 1547.09 76.1216L1550.03 75.5509C1548.34 66.7782 1539.85 61.0445 1531.07 62.7443L1531.64 65.6895ZM1521.21 81.1357C1519.83 73.9896 1524.5 67.0742 1531.64 65.6895L1531.07 62.7443C1522.3 64.4441 1516.57 72.9337 1518.27 81.7063L1521.21 81.1357ZM1536.66 91.5677C1529.51 92.9523 1522.6 88.2817 1521.21 81.1357L1518.27 81.7063C1519.97 90.479 1528.46 96.2127 1537.23 94.5129L1536.66 91.5677Z" fill="#FFD600"/>
<path d="M1412.49 107.757C1415.44 107.184 1417.37 104.323 1416.8 101.366C1416.23 98.4101 1413.37 96.4779 1410.41 97.0507C1407.46 97.6235 1405.52 100.484 1406.1 103.441C1406.67 106.397 1409.53 108.329 1412.49 107.757Z" stroke="#FFD600" stroke-width="3"/>
<path d="M1535.19 83.9816C1538.14 83.4088 1540.07 80.5479 1539.5 77.5915C1538.93 74.6352 1536.07 72.703 1533.11 73.2758C1530.16 73.8486 1528.22 76.7096 1528.8 79.6659C1529.37 82.6222 1532.23 84.5544 1535.19 83.9816Z" stroke="#FFD600" stroke-width="3"/>
<path d="M1358.26 38.4278C1360.97 37.9025 1362.74 35.279 1362.22 32.568C1361.69 29.857 1359.07 28.0851 1356.36 28.6104C1353.65 29.1357 1351.87 31.7592 1352.4 34.4702C1352.93 37.1812 1355.55 38.9531 1358.26 38.4278Z" fill="#FFD600"/>
<path d="M1373.74 33.5126C1375.64 33.1449 1376.88 31.3084 1376.52 29.4107C1376.15 27.513 1374.31 26.2727 1372.41 26.6404C1370.52 27.0081 1369.28 28.8445 1369.64 30.7422C1370.01 32.6399 1371.85 33.8803 1373.74 33.5126Z" stroke="#FFD600" stroke-width="3"/>
<path d="M1389.21 30.1283C1391.11 29.7606 1392.35 27.9241 1391.98 26.0264C1391.62 24.1287 1389.78 22.8884 1387.88 23.2561C1385.99 23.6238 1384.74 25.4603 1385.11 27.358C1385.48 29.2557 1387.32 30.496 1389.21 30.1283Z" stroke="#FFD600" stroke-width="3"/>
<path d="M1384.06 154.132L1441.7 142.963" stroke="#FFD600" stroke-width="3" stroke-linecap="round" stroke-linejoin="round"/>
<path d="M1385.65 162.369L1414.48 156.784L1419.89 155.734L1428.14 154.136M1443.3 151.199L1434.89 152.729" stroke="#FFD600" stroke-width="3" stroke-linecap="round" stroke-linejoin="round"/>
<path d="M1445.97 131.758L1375.62 145.389L1380.78 172.038L1451.13 158.407L1445.97 131.758Z" stroke="#FFD600" stroke-width="3"/>
<path d="M1415.42 150.62C1417.24 150.267 1418.43 148.507 1418.07 146.688C1417.72 144.868 1415.96 143.679 1414.14 144.032C1412.32 144.384 1411.13 146.145 1411.48 147.964C1411.84 149.783 1413.6 150.972 1415.42 150.62Z" fill="#FFD600" stroke="#FFD600" stroke-width="3"/>
<path d="M1432 156.807C1433.82 156.454 1435.01 154.694 1434.65 152.875C1434.3 151.055 1432.54 149.866 1430.72 150.219C1428.9 150.571 1427.71 152.332 1428.06 154.151C1428.42 155.97 1430.18 157.159 1432 156.807Z" stroke="#FFD600" stroke-width="3"/>
<path d="M1521.07 88.6855L1429.07 104.686" stroke="#FFD600" stroke-width="3"/>
<path d="M1511.53 185.749C1539.59 216.224 1597.86 281.474 1606.44 298.667C1612.53 310.878 1619.08 350.4 1623.67 384.286C1590.18 373.669 1520.96 352.208 1511.98 351.299C1500.74 350.161 1495.28 354.558 1492.64 357.725C1489.99 360.892 1487.38 368.743 1489.94 377.69C1491.99 384.848 1501.96 391.905 1506.69 394.539L1549.78 413.313L1675.88 456.251L1924.18 509.099C1924.64 509.123 1926.96 508.693 1932.56 506.782C1939.57 504.394 1944.37 496.933 1947.33 492.956C1950.29 488.98 1953.86 478.7 1955.03 472.151C1956.2 465.602 1955.7 450.059 1950.17 433.339C1943.84 414.203 1933.32 400.878 1926.65 393.277C1905.29 387.388 1829.87 372.707 1829.25 372.542C1807.25 366.712 1807.39 363.965 1793.88 348.387C1780.37 332.809 1737.44 263.642 1727.34 251.272C1717.25 238.902 1690.33 211.057 1683.51 204.641C1676.68 198.226 1659.15 185.743 1651.45 180.383C1643.74 175.024 1614.36 152.283 1603.9 146.779C1595.54 142.377 1591.62 141.18 1590.7 141.133C1579.16 130.064 1555.12 107.272 1551.29 104.648C1546.51 101.369 1544.57 101.543 1542.07 101.964C1539.57 102.384 1537.56 103.931 1534.84 108.472C1532.67 112.104 1533.72 117.686 1534.52 120.022C1532.36 115.595 1527.34 105.436 1524.53 100.222C1521.02 93.7035 1516.72 91.5513 1513.17 91.0903C1509.61 90.6292 1506.79 91.8592 1503.66 93.8988C1500.52 95.9385 1498.22 102.98 1497.76 106.536C1497.39 109.381 1498.29 112.347 1498.78 113.475C1497.39 115.422 1493.68 122.408 1489.95 134.772C1486.22 147.136 1502.78 173.908 1511.53 185.749Z" stroke="#FFD600" stroke-width="3" stroke-linejoin="round"/>
<path d="M1534.27 119.458C1534.48 122.498 1537.5 132.407 1547.94 147.714C1560.99 166.848 1568.48 176.327 1575.8 183.87C1581.65 189.904 1605.5 212.962 1616.68 223.736C1622.4 228.625 1633.96 241.074 1639.69 247.246C1648.56 256.798 1658.02 270.787 1660.16 277.234" stroke="#FFD600" stroke-width="3" stroke-linejoin="round"/>
<path d="M1623.55 382.46L1627.67 419.581" stroke="#FFD600" stroke-width="3" stroke-linejoin="round"/>
<path d="M1716.03 372.967C1719.67 385.918 1732.91 421.164 1747.88 438.251C1762.85 455.337 1772.22 459.168 1776.14 461.484" stroke="#FFD600" stroke-width="3" stroke-linejoin="round"/>
<path d="M1590.7 141.132C1589.14 141.143 1585.08 143.318 1583.87 145.458C1582.35 148.133 1581.74 154.436 1583.47 158.382C1585.19 162.327 1584.8 164.51 1598.38 178.715C1609.24 190.078 1635.35 212.685 1647.04 222.568C1650.89 226.257 1660.08 235.532 1666.07 243.116C1673.57 252.596 1688.48 272.929 1688.65 274.866" stroke="#FFD600" stroke-width="3" stroke-linejoin="round"/>
<path d="M1498.78 113.475C1501.99 122.364 1510.51 143.116 1518.92 155.013C1529.43 169.883 1541.74 187.326 1550.93 196.068C1560.11 204.81 1571.09 216.124 1578.79 221.484C1586.5 226.844 1599.98 237.738 1603.39 240.946C1606.81 244.154 1622.99 261.248 1627.42 271.394C1630.96 279.511 1632.34 282.668 1632.58 283.231" stroke="#FFD600" stroke-width="3" stroke-linejoin="round"/>
<path d="M1488.42 572.905C1488.42 598.81 1420.42 619.811 1336.54 619.811C1252.65 619.811 1184.65 598.81 1184.65 572.905C1184.65 547 1252.65 526 1336.54 526C1420.42 526 1488.42 547 1488.42 572.905Z" fill="#FFFA80"/>
<path d="M1430.35 555.037C1430.35 571.073 1388.35 584.073 1336.54 584.073C1284.73 584.073 1242.73 571.073 1242.73 555.037C1242.73 539 1284.73 526 1336.54 526C1388.35 526 1430.35 539 1430.35 555.037Z" fill="#FFFA80"/>
<path d="M1303.9 684.95C1303.9 688.45 1301.06 691.288 1297.56 691.288C1294.06 691.288 1291.22 688.45 1291.22 684.95C1291.22 681.45 1294.06 678.613 1297.56 678.613C1301.06 678.613 1303.9 681.45 1303.9 684.95Z" fill="#FFFA80"/>
<path d="M1356.78 689.175C1356.78 692.676 1353.94 695.513 1350.44 695.513C1346.94 695.513 1344.11 692.676 1344.11 689.175C1344.11 685.675 1346.94 682.838 1350.44 682.838C1353.94 682.838 1356.78 685.675 1356.78 689.175Z" fill="#FFFA80"/>
<path d="M1330.34 689.175C1330.34 692.676 1327.5 695.513 1324 695.513C1320.5 695.513 1317.66 692.676 1317.66 689.175C1317.66 685.675 1320.5 682.838 1324 682.838C1327.5 682.838 1330.34 685.675 1330.34 689.175Z" fill="#FFFA80"/>
<path d="M1383.22 684.95C1383.22 688.45 1380.39 691.288 1376.89 691.288C1373.39 691.288 1370.55 688.45 1370.55 684.95C1370.55 681.45 1373.39 678.613 1376.89 678.613C1380.39 678.613 1383.22 681.45 1383.22 684.95Z" fill="#FFFA80"/>
<path d="M1336.54 619.811C1420.42 619.811 1488.42 598.81 1488.42 572.905C1488.42 569.729 1487.4 566.626 1485.45 563.626C1489.87 567.759 1495.06 575.153 1497.08 584.029C1499.71 595.592 1498.72 603.673 1497.52 648.264C1497.41 655.641 1497.3 663.001 1497.19 670.28C1496.71 674.364 1492.93 687.577 1483.13 696.224C1482.27 696.986 1481.31 697.871 1480.25 698.842C1474.74 703.913 1466.68 711.32 1457.07 715.582C1456.59 715.797 1456.1 716.014 1455.61 716.232C1429.13 727.986 1391.74 744.587 1336.8 744.587C1268.85 744.587 1221.78 722.315 1200.17 705.552C1197.69 704.122 1195.15 701.554 1193.04 699.418C1192.11 698.471 1191.26 697.608 1190.53 696.969C1180.73 688.321 1177.86 674.364 1177.38 670.28C1177.27 663.001 1177.16 655.642 1177.05 648.265C1177.01 645.62 1176.97 642.972 1176.93 640.324C1176.27 596.173 1174.73 595.191 1177.27 584.029C1178.84 577.085 1182.37 571.048 1185.94 566.77C1185.09 568.778 1184.65 570.826 1184.65 572.905C1184.65 598.81 1252.65 619.811 1336.54 619.811Z" fill="#FFFA80"/>
<path d="M1177.21 658.673V725.043C1177.21 736.955 1184.04 755.717 1196.17 771.204C1211.35 790.561 1253.83 814.386 1283.41 821.087C1304.67 825.902 1325.07 827.473 1335.05 827.743V827.788C1335.5 827.788 1336 827.784 1336.54 827.775C1337.08 827.784 1337.57 827.788 1338.03 827.788V827.743C1348.01 827.473 1368.41 825.902 1389.67 821.087C1419.25 814.386 1461.73 790.561 1476.9 771.204C1489.04 755.717 1495.87 731.743 1495.87 725.043V675.586C1494 681.427 1490.08 689.853 1483.13 695.985C1482.27 696.745 1481.31 697.63 1480.26 698.599L1480.25 698.603C1474.74 703.674 1466.68 711.08 1457.08 715.343L1455.61 715.992C1429.14 727.747 1391.74 744.348 1336.8 744.348C1268.86 744.348 1221.78 722.076 1200.17 705.312C1197.69 703.883 1195.15 701.314 1193.05 699.179C1192.11 698.231 1191.26 697.369 1190.53 696.729C1180.73 688.082 1177.86 674.124 1177.38 670.041C1177.32 666.27 1177.27 662.478 1177.21 658.673Z" fill="#FFFA80"/>
<path d="M1312.68 600.137C1396.56 600.137 1464.56 579.137 1464.56 553.231C1464.56 527.326 1396.56 506.326 1312.68 506.326C1228.8 506.326 1160.79 527.326 1160.79 553.231C1160.79 579.137 1228.8 600.137 1312.68 600.137Z" stroke="#FFD600" stroke-width="3"/>
<path d="M1312.68 564.399C1364.49 564.399 1406.49 551.399 1406.49 535.363C1406.49 519.326 1364.49 506.326 1312.68 506.326C1260.87 506.326 1218.87 519.326 1218.87 535.363C1218.87 551.399 1260.87 564.399 1312.68 564.399Z" stroke="#FFD600" stroke-width="3"/>
<path d="M1273.7 671.614C1277.2 671.614 1280.04 668.777 1280.04 665.277C1280.04 661.776 1277.2 658.939 1273.7 658.939C1270.2 658.939 1267.36 661.776 1267.36 665.277C1267.36 668.777 1270.2 671.614 1273.7 671.614Z" fill="#FFD600"/>
<path d="M1326.58 675.839C1330.08 675.839 1332.92 673.002 1332.92 669.502C1332.92 666.001 1330.08 663.164 1326.58 663.164C1323.08 663.164 1320.24 666.001 1320.24 669.502C1320.24 673.002 1323.08 675.839 1326.58 675.839Z" fill="#FFD600"/>
<path d="M1300.14 675.839C1303.64 675.839 1306.48 673.002 1306.48 669.502C1306.48 666.001 1303.64 663.164 1300.14 663.164C1296.64 663.164 1293.8 666.001 1293.8 669.502C1293.8 673.002 1296.64 675.839 1300.14 675.839Z" fill="#FFD600"/>
<path d="M1353.03 671.614C1356.53 671.614 1359.37 668.777 1359.37 665.277C1359.37 661.776 1356.53 658.939 1353.03 658.939C1349.53 658.939 1346.69 661.776 1346.69 665.277C1346.69 668.777 1349.53 671.614 1353.03 671.614Z" fill="#FFD600"/>
<path d="M1271.86 462.302C1295.78 446.372 1326.94 446.372 1350.86 462.302" stroke="#FFD600" stroke-width="6" stroke-linecap="round"/>
<path d="M1286.13 475.503C1301.53 465.732 1321.18 465.732 1336.58 475.503" stroke="#FFD600" stroke-width="6" stroke-linecap="round"/>
<path d="M1297.55 489.595C1305.68 484.417 1316.08 484.417 1324.2 489.595" stroke="#FFD600" stroke-width="6" stroke-linecap="round"/>
<path d="M1312.68 600.137C1396.56 600.137 1464.56 579.137 1464.56 553.232C1464.56 550.055 1463.54 546.952 1461.59 543.953C1466.01 548.086 1471.2 555.48 1473.22 564.356C1475.85 575.919 1474.86 584 1473.66 628.59C1473.55 635.968 1473.44 643.328 1473.33 650.607C1472.85 654.691 1469.07 667.903 1459.27 676.551C1458.41 677.312 1457.45 678.198 1456.39 679.169C1450.88 684.24 1442.82 691.646 1433.22 695.909C1432.73 696.124 1432.24 696.34 1431.75 696.559C1405.28 708.313 1367.88 724.914 1312.94 724.914C1245 724.914 1197.92 702.642 1176.31 685.878C1173.83 684.449 1171.29 681.88 1169.18 679.745C1168.25 678.797 1167.4 677.935 1166.67 677.296C1156.87 668.648 1154 654.691 1153.52 650.607C1153.41 643.328 1153.3 635.969 1153.19 628.591C1153.15 625.946 1153.11 623.298 1153.07 620.651C1152.41 576.5 1150.87 575.517 1153.41 564.356C1154.98 557.412 1158.51 551.374 1162.08 547.096C1161.23 549.104 1160.79 551.152 1160.79 553.232C1160.79 579.137 1228.8 600.137 1312.68 600.137Z" stroke="#FFD600" stroke-width="3"/>
<path d="M1153.35 639V705.369C1153.35 717.282 1160.18 736.044 1172.31 751.53C1187.49 770.888 1229.97 794.713 1259.55 801.414C1280.81 806.229 1301.21 807.8 1311.19 808.07V808.114C1311.65 808.114 1312.14 808.11 1312.68 808.102C1313.22 808.11 1313.71 808.114 1314.17 808.114V808.07C1324.15 807.8 1344.55 806.229 1365.81 801.414C1395.39 794.713 1437.87 770.888 1453.04 751.53C1465.18 736.044 1472.01 712.07 1472.01 705.369V655.913C1470.14 661.753 1466.22 670.18 1459.27 676.312C1458.41 677.072 1457.45 677.956 1456.4 678.926L1456.39 678.929C1450.88 684 1442.82 691.407 1433.22 695.669L1431.75 696.318C1405.28 708.072 1367.88 724.674 1312.94 724.674C1245 724.674 1197.93 702.401 1176.31 685.638C1173.83 684.208 1171.29 681.64 1169.19 679.505C1168.25 678.557 1167.4 677.695 1166.67 677.056C1156.87 668.408 1154 654.451 1153.52 650.367C1153.46 646.597 1153.41 642.805 1153.35 639Z" stroke="#FFD600" stroke-width="3"/>
</g>
</g>
</g>
<defs>
<clipPath id="clip0_181_186">
<rect width="1920" height="768" fill="white"/>
</clipPath>
</defs>
</svg>
